<?xml version="1.0" encoding="UTF-8"?>
<svg version="1.1" xmlns="http://www.w3.org/2000/svg" width="393" height="366">
<path d="M0 0 C129.69 0 259.38 0 393 0 C393 120.78 393 241.56 393 366 C263.31 366 133.62 366 0 366 C0 245.22 0 124.44 0 0 Z " fill="#FDFCE8" transform="translate(0,0)"/>
<path d="M0 0 C1.40326831 0.22631174 2.80694612 0.45009323 4.2109375 0.671875 C24.00372892 4.0413094 42.67815942 12.38889372 59 24 C60.30324219 24.91265625 60.30324219 24.91265625 61.6328125 25.84375 C70.19919062 32.2897375 77.52798834 40.34696682 85 48 C84.67 48.66 84.34 49.32 84 50 C82.8553125 48.7625 82.8553125 48.7625 81.6875 47.5 C79.24565858 44.65944803 79.24565858 44.65944803 76 45 C75.67 45.66 75.34 46.32 75 47 C75.66 47.33 76.32 47.66 77 48 C76.67 48.66 76.34 49.32 76 50 C76.66 50.33 77.32 50.66 78 51 C77.67 51.66 77.34 52.32 77 53 C77.66 53.33 78.32 53.66 79 54 C79 54.66 79 55.32 79 56 C80.75589962 57.71064448 82.53040984 59.32748844 84.375 60.9375 C104.10797064 78.67877521 116.9057013 100.16718489 123 126 C123.25966553 127.05195557 123.51933105 128.10391113 123.78686523 129.18774414 C126.1327042 139.5591515 126.51706657 149.57969051 126.4375 160.1875 C126.43293793 161.47800766 126.43293793 161.47800766 126.42828369 162.79458618 C126.36122313 175.62058953 125.60331467 187.62971654 122 200 C121.55844021 201.66497923 121.11839145 203.33035976 120.6796875 204.99609375 C112.78367703 233.93252011 97.79880766 260.39378521 77 282 C76.47599609 282.55510254 75.95199219 283.11020508 75.41210938 283.68212891 C61.95483309 297.89080754 47.42665828 309.07874163 30 318 C29.38302246 318.31807617 28.76604492 318.63615234 28.13037109 318.96386719 C20.95117955 322.61546767 13.62055116 325.64357195 6 328.25 C4.98800537 328.60130981 4.98800537 328.60130981 3.95556641 328.9597168 C-8.67594354 333.09363856 -20.92212609 334.49679212 -34.11572266 334.39111328 C-36.49830328 334.37501147 -38.87918856 334.39107252 -41.26171875 334.41015625 C-54.56637152 334.42999894 -67.05608374 332.60354971 -79.5625 327.8125 C-80.76072388 327.35858887 -80.76072388 327.35858887 -81.9831543 326.89550781 C-100.67801632 319.58151034 -115.29820907 307.37935202 -129 293 C-128.67 292.34 -128.34 291.68 -128 291 C-127.42636719 291.47308594 -126.85273437 291.94617188 -126.26171875 292.43359375 C-109.87454681 305.1902238 -86.98986905 314.9016868 -66 315 C-66.33 313.35 -66.66 311.7 -67 310 C-71.455 308.515 -71.455 308.515 -76 307 C-76.05607422 305.43765625 -76.05607422 305.43765625 -76.11328125 303.84375 C-76.47951765 295.42031282 -77.26067791 287.33717842 -79.0715332 279.09179688 C-79.76144662 275.86138854 -80.06809508 274.20428525 -79 271 C-78.53851563 271.61746094 -78.07703125 272.23492187 -77.6015625 272.87109375 C-71.9474112 280.21255108 -65.74730173 286.83513218 -58 292 C-57.67 292 -57.34 292 -57 292 C-57.309375 291.175 -57.61875 290.35 -57.9375 289.5 C-59 286 -59 286 -59.25 282.0625 C-59.70573593 277.83295076 -61.48840089 275.90995346 -64.32421875 272.87109375 C-75.77039687 260.09086224 -79.18756688 242.69559805 -78.44921875 226.08203125 C-77.29411275 210.29170308 -69.36301497 196.77984313 -58 186 C-30.95628479 162.84081297 5.68634373 162.17863326 39.48632812 164.20947266 C44.6852481 164.62999793 49.84318301 165.21950878 55 166 C53.345218 139.82436316 53.345218 139.82436316 40 118 C34.53673138 114.73881662 29.29572139 113.45787065 23 113 C22.67 111.68 22.34 110.36 22 109 C21.34 109 20.68 109 20 109 C19.86271484 109.98419922 19.86271484 109.98419922 19.72265625 110.98828125 C17.06109963 122.08049829 10.69233157 132.72918008 3 141 C2.44828125 141.63035156 1.8965625 142.26070312 1.328125 142.91015625 C-6.12924366 150.9889723 -15.83667536 155.45425978 -25.5625 160.1875 C-41.02218414 167.76097878 -54.87166141 176.72619408 -67 189 C-67.80824219 189.79792969 -68.61648437 190.59585938 -69.44921875 191.41796875 C-85.44300465 208.0634539 -89.60921001 227.66918924 -91 250 C-105.91416191 235.9477774 -118.59760118 210.54148028 -120.23828125 190.01953125 C-120.44405992 181.12772683 -119.1638906 173.91825558 -113.75 166.6875 C-104.73275808 157.8751954 -92.79120492 155.49318032 -80.91796875 152.41015625 C-39.8264633 142.15623623 -39.8264633 142.15623623 -9 115 C-17.52316913 115.36115123 -25.49953182 117.18908229 -33.70703125 119.38671875 C-36.21902355 120.0585804 -38.73418987 120.71758392 -41.25 121.375 C-45.83564285 122.57471246 -50.41841581 123.78488419 -55 125 C-55.03905803 126.42816534 -55.06680552 127.85664268 -55.08984375 129.28515625 C-55.106521 130.08058838 -55.12319824 130.87602051 -55.14038086 131.69555664 C-54.94177303 134.95583367 -53.68061648 137.24378898 -52 140 C-51.67 140.66 -51.34 141.32 -51 142 C-51.88034912 142.18062988 -52.76069824 142.36125977 -53.66772461 142.54736328 C-77.23806193 147.34278868 -77.23806193 147.34278868 -100 155 C-101.44826172 155.57814453 -101.44826172 155.57814453 -102.92578125 156.16796875 C-103.61027344 156.44253906 -104.29476562 156.71710938 -105 157 C-106.13619218 155.3200153 -107.25842771 153.63058818 -108.375 151.9375 C-109.00148438 150.99777344 -109.62796875 150.05804688 -110.2734375 149.08984375 C-112.1226085 145.78058072 -113.0160579 142.64737159 -114 139 C-114.71900482 139.18712555 -115.43800964 139.3742511 -116.17880249 139.56704712 C-123.08637409 141.36409967 -129.99485216 143.15761941 -136.90427208 144.94754982 C-140.4530971 145.86701834 -144.00160506 146.78766869 -147.54931641 147.71142578 C-151.66471065 148.78276932 -155.78107925 149.85029178 -159.8984375 150.9140625 C-160.57695518 151.08940773 -161.25547287 151.26475296 -161.9545517 151.44541168 C-172.47059156 154.15652048 -183.01757758 156.69317755 -193.62435913 159.02920532 C-204.17465267 160.85550328 -204.17465267 160.85550328 -213.09155273 166.0847168 C-213.53442627 166.86500244 -213.9772998 167.64528809 -214.43359375 168.44921875 C-215.18866211 169.72055664 -215.18866211 169.72055664 -215.95898438 171.01757812 C-216.69084961 172.33918945 -216.69084961 172.33918945 -217.4375 173.6875 C-218.45125124 175.4447534 -219.47048286 177.19886067 -220.49609375 178.94921875 C-220.93107178 179.72612061 -221.3660498 180.50302246 -221.81420898 181.3034668 C-222.20552002 181.86332275 -222.59683105 182.42317871 -223 183 C-223.66 183 -224.32 183 -225 183 C-225.70429659 181.61256594 -226.38777598 180.21455365 -227.0625 178.8125 C-227.44535156 178.03519531 -227.82820313 177.25789062 -228.22265625 176.45703125 C-229.17286879 173.45359563 -229.03132319 171.96623689 -228 169 C-225.63748119 166.02288799 -222.7956937 163.56789643 -220 161 C-219.23429687 160.195625 -219.23429687 160.195625 -218.453125 159.375 C-216.50895017 157.45266983 -214.82212222 156.08237698 -212.05078125 155.8046875 C-210.55629288 155.85298335 -209.06248928 155.9273312 -207.5703125 156.0234375 C-203.46885427 155.98603818 -199.71947472 154.77699278 -195.796875 153.65625 C-193.08457934 153.01984543 -190.77283822 152.87856183 -188 153 C-188 152.34 -188 151.68 -188 151 C-189.65 151 -191.3 151 -193 151 C-193 149.68 -193 148.36 -193 147 C-192.34 147 -191.68 147 -191 147 C-191 146.01 -191 145.02 -191 144 C-194.6660071 144.44889883 -198.07525528 145.02205758 -201.625 146.0625 C-204.67523473 146.90978743 -206.88179975 147.07981741 -210 147 C-207.92078304 120.3860229 -194.4185613 93.63973716 -178 73 C-177.58459961 72.47325684 -177.16919922 71.94651367 -176.74121094 71.40380859 C-145.63864324 32.27056267 -99.68367286 5.18669171 -49.875 -1.3125 C-33.53419724 -3.13770663 -16.14409994 -3.25150491 0 0 Z " fill="#FDFCE7" transform="translate(245,20)"/>
<path d="M0 0 C9.4311652 5.32686183 17.34910188 12.00824993 20.8125 22.5625 C20.8125 23.8825 20.8125 25.2025 20.8125 26.5625 C29.96210579 24.48002314 39.02987865 22.28008503 48.0390625 19.64453125 C52.6985588 18.3084231 57.37658701 17.05226873 62.0625 15.8125 C63.31522705 15.47810913 63.31522705 15.47810913 64.59326172 15.13696289 C70.57312746 13.5625 70.57312746 13.5625 72.8125 13.5625 C73.1425 11.9125 73.4725 10.2625 73.8125 8.5625 C94.49270305 1.5625 94.49270305 1.5625 98.8125 1.5625 C98.8125 3.2125 98.8125 4.8625 98.8125 6.5625 C99.4725 6.2325 100.1325 5.9025 100.8125 5.5625 C101.46463292 3.53786745 101.46463292 3.53786745 101.8125 1.5625 C107.19996951 0.58296009 112.34542666 0.51864095 117.81640625 0.62109375 C120.56642664 0.56731239 122.94313586 0.17971036 125.625 -0.375 C128.56783753 -0.79387104 129.45455074 -0.69071596 131.921875 1.0546875 C133.68757255 2.81332226 135.28612789 4.59441249 136.8125 6.5625 C135.8125 9.5625 135.8125 9.5625 132.8125 11.5625 C133.42996094 12.19414063 134.04742187 12.82578125 134.68359375 13.4765625 C153.73914403 33.6052564 167.58299487 61.64310376 167.35717773 89.71557617 C167.18648481 93.50006979 166.95192406 96.5869809 164.6875 99.6875 C159.58263933 104.19319862 153.01200648 106.88581894 146.8125 109.5625 C145.80960937 110.00464844 144.80671875 110.44679688 143.7734375 110.90234375 C135.54052971 114.16424266 127.00964927 115.99374169 118.375 117.875 C117.15345215 118.1419165 115.9319043 118.40883301 114.67333984 118.68383789 C102.08345399 121.31923279 102.08345399 121.31923279 97.8125 120.5625 C95.5546875 118.18359375 95.5546875 118.18359375 93.6875 115 C93.02492188 113.91074219 92.36234375 112.82148438 91.6796875 111.69921875 C91.06351563 110.66410156 90.44734375 109.62898438 89.8125 108.5625 C88.83101397 107.13294426 87.83482418 105.71314189 86.8125 104.3125 C85.8225 102.95125 85.8225 102.95125 84.8125 101.5625 C85.39 102.635 85.9675 103.7075 86.5625 104.8125 C95.27521964 122.54472519 97.19065437 141.7764918 97.1875 161.25 C97.18931274 161.97834045 97.19112549 162.70668091 97.19299316 163.45709229 C97.18905984 177.40583535 96.69828098 190.79696658 86.88671875 201.703125 C80.32259807 207.77015693 74.13117108 210.12169632 65.3125 210 C64.52786377 209.99170166 63.74322754 209.98340332 62.93481445 209.97485352 C42.60848728 209.3975061 27.70048738 199.69867084 13.94140625 185.65234375 C12.45169477 184.01559581 11.11727084 182.34964067 9.8125 180.5625 C9.32523438 179.89734375 8.83796875 179.2321875 8.3359375 178.546875 C-1.99036619 162.97798636 -4.67191546 144.93142916 -1.51953125 126.69921875 C3.22275726 109.40746807 15.02902926 96.16984597 29.8125 86.5625 C59.25110403 69.93272811 98.34429327 70.64839304 130.8125 75.5625 C129.157718 49.38686316 129.157718 49.38686316 115.8125 27.5625 C110.34923138 24.30131662 105.10822139 23.02037065 98.8125 22.5625 C98.4825 21.2425 98.1525 19.9225 97.8125 18.5625 C97.1525 18.5625 96.4925 18.5625 95.8125 18.5625 C95.67521484 19.54669922 95.67521484 19.54669922 95.53515625 20.55078125 C92.87359963 31.64299829 86.50483157 42.29168008 78.8125 50.5625 C78.26078125 51.19285156 77.7090625 51.82320312 77.140625 52.47265625 C69.68325634 60.5514723 59.97582464 65.01675978 50.25 69.75 C34.79031586 77.32347878 20.94083859 86.28869408 8.8125 98.5625 C8.00425781 99.36042969 7.19601563 100.15835938 6.36328125 100.98046875 C-9.63050465 117.6259539 -13.79671001 137.23168924 -15.1875 159.5625 C-30.10166191 145.5102774 -42.78510118 120.10398028 -44.42578125 99.58203125 C-44.63155992 90.69022683 -43.3513906 83.48075558 -37.9375 76.25 C-28.92025808 67.4376954 -16.97870492 65.05568032 -5.10546875 61.97265625 C35.9860367 51.71873623 35.9860367 51.71873623 66.8125 24.5625 C58.28933087 24.92365123 50.31296818 26.75158229 42.10546875 28.94921875 C39.59347645 29.6210804 37.07831013 30.28008392 34.5625 30.9375 C29.97685715 32.13721246 25.39408419 33.34738419 20.8125 34.5625 C20.77344197 35.99066534 20.74569448 37.41914268 20.72265625 38.84765625 C20.705979 39.64308838 20.68930176 40.43852051 20.67211914 41.25805664 C20.87072697 44.51833367 22.13188352 46.80628898 23.8125 49.5625 C24.1425 50.2225 24.4725 50.8825 24.8125 51.5625 C23.93215088 51.74312988 23.05180176 51.92375977 22.14477539 52.10986328 C-1.42556193 56.90528868 -1.42556193 56.90528868 -24.1875 64.5625 C-25.15300781 64.94792969 -26.11851562 65.33335937 -27.11328125 65.73046875 C-27.79777344 66.00503906 -28.48226562 66.27960938 -29.1875 66.5625 C-30.32369218 64.8825153 -31.44592771 63.19308818 -32.5625 61.5 C-33.18898438 60.56027344 -33.81546875 59.62054688 -34.4609375 58.65234375 C-36.3101085 55.34308072 -37.2035579 52.20987159 -38.1875 48.5625 C-39.26600723 48.84318832 -39.26600723 48.84318832 -40.36630249 49.12954712 C-47.27387409 50.92659967 -54.18235216 52.72011941 -61.09177208 54.51004982 C-64.6405971 55.42951834 -68.18910506 56.35016869 -71.73681641 57.27392578 C-75.85221065 58.34526932 -79.96857925 59.41279178 -84.0859375 60.4765625 C-84.76445518 60.65190773 -85.44297287 60.82725296 -86.1420517 61.00791168 C-96.65809156 63.71902048 -107.20507758 66.25567755 -117.81185913 68.59170532 C-128.36215267 70.41800328 -128.36215267 70.41800328 -137.27905273 75.6472168 C-137.72192627 76.42750244 -138.1647998 77.20778809 -138.62109375 78.01171875 C-139.12447266 78.85927734 -139.62785156 79.70683594 -140.14648438 80.58007812 C-140.87834961 81.90168945 -140.87834961 81.90168945 -141.625 83.25 C-142.63875124 85.0072534 -143.65798286 86.76136067 -144.68359375 88.51171875 C-145.11857178 89.28862061 -145.5535498 90.06552246 -146.00170898 90.8659668 C-146.39302002 91.42582275 -146.78433105 91.98567871 -147.1875 92.5625 C-147.8475 92.5625 -148.5075 92.5625 -149.1875 92.5625 C-149.89179659 91.17506594 -150.57527598 89.77705365 -151.25 88.375 C-151.63285156 87.59769531 -152.01570313 86.82039063 -152.41015625 86.01953125 C-153.36036879 83.01609563 -153.21882319 81.52873689 -152.1875 78.5625 C-149.82498119 75.58538799 -146.9831937 73.13039643 -144.1875 70.5625 C-143.67703125 70.02625 -143.1665625 69.49 -142.640625 68.9375 C-141.25 67.5625 -141.25 67.5625 -138.1875 65.5625 C-136.11431738 65.60507048 -134.04114294 65.64808639 -131.96801758 65.69335938 C-126.1798737 65.42095222 -120.59510871 63.73228419 -115 62.3125 C-113.77474609 62.01214844 -112.54949219 61.71179688 -111.28710938 61.40234375 C-104.01839012 59.60144862 -96.81594088 57.62205549 -89.62329102 55.54003906 C-84.02477244 53.94716843 -78.38854376 52.50598356 -72.75 51.0625 C-63.48715287 48.69128468 -63.48715287 48.69128468 -54.25 46.22265625 C-53.55704834 46.03316406 -52.86409668 45.84367187 -52.15014648 45.6484375 C-50.40232074 45.16696013 -48.65615456 44.67946894 -46.91015625 44.19140625 C-44.1875 43.5625 -44.1875 43.5625 -40.1875 43.5625 C-40.1875 42.5725 -40.1875 41.5825 -40.1875 40.5625 C-40.991875 40.3975 -41.79625 40.2325 -42.625 40.0625 C-48.71031447 37.50026233 -53.31049026 33.06517965 -57.25 27.8125 C-59.07936211 21.47071135 -59.3662398 15.10132418 -56.5625 9.0625 C-52.76299982 5.06302612 -48.69467028 1.89712909 -43.05859375 1.359375 C-34.53646555 1.19522486 -27.69955625 3.15769529 -20.1875 7.125 C-15.32193508 9.68907548 -10.60599128 10.79007677 -5.1875 11.5625 C-5.94933594 11.25957031 -6.71117187 10.95664063 -7.49609375 10.64453125 C-13.99458034 8.00781697 -20.15534598 5.14218736 -26.1875 1.5625 C-18.56229974 -4.48507262 -8.59866889 -4.03201831 0 0 Z " fill="#020202" transform="translate(169.1875,110.4375)"/>
<path d="M0 0 C9.4311652 5.32686183 17.34910188 12.00824993 20.8125 22.5625 C20.8125 23.8825 20.8125 25.2025 20.8125 26.5625 C29.96210579 24.48002314 39.02987865 22.28008503 48.0390625 19.64453125 C52.6985588 18.3084231 57.37658701 17.05226873 62.0625 15.8125 C63.31522705 15.47810913 63.31522705 15.47810913 64.59326172 15.13696289 C70.57312746 13.5625 70.57312746 13.5625 72.8125 13.5625 C73.1425 11.9125 73.4725 10.2625 73.8125 8.5625 C94.49270305 1.5625 94.49270305 1.5625 98.8125 1.5625 C98.8125 3.2125 98.8125 4.8625 98.8125 6.5625 C99.4725 6.2325 100.1325 5.9025 100.8125 5.5625 C101.46463292 3.53786745 101.46463292 3.53786745 101.8125 1.5625 C107.19996951 0.58296009 112.34542666 0.51864095 117.81640625 0.62109375 C120.56642664 0.56731239 122.94313586 0.17971036 125.625 -0.375 C128.56783753 -0.79387104 129.45455074 -0.69071596 131.921875 1.0546875 C133.68757255 2.81332226 135.28612789 4.59441249 136.8125 6.5625 C135.8125 9.5625 135.8125 9.5625 132.8125 11.5625 C133.42996094 12.19414063 134.04742187 12.82578125 134.68359375 13.4765625 C146.36481991 25.81563549 156.47350373 40.9820843 160.8125 57.5625 C159.8225 56.9025 158.8325 56.2425 157.8125 55.5625 C155.11083395 55.76512495 153.34400686 56.22081702 151.0625 57.6875 C149.20090818 60.47988772 149.12280802 63.27323498 148.8125 66.5625 C147.74 66.500625 146.6675 66.43875 145.5625 66.375 C141.70383813 66.56793309 140.52432212 66.95915076 137.8125 69.5625 C137.1525 68.9025 136.4925 68.2425 135.8125 67.5625 C134.8225 67.5625 133.8325 67.5625 132.8125 67.5625 C132.4825 70.5325 132.1525 73.5025 131.8125 76.5625 C130.4925 76.2325 129.1725 75.9025 127.8125 75.5625 C128.8025 75.5625 129.7925 75.5625 130.8125 75.5625 C129.157718 49.38686316 129.157718 49.38686316 115.8125 27.5625 C110.34923138 24.30131662 105.10822139 23.02037065 98.8125 22.5625 C98.4825 21.2425 98.1525 19.9225 97.8125 18.5625 C97.1525 18.5625 96.4925 18.5625 95.8125 18.5625 C95.67521484 19.54669922 95.67521484 19.54669922 95.53515625 20.55078125 C92.87359963 31.64299829 86.50483157 42.29168008 78.8125 50.5625 C78.26078125 51.19285156 77.7090625 51.82320312 77.140625 52.47265625 C69.68325634 60.5514723 59.97582464 65.01675978 50.25 69.75 C34.79031586 77.32347878 20.94083859 86.28869408 8.8125 98.5625 C8.00425781 99.36042969 7.19601563 100.15835938 6.36328125 100.98046875 C-9.63050465 117.6259539 -13.79671001 137.23168924 -15.1875 159.5625 C-30.10166191 145.5102774 -42.78510118 120.10398028 -44.42578125 99.58203125 C-44.63155992 90.69022683 -43.3513906 83.48075558 -37.9375 76.25 C-28.92025808 67.4376954 -16.97870492 65.05568032 -5.10546875 61.97265625 C35.9860367 51.71873623 35.9860367 51.71873623 66.8125 24.5625 C58.28933087 24.92365123 50.31296818 26.75158229 42.10546875 28.94921875 C39.59347645 29.6210804 37.07831013 30.28008392 34.5625 30.9375 C29.97685715 32.13721246 25.39408419 33.34738419 20.8125 34.5625 C20.77344197 35.99066534 20.74569448 37.41914268 20.72265625 38.84765625 C20.705979 39.64308838 20.68930176 40.43852051 20.67211914 41.25805664 C20.87072697 44.51833367 22.13188352 46.80628898 23.8125 49.5625 C24.1425 50.2225 24.4725 50.8825 24.8125 51.5625 C23.93215088 51.74312988 23.05180176 51.92375977 22.14477539 52.10986328 C-1.42556193 56.90528868 -1.42556193 56.90528868 -24.1875 64.5625 C-25.15300781 64.94792969 -26.11851562 65.33335937 -27.11328125 65.73046875 C-27.79777344 66.00503906 -28.48226562 66.27960938 -29.1875 66.5625 C-30.32369218 64.8825153 -31.44592771 63.19308818 -32.5625 61.5 C-33.18898438 60.56027344 -33.81546875 59.62054688 -34.4609375 58.65234375 C-36.3101085 55.34308072 -37.2035579 52.20987159 -38.1875 48.5625 C-39.26600723 48.84318832 -39.26600723 48.84318832 -40.36630249 49.12954712 C-47.27387409 50.92659967 -54.18235216 52.72011941 -61.09177208 54.51004982 C-64.6405971 55.42951834 -68.18910506 56.35016869 -71.73681641 57.27392578 C-75.85221065 58.34526932 -79.96857925 59.41279178 -84.0859375 60.4765625 C-84.76445518 60.65190773 -85.44297287 60.82725296 -86.1420517 61.00791168 C-96.65809156 63.71902048 -107.20507758 66.25567755 -117.81185913 68.59170532 C-128.36215267 70.41800328 -128.36215267 70.41800328 -137.27905273 75.6472168 C-137.72192627 76.42750244 -138.1647998 77.20778809 -138.62109375 78.01171875 C-139.12447266 78.85927734 -139.62785156 79.70683594 -140.14648438 80.58007812 C-140.87834961 81.90168945 -140.87834961 81.90168945 -141.625 83.25 C-142.63875124 85.0072534 -143.65798286 86.76136067 -144.68359375 88.51171875 C-145.11857178 89.28862061 -145.5535498 90.06552246 -146.00170898 90.8659668 C-146.39302002 91.42582275 -146.78433105 91.98567871 -147.1875 92.5625 C-147.8475 92.5625 -148.5075 92.5625 -149.1875 92.5625 C-149.89179659 91.17506594 -150.57527598 89.77705365 -151.25 88.375 C-151.63285156 87.59769531 -152.01570313 86.82039063 -152.41015625 86.01953125 C-153.36036879 83.01609563 -153.21882319 81.52873689 -152.1875 78.5625 C-149.82498119 75.58538799 -146.9831937 73.13039643 -144.1875 70.5625 C-143.67703125 70.02625 -143.1665625 69.49 -142.640625 68.9375 C-141.25 67.5625 -141.25 67.5625 -138.1875 65.5625 C-136.11431738 65.60507048 -134.04114294 65.64808639 -131.96801758 65.69335938 C-126.1798737 65.42095222 -120.59510871 63.73228419 -115 62.3125 C-113.77474609 62.01214844 -112.54949219 61.71179688 -111.28710938 61.40234375 C-104.01839012 59.60144862 -96.81594088 57.62205549 -89.62329102 55.54003906 C-84.02477244 53.94716843 -78.38854376 52.50598356 -72.75 51.0625 C-63.48715287 48.69128468 -63.48715287 48.69128468 -54.25 46.22265625 C-53.55704834 46.03316406 -52.86409668 45.84367187 -52.15014648 45.6484375 C-50.40232074 45.16696013 -48.65615456 44.67946894 -46.91015625 44.19140625 C-44.1875 43.5625 -44.1875 43.5625 -40.1875 43.5625 C-40.1875 42.5725 -40.1875 41.5825 -40.1875 40.5625 C-40.991875 40.3975 -41.79625 40.2325 -42.625 40.0625 C-48.71031447 37.50026233 -53.31049026 33.06517965 -57.25 27.8125 C-59.07936211 21.47071135 -59.3662398 15.10132418 -56.5625 9.0625 C-52.76299982 5.06302612 -48.69467028 1.89712909 -43.05859375 1.359375 C-34.53646555 1.19522486 -27.69955625 3.15769529 -20.1875 7.125 C-15.32193508 9.68907548 -10.60599128 10.79007677 -5.1875 11.5625 C-5.94933594 11.25957031 -6.71117187 10.95664063 -7.49609375 10.64453125 C-13.99458034 8.00781697 -20.15534598 5.14218736 -26.1875 1.5625 C-18.56229974 -4.48507262 -8.59866889 -4.03201831 0 0 Z " fill="#040404" transform="translate(169.1875,110.4375)"/>
<path d="M0 0 C21.91522141 7.50687142 38.03805403 32.79093653 47.80859375 52.34375 C50.8834276 58.73585902 53.16663085 65.13357941 55 72 C55.19319824 72.64727051 55.38639648 73.29454102 55.58544922 73.96142578 C62.45797853 97.42900956 61.8113239 127.61652806 55 151 C54.55844021 152.66497923 54.11839145 154.33035976 53.6796875 155.99609375 C45.78367703 184.93252011 30.79880766 211.39378521 10 233 C9.47599609 233.55510254 8.95199219 234.11020508 8.41210938 234.68212891 C-5.04516691 248.89080754 -19.57334172 260.07874163 -37 269 C-37.61697754 269.31807617 -38.23395508 269.63615234 -38.86962891 269.96386719 C-46.04882045 273.61546767 -53.37944884 276.64357195 -61 279.25 C-62.01199463 279.60130981 -62.01199463 279.60130981 -63.04443359 279.9597168 C-75.67594354 284.09363856 -87.92212609 285.49679212 -101.11572266 285.39111328 C-103.49830328 285.37501147 -105.87918856 285.39107252 -108.26171875 285.41015625 C-121.56637152 285.42999894 -134.05608374 283.60354971 -146.5625 278.8125 C-147.36131592 278.50989258 -148.16013184 278.20728516 -148.9831543 277.89550781 C-167.67801632 270.58151034 -182.29820907 258.37935202 -196 244 C-195.505 243.01 -195.505 243.01 -195 242 C-194.13955078 242.70962891 -194.13955078 242.70962891 -193.26171875 243.43359375 C-167.04457125 263.84238991 -131.79032886 270.17443821 -99.328125 266.41796875 C-70.2705281 262.35217236 -42.03981643 250.11135176 -19 232 C-18.10023438 231.32066406 -17.20046875 230.64132812 -16.2734375 229.94140625 C16.0840214 204.69495233 40.82150291 165.51384264 47.32568359 124.64086914 C49.70855932 105.16503121 50.31645289 82.7121 44 64 C43.75330566 63.22849609 43.50661133 62.45699219 43.25244141 61.66210938 C35.64965185 38.15833515 21.95061176 16.29842018 1.36328125 2.0234375 C0.68845703 1.51683594 0.68845703 1.51683594 0 1 C0 0.67 0 0.34 0 0 Z " fill="#AC8E04" transform="translate(312,69)"/>
<path d="M0 0 C1.40326831 0.22631174 2.80694612 0.45009323 4.2109375 0.671875 C24.00372892 4.0413094 42.67815942 12.38889372 59 24 C60.30324219 24.91265625 60.30324219 24.91265625 61.6328125 25.84375 C70.19919062 32.2897375 77.52798834 40.34696682 85 48 C84.67 48.66 84.34 49.32 84 50 C83.52433594 49.46632812 83.04867188 48.93265625 82.55859375 48.3828125 C59.87533446 24.23746468 24.43374316 12.95423457 -7.8984375 11.7265625 C-59.47598077 10.57782439 -105.10165802 30.88184118 -142 66 C-142.71671875 66.66386719 -143.4334375 67.32773438 -144.171875 68.01171875 C-154.13636169 77.51783905 -161.97918071 89.21549323 -169 101 C-169.37511719 101.62825684 -169.75023437 102.25651367 -170.13671875 102.90380859 C-171.30751792 104.90026093 -172.44360128 106.91151547 -173.5625 108.9375 C-173.94365967 109.62658447 -174.32481934 110.31566895 -174.7175293 111.02563477 C-176.931369 115.26190086 -178.45902931 119.35793061 -179.67578125 123.984375 C-183.79883501 139.33786484 -183.79883501 139.33786484 -188.12353516 142.60351562 C-194.8575412 145.91430033 -202.50719596 147.38150733 -210 147 C-207.92078304 120.3860229 -194.4185613 93.63973716 -178 73 C-177.58459961 72.47325684 -177.16919922 71.94651367 -176.74121094 71.40380859 C-145.63864324 32.27056267 -99.68367286 5.18669171 -49.875 -1.3125 C-33.53419724 -3.13770663 -16.14409994 -3.25150491 0 0 Z " fill="#BB7D2D" transform="translate(245,20)"/>
<path d="M0 0 C-11.1232111 19.85281981 -35.32252324 28.895959 -56.16748047 34.91455078 C-61.77225384 36.47111551 -67.39408493 37.95705803 -73.0234375 39.421875 C-78.70242944 40.90242495 -84.29268985 42.55835988 -89.875 44.37109375 C-92 45 -92 45 -94 45 C-94 43.68 -94 42.36 -94 41 C-78.03273394 33.97754146 -61.00317294 30.50522788 -44 27 C-44.474375 26.401875 -44.94875 25.80375 -45.4375 25.1875 C-47.80656833 21.87080434 -48.11991784 19.27433083 -48.0625 15.3125 C-48.05347656 14.50425781 -48.04445312 13.69601563 -48.03515625 12.86328125 C-48.02355469 12.24839844 -48.01195312 11.63351563 -48 11 C-41.16897981 8.19903089 -34.25933432 6.53907212 -27.0625 4.9375 C-25.36963867 4.55368164 -25.36963867 4.55368164 -23.64257812 4.16210938 C-21.43989992 3.66365573 -19.23630915 3.16921414 -17.03173828 2.67919922 C-15.13690192 2.25469972 -13.24419676 1.8204322 -11.35498047 1.37158203 C-7.4903745 0.4620277 -4.00413106 -0.25833104 0 0 Z " fill="#F6F6E3" transform="translate(237,134)"/>
<path d="M0 0 C2.91024351 2.82205432 5.59369849 5.69625031 8.1875 8.8125 C21.89479912 24.4195314 41.08660181 31.94981732 61 36 C61 36.66 61 37.32 61 38 C52.85674913 39.79913796 45.07627761 40.31733317 36.75 40.25 C35.56720459 40.24468262 34.38440918 40.23936523 33.16577148 40.23388672 C10.96316261 39.99333181 10.96316261 39.99333181 4 36 C3.96261719 34.9584375 3.92523438 33.916875 3.88671875 32.84375 C3.49294952 23.76251383 2.47564849 15.09350965 0.62109375 6.1953125 C0 3 0 3 0 0 Z " fill="#0B0B0A" transform="translate(165,291)"/>
<path d="M0 0 C-0.99 1.32 -1.98 2.64 -3 4 C-2.01 4.495 -2.01 4.495 -1 5 C-8.35565055 6.88834183 -15.71257782 8.77165085 -23.0703125 10.65185547 C-25.56050104 11.28878383 -28.05042099 11.92676342 -30.54003906 12.56591797 C-44.80130978 16.22634922 -59.06806885 19.79978893 -73.44577026 22.97817993 C-84.08914368 24.8213657 -84.08914368 24.8213657 -93.09155273 30.0847168 C-93.75586304 31.25514526 -93.75586304 31.25514526 -94.43359375 32.44921875 C-94.93697266 33.29677734 -95.44035156 34.14433594 -95.95898438 35.01757812 C-96.69084961 36.33918945 -96.69084961 36.33918945 -97.4375 37.6875 C-98.45125124 39.4447534 -99.47048286 41.19886067 -100.49609375 42.94921875 C-100.93107178 43.72612061 -101.3660498 44.50302246 -101.81420898 45.3034668 C-102.20552002 45.86332275 -102.59683105 46.42317871 -103 47 C-103.66 47 -104.32 47 -105 47 C-105.70429659 45.61256594 -106.38777598 44.21455365 -107.0625 42.8125 C-107.44535156 42.03519531 -107.82820313 41.25789063 -108.22265625 40.45703125 C-109.17286879 37.45359563 -109.03132319 35.96623689 -108 33 C-105.63748119 30.02288799 -102.7956937 27.56789643 -100 25 C-99.23429687 24.195625 -99.23429687 24.195625 -98.453125 23.375 C-97.0625 22 -97.0625 22 -94 20 C-91.92681738 20.04257048 -89.85364294 20.08558639 -87.78051758 20.13085938 C-81.9923737 19.85845222 -76.40760871 18.16978419 -70.8125 16.75 C-69.58724609 16.44964844 -68.36199219 16.14929688 -67.09960938 15.83984375 C-59.83671611 14.04039207 -52.64020352 12.06242599 -45.45336914 9.98193359 C-39.76622124 8.36484566 -34.04019197 6.90318311 -28.3125 5.4375 C-26.03758256 4.85355705 -23.76284074 4.26892944 -21.48828125 3.68359375 C-20.40240723 3.40628418 -19.3165332 3.12897461 -18.19775391 2.84326172 C-16.07789534 2.28424573 -13.96513285 1.69753999 -11.86083984 1.08251953 C-10.40411865 0.65688721 -10.40411865 0.65688721 -8.91796875 0.22265625 C-8.06356201 -0.03636475 -7.20915527 -0.29538574 -6.32885742 -0.56225586 C-3.84224319 -1.02965279 -2.37245042 -0.80792665 0 0 Z " fill="#10100E" transform="translate(125,156)"/>
<path d="M0 0 C22.016819 7.54167281 38.03026173 32.88339764 47.8515625 52.4921875 C54.87781457 66.98800747 54.87781457 66.98800747 53.4375 73.125 C52 76 52 76 49 78 C48.01 77.505 48.01 77.505 47 77 C46.33296907 74.64416804 45.7711526 72.32602349 45.25 69.9375 C38.91192655 43.11839493 24.3652761 17.97271649 1.36328125 2.0234375 C0.91339844 1.68570313 0.46351563 1.34796875 0 1 C0 0.67 0 0.34 0 0 Z " fill="#AD900E" transform="translate(312,69)"/>
<path d="M0 0 C0.59683594 0.40089844 1.19367188 0.80179687 1.80859375 1.21484375 C19.46038246 12.78161763 37.79550993 21.54518877 59 24 C59 24.33 59 24.66 59 25 C57.741875 25.020625 56.48375 25.04125 55.1875 25.0625 C54.47980469 25.07410156 53.77210938 25.08570313 53.04296875 25.09765625 C51 25 51 25 48 24 C47.34 25.65 46.68 27.3 46 29 C45.01 29 44.02 29 43 29 C43.495 31.475 43.495 31.475 44 34 C27.10888687 29.02292392 11.36411778 15.10849704 0 2 C0 1.34 0 0.68 0 0 Z " fill="#AA8D07" transform="translate(116,311)"/>
<path d="M0 0 C0.99 0.33 1.98 0.66 3 1 C3.495 2.485 3.495 2.485 4 4 C1.31568868 6.98676893 -1.9326858 9.0437953 -5.25 11.25 C-17.67841527 19.76275392 -25.77009748 30.29223149 -30.11328125 44.953125 C-30.40589844 45.62859375 -30.69851562 46.3040625 -31 47 C-32.485 47.495 -32.485 47.495 -34 48 C-34 47.34 -34 46.68 -34 46 C-34.99 45.67 -35.98 45.34 -37 45 C-37.66 45.66 -38.32 46.32 -39 47 C-39.703125 45.40625 -39.703125 45.40625 -40 43 C-35.70840601 32.72136748 -28.72829527 24.81026204 -21 17 C-20.41734375 16.35675781 -19.8346875 15.71351563 -19.234375 15.05078125 C-15.48940955 10.99373534 -11.18838856 7.75447986 -6.75 4.5 C-6.13471436 4.04157715 -5.51942871 3.5831543 -4.88549805 3.11083984 C-3.31383664 1.98961336 -1.66061927 0.98468881 0 0 Z " fill="#F5F4E3" transform="translate(200,190)"/>
<path d="M0 0 C0.928125 0.845625 1.85625 1.69125 2.8125 2.5625 C11.99014247 10.3763964 22.9898411 16.94735466 35 19 C34.01 19.495 34.01 19.495 33 20 C32.855625 20.639375 32.71125 21.27875 32.5625 21.9375 C32 24 32 24 29 26 C23.2278648 25.78102674 18.29239553 23.03186279 13.1875 20.5625 C12.31673828 20.15451172 11.44597656 19.74652344 10.54882812 19.32617188 C4.12956829 16.25913658 4.12956829 16.25913658 3 14 C3 13.67 3 13.34 3 13 C2.34 12.67 1.68 12.34 1 12 C0.32585108 7.88769156 0 4.16980357 0 0 Z " fill="#F3F3E1" transform="translate(186,299)"/>
<path d="M0 0 C0.79339783 0.00141495 1.58679565 0.0028299 2.40423584 0.00428772 C4.93098772 0.0098721 7.45765004 0.02242171 9.984375 0.03515625 C11.70051955 0.04017327 13.41666549 0.04473582 15.1328125 0.04882812 C19.33336769 0.05983641 23.53385617 0.07709029 27.734375 0.09765625 C28.229375 2.57265625 28.229375 2.57265625 28.734375 5.09765625 C20.82820783 7.00193737 13.14544375 7.29033064 5.046875 7.28515625 C4.07355225 7.28580078 3.10022949 7.28644531 2.09741211 7.28710938 C-3.76235608 7.24331663 -9.4536064 6.84585638 -15.265625 6.09765625 C-13.945625 5.76765625 -12.625625 5.43765625 -11.265625 5.09765625 C-11.595625 3.77765625 -11.925625 2.45765625 -12.265625 1.09765625 C-8.16881935 -0.04639362 -4.22508969 -0.02843842 0 0 Z " fill="#F3F1D5" transform="translate(190.265625,329.90234375)"/>
<path d="M0 0 C-1 2 -1 2 -3.96484375 3.11328125 C-5.28643823 3.5216133 -6.61092243 3.92065948 -7.9375 4.3125 C-8.64753174 4.5283374 -9.35756348 4.7441748 -10.08911133 4.96655273 C-16.18575548 6.80199429 -22.31914085 8.50556673 -28.46069336 10.18359375 C-34.21611766 11.76038793 -39.90870489 13.48472517 -45.59375 15.30078125 C-48 16 -48 16 -50 16 C-50 14.68 -50 13.36 -50 12 C-38.0386555 6.73935954 -25.42509658 3.39814344 -12.6875 0.625 C-11.88127197 0.44517578 -11.07504395 0.26535156 -10.24438477 0.08007812 C-6.47023444 -0.70678866 -3.68720525 -1.13065394 0 0 Z " fill="#E9E9DA" transform="translate(193,163)"/>
<path d="M0 0 C2 2 2 2 2.125 5.125 C2.08375 6.07375 2.0425 7.0225 2 8 C3.093125 7.95875 4.18625 7.9175 5.3125 7.875 C9 8 9 8 12 10 C10.9375 11.5625 10.9375 11.5625 9 13 C5.3125 12.6875 5.3125 12.6875 2 12 C2.99 12.99 3.98 13.98 5 15 C4.34 16.32 3.68 17.64 3 19 C-0.98800207 17.38580869 -3.75410595 14.61303081 -6.75 11.625 C-7.25660156 11.14289063 -7.76320312 10.66078125 -8.28515625 10.1640625 C-9.734375 8.7265625 -9.734375 8.7265625 -12 6 C-12 4.68 -12 3.36 -12 2 C-9.525 2.495 -9.525 2.495 -7 3 C-7 3.66 -7 4.32 -7 5 C-6.34 5 -5.68 5 -5 5 C-3.375 6.5 -3.375 6.5 -2 8 C-2.04125 7.05125 -2.0825 6.1025 -2.125 5.125 C-2 2 -2 2 0 0 Z " fill="#0E0E0E" transform="translate(215,272)"/>
<path d="M0 0 C1.03382813 0.00386719 2.06765625 0.00773438 3.1328125 0.01171875 C5.875 0.3125 5.875 0.3125 8.875 2.3125 C8.08996094 2.31507813 7.30492187 2.31765625 6.49609375 2.3203125 C0.07756741 2.55657727 -4.08230571 3.06816211 -8.8203125 7.546875 C-13.55030781 13.9479465 -12.07467277 20.84324827 -11.125 28.3125 C-10.3062331 33.01869917 -9.24680209 37.67007374 -8.125 42.3125 C-13.86128135 37.5350692 -15.92972894 28.51525219 -16.62109375 21.30078125 C-16.97124153 10.63718962 -16.97124153 10.63718962 -13.9375 6.0625 C-9.44645457 1.67125558 -6.34206197 -0.1033168 0 0 Z " fill="#D8D9CA" transform="translate(149.125,129.6875)"/>
<path d="M0 0 C2.5 2.1875 2.5 2.1875 4 5 C4 8.81077379 3.56591949 10.40085417 0.9375 13.18359375 C0.298125 13.78300781 -0.34125 14.38242187 -1 15 C-2.47981874 13.85500893 -3.95883682 12.708983 -5.4375 11.5625 C-6.26121094 10.92441406 -7.08492187 10.28632813 -7.93359375 9.62890625 C-10.96891824 7.23622135 -10.96891824 7.23622135 -11.3125 4.625 C-11 2 -11 2 -9.4375 0.125 C-5.87190297 -1.52066017 -3.73509355 -1.06716959 0 0 Z " fill="#0D0D0D" transform="translate(200,295)"/>
<path d="M0 0 C4.125 0.6875 8.25 1.375 12.375 2.0625 C13.96441406 2.32740234 13.96441406 2.32740234 15.5859375 2.59765625 C16.38257813 2.73042969 17.17921875 2.86320312 18 3 C18 3.33 18 3.66 18 4 C16.741875 4.020625 15.48375 4.04125 14.1875 4.0625 C13.47980469 4.07410156 12.77210938 4.08570313 12.04296875 4.09765625 C10 4 10 4 7 3 C6.34 4.65 5.68 6.3 5 8 C4.01 8 3.02 8 2 8 C2.33 9.65 2.66 11.3 3 13 C-1.39683488 11.80086322 -4.09840934 10.5711885 -7 7 C-7 6.34 -7 5.68 -7 5 C-4.69 5.33 -2.38 5.66 0 6 C0 4.02 0 2.04 0 0 Z " fill="#B09413" transform="translate(157,332)"/>
<path d="M0 0 C1.32 0.33 2.64 0.66 4 1 C3.67 1.5775 3.34 2.155 3 2.75 C1.72924102 5.19883862 1.72924102 5.19883862 2 9 C6.455 8.505 6.455 8.505 11 8 C11.33 8.99 11.66 9.98 12 11 C11 13 11 13 9.109375 13.7734375 C2.80912399 15.37979289 2.80912399 15.37979289 -1.0625 13.5625 C-3 11 -3 11 -3.5 7.5 C-2.99603747 3.97226229 -2.42668267 2.52779445 0 0 Z " fill="#101010" transform="translate(159,154)"/>
<path d="M0 0 C0.66644531 0.43570312 1.33289063 0.87140625 2.01953125 1.3203125 C8.5287377 5.52626128 15.14755192 9.38158931 22 13 C21.34 13.66 20.68 14.32 20 15 C20 15.66 20 16.32 20 17 C20 17.99 20 18.98 20 20 C14.69802162 16.32939958 10.06513422 12.28262288 5.5 7.75 C4.95956055 7.21858398 4.41912109 6.68716797 3.86230469 6.13964844 C0 2.24753818 0 2.24753818 0 0 Z " fill="#AE9110" transform="translate(116,311)"/>
<path d="M0 0 C0.66 1.32 1.32 2.64 2 4 C7.445 3.505 7.445 3.505 13 3 C13 3.99 13 4.98 13 6 C10 8.1875 10 8.1875 7 10 C8.98 10.99 10.96 11.98 13 13 C8.10113527 14.69662517 4.70774067 12.73078701 0 11 C0 7.37 0 3.74 0 0 Z " fill="#121211" transform="translate(169,316)"/>
<path d="M0 0 C0.28875 0.639375 0.5775 1.27875 0.875 1.9375 C1.82823451 4.15206079 1.82823451 4.15206079 4 5 C-0.95 6.65 -5.9 8.3 -11 10 C-10 3 -10 3 -8.3125 1.0625 C-5.40913094 -0.27148038 -3.15869424 -0.21536552 0 0 Z " fill="#121211" transform="translate(155,165)"/>
<path d="M0 0 C0 1.32 0 2.64 0 4 C-2.62394306 4.83679277 -5.24904384 5.66956942 -7.875 6.5 C-8.62136719 6.73847656 -9.36773437 6.97695312 -10.13671875 7.22265625 C-15.7734375 9 -15.7734375 9 -18 9 C-18 7.68 -18 6.36 -18 5 C-16.41800369 4.35089846 -14.83434276 3.70585306 -13.25 3.0625 C-12.36828125 2.70285156 -11.4865625 2.34320313 -10.578125 1.97265625 C-6.76133592 0.53268582 -4.131151 0 0 0 Z " fill="#E2E3D4" transform="translate(161,170)"/>
<path d="M0 0 C3.18296528 -0.55996611 4.91350746 -0.76036769 8 0 C11.76937572 2.75013652 14.83701329 6.08436304 18 9.5 C18.87011719 10.40621094 19.74023438 11.31242187 20.63671875 12.24609375 C22.77698222 14.48043474 24.89636825 16.73122807 27 19 C26.67 19.66 26.34 20.32 26 21 C25.52433594 20.46632813 25.04867188 19.93265625 24.55859375 19.3828125 C18.69800675 13.14447127 12.34467826 8.65361105 5.16015625 4.06640625 C2 2 2 2 0 0 Z " fill="#C1893E" transform="translate(303,49)"/>
<path d="M0 0 C0.66 0.99 1.32 1.98 2 3 C1.01 3.495 1.01 3.495 0 4 C5.94 4.33 11.88 4.66 18 5 C18 5.33 18 5.66 18 6 C7.77 6 -2.46 6 -13 6 C-11.68 5.67 -10.36 5.34 -9 5 C-9.33 3.68 -9.66 2.36 -10 1 C-6.61045199 -0.04293785 -3.53672026 -0.30754089 0 0 Z " fill="#F5F5E2" transform="translate(188,330)"/>
<path d="M0 0 C0.66 0 1.32 0 2 0 C2.33 0.66 2.66 1.32 3 2 C4.32 2 5.64 2 7 2 C5.02 6.29 3.04 10.58 1 15 C-2 12 -2 12 -2.1875 8.3125 C-2.125625 7.219375 -2.06375 6.12625 -2 5 C-1.01 5 -0.02 5 1 5 C0.67 3.35 0.34 1.7 0 0 Z " fill="#FAF9E5" transform="translate(46,113)"/>
<path d="M0 0 C2.88447441 4.32671162 4.23796672 8.8636026 5 14 C3.8125 17.625 3.8125 17.625 2 20 C1.34 20.33 0.68 20.66 0 21 C-0.66 20.67 -1.32 20.34 -2 20 C-1.51171875 13.9453125 -1.51171875 13.9453125 -1 12 C-0.01 11.34 0.98 10.68 2 10 C1.34 9.67 0.68 9.34 0 9 C0 6.03 0 3.06 0 0 Z " fill="#B19414" transform="translate(361,126)"/>
<path d="M0 0 C0.54938232 0.26216309 1.09876465 0.52432617 1.66479492 0.79443359 C4.17160174 1.98956068 6.67953751 3.18230011 9.1875 4.375 C10.05181641 4.7875 10.91613281 5.2 11.80664062 5.625 C13.06831055 6.22441406 13.06831055 6.22441406 14.35546875 6.8359375 C15.12528076 7.20251465 15.89509277 7.5690918 16.68823242 7.94677734 C19.09754093 9.04443886 21.53479932 10.03527336 24 11 C24 11.33 24 11.66 24 12 C15.01976138 11.04465547 7.13941656 7.79069755 -1 4 C-0.67 2.68 -0.34 1.36 0 0 Z " fill="#D2D3C7" transform="translate(142,111)"/>
<path d="M0 0 C0.99 0.33 1.98 0.66 3 1 C3.20496094 2.16917969 3.40992188 3.33835938 3.62109375 4.54296875 C3.89319855 6.09115122 4.16533567 7.639328 4.4375 9.1875 C4.63956055 10.34088867 4.63956055 10.34088867 4.84570312 11.51757812 C5.52089704 15.35465574 6.21232777 19.18399568 7 23 C3.69488413 20.32674451 2.67247089 17.11602989 1.25 13.1875 C0.80140625 11.98480469 0.3528125 10.78210938 -0.109375 9.54296875 C-1.03269275 5.86994596 -0.91330055 3.63649549 0 0 Z " fill="#CDCDC3" transform="translate(134,149)"/>
<path d="M0 0 C0 3 0 3 -1 5 C-0.01 5.33 0.98 5.66 2 6 C-0.31 7.65 -2.62 9.3 -5 11 C-5.66 10.34 -6.32 9.68 -7 9 C-7.99 9 -8.98 9 -10 9 C-6.83047153 5.73991357 -3.60062011 2.77762123 0 0 Z " fill="#EEEFE0" transform="translate(194,194)"/>
<path d="M0 0 C-0.82187261 4.38332057 -1.90154282 8.67940177 -3 13 C-3.66 13 -4.32 13 -5 13 C-5.33 13.66 -5.66 14.32 -6 15 C-6.08142927 13.2507786 -6.13938541 11.50045458 -6.1875 9.75 C-6.22230469 8.77546875 -6.25710937 7.8009375 -6.29296875 6.796875 C-5.82942898 2.37161532 -4.6208422 0 0 0 Z " fill="#F3F4E4" transform="translate(139,136)"/>
<path d="M0 0 C-3.25905292 4.70752089 -3.25905292 4.70752089 -6.375 5.9375 C-9.60629846 6.01443568 -12.01249085 5.18110827 -15 4 C-12.19836511 2.13224341 -10.11958197 1.27321694 -6.9375 0.3125 C-6.05964844 0.04050781 -5.18179688 -0.23148438 -4.27734375 -0.51171875 C-2 -1 -2 -1 0 0 Z " fill="#1B1B1A" transform="translate(160,175)"/>
<path d="M0 0 C2.94831641 2.77488604 5.1937951 5.55119004 7.3125 9 C7.84488281 9.845625 8.37726563 10.69125 8.92578125 11.5625 C10 14 10 14 9.79296875 16.1875 C9 18 9 18 7 20 C6.61908203 18.67935547 6.61908203 18.67935547 6.23046875 17.33203125 C5.88628906 16.17058594 5.54210937 15.00914062 5.1875 13.8125 C4.85105469 12.66394531 4.51460938 11.51539063 4.16796875 10.33203125 C3.07989607 7.22793093 1.7235089 4.78033097 0 2 C0 1.34 0 0.68 0 0 Z " fill="#D3D3C8" transform="translate(253,210)"/>
<path d="M0 0 C4.67199091 1.53093488 8.02170005 4.10757395 11.8125 7.125 C12.40998047 7.59292969 13.00746094 8.06085938 13.62304688 8.54296875 C15.08616792 9.69005565 16.54366297 10.84431234 18 12 C17.01 13.485 17.01 13.485 16 15 C15.5153125 14.49210937 15.030625 13.98421875 14.53125 13.4609375 C10.4248613 9.24399218 6.27979046 5.52439057 1.46875 2.12890625 C0.9840625 1.75636719 0.499375 1.38382812 0 1 C0 0.67 0 0.34 0 0 Z " fill="#B39A23" transform="translate(312,69)"/>
<path d="M0 0 C-1.50412782 3.00825564 -3.86048301 3.30662971 -6.921875 4.40234375 C-9.35135321 5.10104707 -11.48568864 5.23571669 -14 5 C-14 3.68 -14 2.36 -14 1 C-12.41913952 0.63495397 -10.83516093 0.28339494 -9.25 -0.0625 C-8.36828125 -0.25972656 -7.4865625 -0.45695313 -6.578125 -0.66015625 C-4.01320972 -0.99825872 -2.42908361 -0.81158635 0 0 Z " fill="#D6D7C9" transform="translate(193,163)"/>
<path d="M0 0 C0.66 0.99 1.32 1.98 2 3 C1.375 6.125 1.375 6.125 0 9 C-2.125 9.875 -2.125 9.875 -4 10 C-4 9.34 -4 8.68 -4 8 C-4.99 7.67 -5.98 7.34 -7 7 C-4.69 4.69 -2.38 2.38 0 0 Z " fill="#F5F4D5" transform="translate(322,301)"/>
<path d="M0 0 C0.99 0.33 1.98 0.66 3 1 C3 1.66 3 2.32 3 3 C3.66 3 4.32 3 5 3 C5 3.99 5 4.98 5 6 C5.66 6.33 6.32 6.66 7 7 C6.67 7.66 6.34 8.32 6 9 C1.545 7.02 1.545 7.02 -3 5 C-2.67 3.68 -2.34 2.36 -2 1 C-1.34 0.67 -0.68 0.34 0 0 Z " fill="#F7F5E0" transform="translate(284,27)"/>
<path d="M0 0 C0.66 0 1.32 0 2 0 C3.39195915 4.17587745 1.82323219 6.13474776 0 10 C0.66 10 1.32 10 2 10 C2.33 9.34 2.66 8.68 3 8 C3 9.65 3 11.3 3 13 C1.35 13 -0.3 13 -2 13 C-1.34 8.71 -0.68 4.42 0 0 Z " fill="#C08639" transform="translate(37,154)"/>
<path d="M0 0 C0.33 0.66 0.66 1.32 1 2 C0.34 2 -0.32 2 -1 2 C-1 2.66 -1 3.32 -1 4 C-0.34 4.33 0.32 4.66 1 5 C-3.68965706 6.11658501 -6.53763531 5.80619523 -11 4 C-10.34 3.34 -9.68 2.68 -9 2 C-7 2 -5 2 -3 2 C-2.01 1.34 -1.02 0.68 0 0 Z " fill="#C0883D" transform="translate(289,35)"/>
<path d="M0 0 C3.43595166 1.52708963 6.11912454 3.59927045 9 6 C2.375 6.25 2.375 6.25 -1 4 C-0.67 2.68 -0.34 1.36 0 0 Z " fill="#F7F7DE" transform="translate(135,331)"/>
<path d="M0 0 C0.66 0.33 1.32 0.66 2 1 C0.02 4.96 -1.96 8.92 -4 13 C-4.99 12.01 -5.98 11.02 -7 10 C-6 8 -6 8 -3 6 C-2.27617533 3.94074861 -2.27617533 3.94074861 -2 2 C-1.34 2 -0.68 2 0 2 C0 1.34 0 0.68 0 0 Z " fill="#F6F2DB" transform="translate(51,115)"/>
<path d="M0 0 C0.66 1.32 1.32 2.64 2 4 C-0.80804268 6.96404505 -3.18315774 9.44499019 -7 11 C-5.22054913 6.95579349 -2.60470327 3.53921513 0 0 Z " fill="#AE9414" transform="translate(328,265)"/>
<path d="M0 0 C2.97 0.33 5.94 0.66 9 1 C9 1.66 9 2.32 9 3 C5.7 3.33 2.4 3.66 -1 4 C-0.67 2.68 -0.34 1.36 0 0 Z " fill="#272623" transform="translate(217,326)"/>
<path d="M0 0 C0.99 0.33 1.98 0.66 3 1 C3 2.98 3 4.96 3 7 C2.34 7 1.68 7 1 7 C0.67 7.66 0.34 8.32 0 9 C-1.125 2.25 -1.125 2.25 0 0 Z " fill="#D9DACB" transform="translate(134,149)"/>
<path d="M0 0 C4.455 2.97 4.455 2.97 9 6 C8.67 7.32 8.34 8.64 8 10 C6.66070495 8.71451591 5.32871357 7.42141845 4 6.125 C2.88625 5.04605469 2.88625 5.04605469 1.75 3.9453125 C0 2 0 2 0 0 Z " fill="#B89F2E" transform="translate(116,311)"/>
<path d="M0 0 C3.7952131 1.49097658 5.61042731 3.75700849 8 7 C5.25851328 6.62952882 3.41406801 6.31412056 1.1875 4.625 C0 3 0 3 0 0 Z " fill="#AC8E09" transform="translate(329,82)"/>
<path d="M0 0 C0.66 0 1.32 0 2 0 C2.93065133 2.60582371 3.14917407 3.64198224 2.0625 6.25 C1.5365625 7.11625 1.5365625 7.11625 1 8 C0.01 7.67 -0.98 7.34 -2 7 C-1.34 4.69 -0.68 2.38 0 0 Z " fill="#AF9313" transform="translate(351,223)"/>
<path d="M0 0 C3.96 1.98 3.96 1.98 8 4 C7.01 5.485 7.01 5.485 6 7 C3.69 6.01 1.38 5.02 -1 4 C-0.67 2.68 -0.34 1.36 0 0 Z " fill="#E3E3D6" transform="translate(142,111)"/>
<path d="M0 0 C0.33 0.66 0.66 1.32 1 2 C-1.625 5.875 -1.625 5.875 -5 7 C-5.99 6.34 -6.98 5.68 -8 5 C-4.04 2.525 -4.04 2.525 0 0 Z " fill="#F8F2DB" transform="translate(137,58)"/>
<path d="M0 0 C-0.33 1.98 -0.66 3.96 -1 6 C-2.32 6 -3.64 6 -5 6 C-5.33 4.68 -5.66 3.36 -6 2 C-2.25 0 -2.25 0 0 0 Z " fill="#F8F7DD" transform="translate(273,339)"/>
<path d="M0 0 C0 1.32 0 2.64 0 4 C-1.98 4 -3.96 4 -6 4 C-6 3.01 -6 2.02 -6 1 C-4 0 -4 0 0 0 Z " fill="#F7F8E8" transform="translate(161,170)"/>
<path d="M0 0 C0.66 0.99 1.32 1.98 2 3 C2.99387334 4.33790641 3.9926892 5.67218122 5 7 C3.68 7.33 2.36 7.66 1 8 C0.01 6.68 -0.98 5.36 -2 4 C-1.34 2.68 -0.68 1.36 0 0 Z " fill="#131311" transform="translate(137,166)"/>
<path d="M0 0 C0.33 0.66 0.66 1.32 1 2 C3.52733235 2.65555119 3.52733235 2.65555119 6 3 C4.6875 4.5 4.6875 4.5 3 6 C2.01 6 1.02 6 0 6 C-1.125 2.25 -1.125 2.25 0 0 Z " fill="#F8F6E1" transform="translate(101,51)"/>
<path d="M0 0 C2.45823172 3.68734758 3.01242616 6.69699971 4 11 C2.68 10.34 1.36 9.68 0 9 C0 6.03 0 3.06 0 0 Z " fill="#B39820" transform="translate(361,126)"/>
<path d="M0 0 C2.86724686 0.57344937 3.8614515 0.8614515 6 3 C2.535 4.485 2.535 4.485 -1 6 C-0.67 4.02 -0.34 2.04 0 0 Z " fill="#F5F1D9" transform="translate(130,35)"/>
<path d="M0 0 C2.475 0.99 2.475 0.99 5 2 C4.67 2.66 4.34 3.32 4 4 C1.69 4 -0.62 4 -3 4 C-2.01 2.68 -1.02 1.36 0 0 Z " fill="#F3F2DA" transform="translate(151,341)"/>
<path d="M0 0 C0.66 0.99 1.32 1.98 2 3 C1.67 3.66 1.34 4.32 1 5 C0.34 4.67 -0.32 4.34 -1 4 C-1.33 4.99 -1.66 5.98 -2 7 C-2.99 6.67 -3.98 6.34 -5 6 C-3.35 4.02 -1.7 2.04 0 0 Z " fill="#121211" transform="translate(330,169)"/>
<path d="M0 0 C0.99 0.99 1.98 1.98 3 3 C1.68 3.99 0.36 4.98 -1 6 C-1 5.34 -1 4.68 -1 4 C-1.99 3.67 -2.98 3.34 -4 3 C-2.68 2.01 -1.36 1.02 0 0 Z " fill="#DFE0D3" transform="translate(140,132)"/>
<path d="M0 0 C0.33 2.97 0.66 5.94 1 9 C0.34 8.67 -0.32 8.34 -1 8 C-1 6.68 -1 5.36 -1 4 C-2.32 4.33 -3.64 4.66 -5 5 C-5 4.34 -5 3.68 -5 3 C-1.42307692 0 -1.42307692 0 0 0 Z " fill="#A68903" transform="translate(361,126)"/>
<path d="M0 0 C0 0.99 0 1.98 0 3 C-5.75 2.25 -5.75 2.25 -8 0 C-4.71303767 -0.79953138 -3.28976808 -1.09658936 0 0 Z " fill="#F9F4DC" transform="translate(50,165)"/>
<path d="M0 0 C2.31 0.33 4.62 0.66 7 1 C6.67 1.66 6.34 2.32 6 3 C3.69 3 1.38 3 -1 3 C-0.67 2.01 -0.34 1.02 0 0 Z " fill="#BD8336" transform="translate(252,22)"/>
<path d="M0 0 C-0.33 0.99 -0.66 1.98 -1 3 C-3.875 3.625 -3.875 3.625 -7 4 C-7.66 3.34 -8.32 2.68 -9 2 C-3.375 0 -3.375 0 0 0 Z " fill="#F1EFCD" transform="translate(257,346)"/>
<path d="M0 0 C0.66 1.32 1.32 2.64 2 4 C0.75 6.75 0.75 6.75 -1 9 C-1.66 9 -2.32 9 -3 9 C-2.01 6.03 -1.02 3.06 0 0 Z " fill="#F5F1D5" transform="translate(357,247)"/>
<path d="M0 0 C0 3 0 3 -1 5 C-0.01 5.33 0.98 5.66 2 6 C0.35 6.33 -1.3 6.66 -3 7 C-3.33 5.68 -3.66 4.36 -4 3 C-2.68 2.01 -1.36 1.02 0 0 Z " fill="#E4E4D5" transform="translate(194,194)"/>
<path d="M0 0 C0.33 1.65 0.66 3.3 1 5 C-0.98 4.34 -2.96 3.68 -5 3 C-2.25 0 -2.25 0 0 0 Z " fill="#B89D27" transform="translate(159,340)"/>
<path d="M0 0 C0.66 0 1.32 0 2 0 C1.67 1.32 1.34 2.64 1 4 C0.34 4 -0.32 4 -1 4 C-1.66 5.32 -2.32 6.64 -3 8 C-3.66 7.67 -4.32 7.34 -5 7 C-4.21654285 5.82780457 -3.42297164 4.66236332 -2.625 3.5 C-2.18414062 2.8503125 -1.74328125 2.200625 -1.2890625 1.53125 C-0.65097656 0.77328125 -0.65097656 0.77328125 0 0 Z " fill="#F6F3DA" transform="translate(341,277)"/>
<path d="M0 0 C0 0.66 0 1.32 0 2 C-0.66 2 -1.32 2 -2 2 C-2 3.32 -2 4.64 -2 6 C-2.66 6 -3.32 6 -4 6 C-4 4.68 -4 3.36 -4 2 C-4.66 1.67 -5.32 1.34 -6 1 C-3 0 -3 0 0 0 Z " fill="#CECFC1" transform="translate(165,168)"/>
<path d="M0 0 C0.66 0 1.32 0 2 0 C3.2077558 3.62326739 2.54311128 4.64146369 1 8 C0.34 8 -0.32 8 -1 8 C-0.67 5.36 -0.34 2.72 0 0 Z " fill="#C38B42" transform="translate(37,154)"/>
<path d="M0 0 C0.66 0.33 1.32 0.66 2 1 C1.1875 3.9375 1.1875 3.9375 0 7 C-0.99 7.33 -1.98 7.66 -3 8 C-1.125 2.25 -1.125 2.25 0 0 Z " fill="#F8F2D9" transform="translate(72,126)"/>
<path d="M0 0 C0.33 1.32 0.66 2.64 1 4 C0.01 4.66 -0.98 5.32 -2 6 C-2.66 5.67 -3.32 5.34 -4 5 C-3 2 -3 2 0 0 Z " fill="#BF863B" transform="translate(110,52)"/>
</svg>
