<?xml version="1.0" encoding="UTF-8"?>
<svg version="1.1" xmlns="http://www.w3.org/2000/svg" width="1024" height="1024">
<path d="M0 0 C4.0555478 -0.34433896 7.95686082 -0.53765149 12 0 C14.56834049 2.68508324 16 4.22212653 16 8 C16.99 8.495 16.99 8.495 18 9 C18.47574438 11.54024004 18.84007547 14.00051464 19.125 16.5625 C19.21136719 17.27341797 19.29773438 17.98433594 19.38671875 18.71679688 C19.59934783 20.47689312 19.80072697 22.23834164 20 24 C25.3644666 24.31078774 28.60639143 23.53816995 33.375 21.125 C49.08676175 13.79655332 67.01316761 14.90418046 83.0859375 20.5 C109.69972571 30.38103519 129.1438552 52.7956288 141.06591797 77.91113281 C151.10367035 100.35833861 151.10367035 100.35833861 147.625 109.6875 C147.08875 110.450625 146.5525 111.21375 146 112 C142.95642491 110.98547497 141.7138655 110.0380941 139.3125 108 C122.12448459 94.48133619 100.52168943 86.85849385 80 80 C79.67 80.33 79.34 80.66 79 81 C79.6290625 81.76441406 80.258125 82.52882813 80.90625 83.31640625 C98.59885626 105.26454809 107.37048867 131.88599994 104.5546875 160.18359375 C100.71890041 191.72989236 88.23777796 218.64337877 68 243 C67.26910156 243.92683594 66.53820312 244.85367188 65.78515625 245.80859375 C61.87272788 250.73758471 57.98354662 255.20182157 53.12890625 259.2109375 C50.67437539 261.27364416 48.38664098 263.47904025 46.0625 265.6875 C19.66312556 289.61760696 -15.36558864 305.10644118 -51.34521484 303.92285156 C-67.81440138 302.9742375 -82.45318117 298.69171153 -94.31640625 286.6484375 C-102.03923404 277.68825056 -105.13507996 267.76696539 -105 256 C-104.53885874 250.77846201 -103.51683245 245.67808356 -102.52441406 240.53564453 C-100.2422286 228.66094607 -98.24274923 217.11318662 -98 205 C-97.97736084 204.19183838 -97.95472168 203.38367676 -97.93139648 202.55102539 C-97.76390792 192.03585539 -98.84613422 181.59626898 -99.79370117 171.13500977 C-102.43428681 141.69799877 -98.87984217 111.59516406 -80.0625 87.625 C-78.72192 86.07150435 -77.3674007 84.52994078 -76 83 C-74.91332031 81.68322266 -74.91332031 81.68322266 -73.8046875 80.33984375 C-57.29085851 60.96470775 -33.19508829 49.63787502 -8 47 C-4.32505406 46.86505706 -0.67471893 46.86979342 3 47 C2.75056641 45.70449219 2.75056641 45.70449219 2.49609375 44.3828125 C2.01738437 41.11854223 1.9676294 38.16659739 2.0625 34.875 C2.0985196 28.6003865 2.09461235 21.9775494 0 16 C-1.97502383 14.62003406 -1.97502383 14.62003406 -4 14 C-3.71572583 12.41532272 -3.42225182 10.8322943 -3.125 9.25 C-2.96257812 8.36828125 -2.80015625 7.4865625 -2.6328125 6.578125 C-2.03203736 4.13052256 -1.22002883 2.19400143 0 0 Z M-2 13 C-1 15 -1 15 -1 15 Z M21 36 C21 36.66 21 37.32 21 38 C22.98 38.495 22.98 38.495 25 39 C23.68 39 22.36 39 21 39 C20.67 41.97 20.34 44.94 20 48 C25.955532 50.07970959 31.81616764 51.75738593 38 53 C32.1799049 42.71138916 32.1799049 42.71138916 23.125 36.0625 C22.42375 36.041875 21.7225 36.02125 21 36 Z " fill="#FDB214" transform="translate(502,352)"/>
<path d="M0 0 C4.0555478 -0.34433896 7.95686082 -0.53765149 12 0 C14.56834049 2.68508324 16 4.22212653 16 8 C16.66 8.33 17.32 8.66 18 9 C18.47574438 11.54024004 18.84007547 14.00051464 19.125 16.5625 C19.21136719 17.27341797 19.29773438 17.98433594 19.38671875 18.71679688 C19.59934783 20.47689312 19.80072697 22.23834164 20 24 C25.3644666 24.31078774 28.60639143 23.53816995 33.375 21.125 C49.08676175 13.79655332 67.01316761 14.90418046 83.0859375 20.5 C109.69972571 30.38103519 129.1438552 52.7956288 141.06591797 77.91113281 C151.10367035 100.35833861 151.10367035 100.35833861 147.625 109.6875 C147.08875 110.450625 146.5525 111.21375 146 112 C142.95642491 110.98547497 141.7138655 110.0380941 139.3125 108 C124.63640163 96.45700129 106.51859295 89.06082239 88.91088867 83.28979492 C80.13880446 80.41247217 73.8492699 77.36003634 67 71 C60.10638172 65.43207754 52.89238091 61.13993708 44.92553711 57.32055664 C39.99180164 54.86656251 37.26727183 52.44917191 34 48 C33.30777344 47.09636719 32.61554687 46.19273437 31.90234375 45.26171875 C30.58520461 43.53608318 29.27274608 41.8068656 27.96484375 40.07421875 C25.92068838 37.91627342 24.93267027 37.23335226 22 37 C21.67 37.33 21.34 37.66 21 38 C22.65 38.33 24.3 38.66 26 39 C25.0409375 39.185625 25.0409375 39.185625 24.0625 39.375 C23.381875 39.58125 22.70125 39.7875 22 40 C20.5216774 42.95664519 20.93967217 45.74229737 21 49 C19.10388566 48.85786703 17.20811606 48.71113093 15.3125 48.5625 C14.25675781 48.48128906 13.20101562 48.40007812 12.11328125 48.31640625 C9.34913703 48.03548319 6.71054259 47.59843148 4 47 C3.94392578 45.35064453 3.94392578 45.35064453 3.88671875 43.66796875 C3.55970161 35.84259917 3.05133853 28.61322819 0.62109375 21.1015625 C0 19 0 19 0 16 C-1.32 15.34 -2.64 14.68 -4 14 C-3.71572583 12.41532272 -3.42225182 10.8322943 -3.125 9.25 C-2.96257812 8.36828125 -2.80015625 7.4865625 -2.6328125 6.578125 C-2.03203736 4.13052256 -1.22002883 2.19400143 0 0 Z M-2 13 C-1 15 -1 15 -1 15 Z " fill="#699925" transform="translate(502,352)"/>
<path d="M0 0 C7.09276305 3.66700675 12.36294026 9.31572079 14.82421875 16.96484375 C16.54573873 24.83261687 15.52273701 32.22425725 11.296875 39.125 C6.37273268 44.61872594 1.53439051 48.68960414 -5.97265625 49.4609375 C-13.24221938 49.54108704 -18.66249281 49.33870928 -24.703125 45.125 C-25.59 44.58875 -26.476875 44.0525 -27.390625 43.5 C-32.85736367 37.88551164 -35.03080269 31.92333945 -35.328125 24.125 C-35.01699312 16.59233335 -33.27434126 10.58101574 -27.765625 5.25 C-19.66728753 -1.13050831 -10.04668901 -3.25210742 0 0 Z " fill="#4A4030" transform="translate(521.703125,732.875)"/>
<path d="M0 0 C6.11686401 3.7278742 10.97805958 9.51430279 13.125 16.37109375 C15.02922582 25.6371926 12.78643474 32.43381684 7.8125 40.25 C2.1614548 45.9010452 -3.67594714 48.5945606 -11.625 48.8125 C-19.53652187 48.73856054 -25.61604576 45.80779651 -31.4375 40.5 C-32.015 40.005 -32.5925 39.51 -33.1875 39 C-34.72616281 37.15360463 -34.9060043 35.84977044 -35.4375 33.5 C-35.68628906 32.50484375 -35.93507813 31.5096875 -36.19140625 30.484375 C-36.94010417 27.48958333 -37.68880208 24.49479167 -38.4375 21.5 C-37.7775 21.5 -37.1175 21.5 -36.4375 21.5 C-36.623125 20.324375 -36.623125 20.324375 -36.8125 19.125 C-36.16133749 12.83042908 -32.9656729 7.63690805 -28.140625 3.55859375 C-19.97943386 -1.9755473 -9.41308276 -4.20623974 0 0 Z " fill="#4B4130" transform="translate(398.4375,703.5)"/>
<path d="M0 0 C2.33620948 2.11752321 4.15691407 4.45203482 6 7 C6.5775 7.639375 7.155 8.27875 7.75 8.9375 C11.1695786 14.57980469 11.99233349 21.87131323 10.46484375 28.2265625 C7.70177123 37.25561917 3.30811854 42.50952044 -5 47 C-11.36405302 49.13832181 -19.73468805 48.79537638 -26.15625 46.953125 C-32.26699792 43.79417904 -36.9877692 36.0244616 -40 30 C-40.13415472 27.3276379 -40.04318541 24.67749512 -40 22 C-40.66 22 -41.32 22 -42 22 C-42.33 21.01 -42.66 20.02 -43 19 C-42.34 19 -41.68 19 -41 19 C-41 19.66 -41 20.32 -41 21 C-40.34 21 -39.68 21 -39 21 C-38.9175 19.80375 -38.835 18.6075 -38.75 17.375 C-37.79824429 10.15434667 -33.33636502 6.13985302 -28.09765625 1.515625 C-20.4070173 -4.04111227 -8.53774912 -3.44505666 0 0 Z " fill="#4B4130" transform="translate(651,704)"/>
<path d="M0 0 C11.22869489 -0.49599143 19.97860266 -0.72529112 28.8125 7.125 C33.5584097 12.29031568 36.12108331 18.55865284 36.5 25.5625 C36.07555924 33.58443039 31.88680209 40.69087475 26 46 C19.51213623 51.12359335 11.91495398 50.82799856 4 50 C-1.21590442 49.05873095 -4.63165228 47.58387502 -8.1328125 43.53125 C-11.55382255 38.48976151 -13.86375054 34.13122591 -14 28 C-14.66 28 -15.32 28 -16 28 C-16 26.35 -16 24.7 -16 23 C-15.34 23 -14.68 23 -14 23 C-13.95875 21.845 -13.9175 20.69 -13.875 19.5 C-13.10957054 13.49350493 -9.73248898 9.15866629 -5.046875 5.45703125 C-3.37094165 4.29545956 -1.68620054 3.14661637 0 2 C0 1.34 0 0.68 0 0 Z " fill="#4B4131" transform="translate(376,272)"/>
<path d="M0 0 C1.3437738 0.28837624 2.67583765 0.63191991 4 1 C4.75796875 1.13277344 5.5159375 1.26554688 6.296875 1.40234375 C13.10853879 2.88832773 16.33896121 5.76226411 20.37109375 11.3828125 C24.28505136 17.67142545 26.11784529 23.55588739 25 31 C22.70191867 38.89597174 19.69879214 44.60236873 12.4375 48.75 C5.98922364 52.18618099 0.06092065 53.00116216 -7.15234375 51.57421875 C-14.18701884 49.30362065 -20.0391483 44.48143437 -23.5 37.9375 C-26.1351516 30.98164937 -26.46313522 23.11334242 -23.96484375 16.08984375 C-20.27042012 9.26699454 -14.93917072 4.4946492 -7.45703125 2.23046875 C-5.8968467 1.88569029 -4.32739788 1.57890278 -2.75 1.32421875 C-0.97799076 1.16681174 -0.97799076 1.16681174 0 0 Z " fill="#4B4231" transform="translate(512,240)"/>
<path d="M0 0 C4.62 0 9.24 0 14 0 C14 0.66 14 1.32 14 2 C15.19625 2.515625 16.3925 3.03125 17.625 3.5625 C21.62364768 5.53705346 23.99372512 7.89434414 26.67578125 11.4140625 C28.09863379 13.27026016 28.09863379 13.27026016 31 15 C31.50471692 17.58705202 31.79882175 19.88892059 31.9375 22.5 C31.99768311 23.581604 31.99768311 23.581604 32.05908203 24.68505859 C32.30898132 32.49484835 30.05143795 37.80217025 25.875 44.3125 C20.53522691 49.30402702 14.88581434 52.25911669 7.5 52.5625 C0.27674096 52.1742626 -6.35379649 50.22382208 -11.375 44.8125 C-16.3980319 38.11988079 -19.16650231 31.41339792 -18 23 C-16.64559677 15.92566169 -13.42607803 10.73179639 -8 6 C-5.37496593 4.37082676 -2.86147903 3.20483327 0 2 C0 1.34 0 0.68 0 0 Z " fill="#4B4231" transform="translate(720,360)"/>
<path d="M0 0 C5.78422185 6.11474881 8.5825058 13.2151024 8.4609375 21.5546875 C7.73869387 28.83903036 4.65274753 34.9355199 -0.76171875 39.83984375 C-6.91044134 44.25521216 -13.33172707 46.14369699 -20.8125 45.3125 C-28.4615045 43.61272122 -33.25849455 40.64689601 -38.0625 34.375 C-41.81948398 27.80027804 -42.66432251 21.80230524 -41.8125 14.3125 C-39.24160926 5.71194283 -34.85208476 0.55994655 -27.03125 -3.671875 C-17.41380513 -8.07422652 -8.62839808 -5.17703885 0 0 Z " fill="#4B4131" transform="translate(282.8125,491.6875)"/>
<path d="M0 0 C5.72427197 4.85107794 9.93878797 10.46045872 11 18 C11.21851497 24.94281646 10.18454374 31.3329322 6 37 C0.23011822 43.10786649 -5.14450684 46.27043749 -13.5390625 47.0234375 C-20.58359157 46.95634675 -26.84414188 44.21849198 -32.2421875 39.79296875 C-37.07919879 34.85921724 -39.68040623 29.07322206 -40.0625 22.18359375 C-39.84673481 14.64529749 -36.94550251 8.66693945 -32 3 C-22.20975497 -5.11046296 -11.20884369 -6.70368144 0 0 Z " fill="#4B4130" transform="translate(651,276)"/>
<path d="M0 0 C0.10570312 0.59296875 0.21140625 1.1859375 0.3203125 1.796875 C1.09457637 4.30655789 2.05491041 5.38463455 3.875 7.25 C8.66588466 12.66277834 10.64331498 18.40113801 10.34375 25.640625 C9.30124792 32.79598018 6.35396067 38.6876854 0.9765625 43.52734375 C-4.73707456 47.78434211 -10.36927673 49.70164891 -17.51171875 49.390625 C-23.78219566 48.40624872 -29.45688084 45.40949801 -34 41 C-35.02304948 39.34738161 -36.02616054 37.68208635 -37 36 C-37.99 35.34 -38.98 34.68 -40 34 C-40.34057617 32.02880859 -40.34057617 32.02880859 -40.29296875 29.6484375 C-40.28330078 28.79765625 -40.27363281 27.946875 -40.26367188 27.0703125 C-40.23853516 26.18085938 -40.21339844 25.29140625 -40.1875 24.375 C-40.17396484 23.4778125 -40.16042969 22.580625 -40.14648438 21.65625 C-40.11106925 19.43690211 -40.06168461 17.21874812 -40 15 C-39.34 15 -38.68 15 -38 15 C-37.814375 14.154375 -37.62875 13.30875 -37.4375 12.4375 C-35.07986709 6.79968217 -30.99450287 2.586514 -25.375 0.0625 C-17.36832591 -2.47658147 -8.16657894 -1.28103199 0 0 Z " fill="#4B4131" transform="translate(312,363)"/>
<path d="M0 0 C2.77569296 1.72709784 4.81613254 3.72267044 6.93359375 6.203125 C7.65546875 6.986875 8.37734375 7.770625 9.12109375 8.578125 C12.73668892 13.81450421 13.84593571 19.92936611 12.93359375 26.203125 C10.56572552 34.4586656 6.96902943 40.71387075 -0.62890625 45.078125 C-6.9577096 47.99258139 -13.63310065 48.64509983 -20.32421875 46.46875 C-22.34089587 45.5039084 -24.17415296 44.39119256 -26.06640625 43.203125 C-27.13568359 42.71199219 -27.13568359 42.71199219 -28.2265625 42.2109375 C-31.58292439 40.54189366 -33.57494642 39.21891822 -35.234375 35.7890625 C-37.8681416 27.00984051 -38.53751722 18.6215442 -34.3203125 10.3046875 C-26.76699625 -2.35476465 -13.5352167 -6.85205266 0 0 Z " fill="#4B4231" transform="translate(739.06640625,614.796875)"/>
<path d="M0 0 C5.90719699 4.10394738 9.70091348 9.49074829 11.2265625 16.546875 C12.07414718 23.92792488 11.1240413 30.25333823 6.9375 36.45703125 C2.78889351 41.68161322 -2.12015751 45.2334046 -8.7734375 46.546875 C-17.87560445 47.40903678 -23.32535519 45.51226321 -30.7734375 40.546875 C-30.7734375 39.886875 -30.7734375 39.226875 -30.7734375 38.546875 C-31.4334375 38.546875 -32.0934375 38.546875 -32.7734375 38.546875 C-33.59456927 37.15610199 -34.40496245 35.75898607 -35.2109375 34.359375 C-35.66339844 33.58207031 -36.11585938 32.80476562 -36.58203125 32.00390625 C-39.24314699 26.51590035 -39.8980601 20.03728401 -38.01953125 14.20703125 C-34.67955213 6.3351589 -30.42520027 1.43253578 -22.7734375 -2.453125 C-14.85077055 -4.9870954 -7.16969637 -4.05144747 0 0 Z " fill="#4B4131" transform="translate(310.7734375,615.453125)"/>
<path d="M0 0 C5.7515139 4.49110657 8.75184471 9.83786392 10.23828125 16.8984375 C10.88293747 23.73179338 9.54609987 30.42180119 5.7265625 36.17578125 C1.4713673 41.3107022 -3.87352523 46.06350495 -10.76171875 46.8984375 C-17.5010537 47.47941465 -22.87141171 46.32325772 -28.76171875 42.8984375 C-34.53734888 37.91235981 -38.34451721 32.26340865 -39.07421875 24.62890625 C-39.36280434 16.16072291 -38.77764181 10.28752155 -32.99609375 3.96875 C-23.56163601 -4.9828418 -11.35171127 -7.09796581 0 0 Z " fill="#4B4131" transform="translate(772.76171875,490.1015625)"/>
<path d="M0 0 C4.0555478 -0.34433896 7.95686082 -0.53765149 12 0 C14.56834049 2.68508324 16 4.22212653 16 8 C16.66 8.33 17.32 8.66 18 9 C18.6328125 11.51171875 18.6328125 11.51171875 19.125 14.6875 C19.29257812 15.72261719 19.46015625 16.75773437 19.6328125 17.82421875 C19.99028975 20.91601663 20.06525778 23.89093277 20 27 C20.99 27.33 21.98 27.66 23 28 C23.73046875 29.84765625 23.73046875 29.84765625 24.1875 32.0625 C24.34605469 32.79597656 24.50460937 33.52945313 24.66796875 34.28515625 C24.83232422 35.13400391 24.83232422 35.13400391 25 36 C23.68 36 22.36 36 21 36 C21 36.66 21 37.32 21 38 C22.65 38.33 24.3 38.66 26 39 C25.0409375 39.185625 25.0409375 39.185625 24.0625 39.375 C23.381875 39.58125 22.70125 39.7875 22 40 C20.5216774 42.95664519 20.93967217 45.74229737 21 49 C19.10388566 48.85786703 17.20811606 48.71113093 15.3125 48.5625 C14.25675781 48.48128906 13.20101562 48.40007812 12.11328125 48.31640625 C9.34913703 48.03548319 6.71054259 47.59843148 4 47 C3.94392578 45.35064453 3.94392578 45.35064453 3.88671875 43.66796875 C3.55970161 35.84259917 3.05133853 28.61322819 0.62109375 21.1015625 C0 19 0 19 0 16 C-1.32 15.34 -2.64 14.68 -4 14 C-3.71572583 12.41532272 -3.42225182 10.8322943 -3.125 9.25 C-2.96257812 8.36828125 -2.80015625 7.4865625 -2.6328125 6.578125 C-2.03203736 4.13052256 -1.22002883 2.19400143 0 0 Z M-2 13 C-1 15 -1 15 -1 15 Z " fill="#4A4231" transform="translate(502,352)"/>
<path d="M0 0 C1.65 0 3.3 0 5 0 C5.66 1.32 6.32 2.64 7 4 C8.1859375 4.02578125 9.371875 4.0515625 10.59375 4.078125 C40.57620647 5.01010904 68.56651205 16.33570253 89.48046875 38.30859375 C91.82282426 40.91589435 94.1426058 43.54042734 96.421875 46.203125 C97.88881269 47.87340058 99.40956293 49.44788672 101 51 C100.505 51.99 100.505 51.99 100 53 C99.54753906 52.48953125 99.09507812 51.9790625 98.62890625 51.453125 C86.45831477 38.4772959 70.9295112 29.5905017 55 22 C54.34821777 21.68804687 53.69643555 21.37609375 53.02490234 21.0546875 C38.67712556 14.35427952 22.7553905 11.57501425 7 11 C7 11.66 7 12.32 7 13 C5.35 13 3.7 13 2 13 C2.66 12.34 3.32 11.68 4 11 C2.87302957 6.03088634 2.87302957 6.03088634 0 2 C0 1.34 0 0.68 0 0 Z " fill="#597F29" transform="translate(522,376)"/>
<path d="M0 0 C0 0.66 0 1.32 0 2 C-0.72445312 2.09796875 -1.44890625 2.1959375 -2.1953125 2.296875 C-8.20871185 3.22694743 -12.18404536 4.29541951 -17 8 C-17.66 8 -18.32 8 -19 8 C-19.33 9.32 -19.66 10.64 -20 12 C-20.99 12 -21.98 12 -23 12 C-23 9 -23 9 -21.75 7.5 C-14.87595832 1.60796428 -9.03403077 -0.48396593 0 0 Z " fill="#4F452F" transform="translate(762,486)"/>
<path d="M0 0 C13.365 0.495 13.365 0.495 27 1 C18.27690607 5.36154696 8.44753421 3.97629527 -1 3 C-0.67 2.01 -0.34 1.02 0 0 Z " fill="#FAA10F" transform="translate(441,652)"/>
<path d="M0 0 C2.0013184 0.45931898 4.00187539 0.92754741 5.98046875 1.4765625 C10.83195701 2.7340082 14.37360439 1.72144953 19 0 C19.33 0.99 19.66 1.98 20 3 C11.76611886 6.29355246 5.85748299 5.36749271 -2 2 C-1.34 1.34 -0.68 0.68 0 0 Z " fill="#5E5135" transform="translate(748,532)"/>
<path d="M0 0 C-1.98 0.99 -1.98 0.99 -4 2 C-4 1.34 -4 0.68 -4 0 C-6.64 0 -9.28 0 -12 0 C-12 -0.33 -12 -0.66 -12 -1 C-13.65 -1.33 -15.3 -1.66 -17 -2 C-17 -1.34 -17 -0.68 -17 0 C-20 -1 -20 -1 -22 -3 C-13.87245056 -5.70918315 -7.43015645 -3.41056362 0 0 Z " fill="#564A32" transform="translate(280,490)"/>
<path d="M0 0 C3.47263143 0.56373887 4.91317065 1.60850967 7.125 4.3125 C7.87136719 5.20388672 7.87136719 5.20388672 8.6328125 6.11328125 C11.65320545 10.28142352 12.23783751 13.05947446 12.125 18.25 C12.10695313 19.32765625 12.08890625 20.4053125 12.0703125 21.515625 C12.04710937 22.33546875 12.02390625 23.1553125 12 24 C11.67 24 11.34 24 11 24 C10.91363281 23.31035156 10.82726562 22.62070312 10.73828125 21.91015625 C9.44652983 13.27082792 6.83126596 5.81922656 0 0 Z " fill="#493D2A" transform="translate(399,277)"/>
<path d="M0 0 C3 1 3 1 4 3 C-2.31715405 6.44572039 -7.90370975 6.31461385 -15 6 C-15 5.34 -15 4.68 -15 4 C-13.87851562 3.94392578 -13.87851562 3.94392578 -12.734375 3.88671875 C-11.74953125 3.82097656 -10.7646875 3.75523437 -9.75 3.6875 C-8.77546875 3.62949219 -7.8009375 3.57148437 -6.796875 3.51171875 C-3.71634526 2.94810228 -2.43997696 1.86126448 0 0 Z " fill="#53482F" transform="translate(736,656)"/>
<path d="M0 0 C0.33 0 0.66 0 1 0 C2.26409621 6.52648193 1.90399722 12.82344458 1.5625 19.4375 C1.51029297 20.55060547 1.45808594 21.66371094 1.40429688 22.81054688 C1.27540537 25.54070323 1.14047673 28.27041935 1 31 C0.67 31 0.34 31 0 31 C-0.19956481 27.52141784 -0.38240361 24.0421401 -0.5625 20.5625 C-0.61857422 19.58861328 -0.67464844 18.61472656 -0.73242188 17.61132812 C-1.0343548 11.59279841 -0.83345928 5.97003796 0 0 Z " fill="#FCBE20" transform="translate(402,491)"/>
<path d="M0 0 C2.97 0 5.94 0 9 0 C8 3 8 3 5.125 4.75 C2 6 2 6 -1 5 C-0.938125 6.918125 -0.938125 6.918125 -0.875 8.875 C-0.8046875 11.0546875 -0.8046875 11.0546875 -1 13 C-1.66 13.66 -2.32 14.32 -3 15 C-3 9.31256471 -2.53242537 5.06485075 0 0 Z " fill="#6A5E39" transform="translate(502,352)"/>
<path d="M0 0 C0.99 0.66 1.98 1.32 3 2 C3 2.66 3 3.32 3 4 C2.34 4 1.68 4 1 4 C1 8.62 1 13.24 1 18 C0.34 18 -0.32 18 -1 18 C-1 16.35 -1 14.7 -1 13 C-1.66 13 -2.32 13 -3 13 C-3 11.35 -3 9.7 -3 8 C-2.34 8 -1.68 8 -1 8 C-0.67 5.36 -0.34 2.72 0 0 Z " fill="#564A32" transform="translate(363,287)"/>
<path d="M0 0 C0.66 0.33 1.32 0.66 2 1 C2.18451025 16.74487472 2.18451025 16.74487472 1 24 C0.67 24 0.34 24 0 24 C-0.1958691 20.18788097 -0.38029565 16.37529466 -0.5625 12.5625 C-0.61857422 11.47388672 -0.67464844 10.38527344 -0.73242188 9.26367188 C-0.78076172 8.22919922 -0.82910156 7.19472656 -0.87890625 6.12890625 C-0.9260376 5.17056885 -0.97316895 4.21223145 -1.02172852 3.22485352 C-1 1 -1 1 0 0 Z " fill="#FBBB20" transform="translate(404,521)"/>
<path d="M0 0 C0.66 0 1.32 0 2 0 C3.69057861 5.28305817 3.29188056 10.67099269 2 16 C1.67 14.68 1.34 13.36 1 12 C0.34 12 -0.32 12 -1 12 C-0.67 8.04 -0.34 4.08 0 0 Z " fill="#554B33" transform="translate(780,503)"/>
<path d="M0 0 C7.09434233 -0.09733092 13.98194143 -0.10087193 21 1 C21.33 2.65 21.66 4.3 22 6 C18.44219804 5.39009109 15.3171411 4.4216319 12 3 C12 2.34 12 1.68 12 1 C8.04 1 4.08 1 0 1 C0 0.67 0 0.34 0 0 Z " fill="#635537" transform="translate(291,362)"/>
<path d="M0 0 C0.33 0 0.66 0 1 0 C1.33 2.97 1.66 5.94 2 9 C2.66 9 3.32 9 4 9 C4.33 11.64 4.66 14.28 5 17 C4.34 17.33 3.68 17.66 3 18 C2.01 17.34 1.02 16.68 0 16 C-0.22107787 13.2114711 -0.28107535 10.65346819 -0.1875 7.875 C-0.17396484 7.12089844 -0.16042969 6.36679687 -0.14648438 5.58984375 C-0.11109985 3.72625873 -0.05729167 1.86304022 0 0 Z " fill="#66593D" transform="translate(272,381)"/>
<path d="M0 0 C-1 3 -1 3 -3.328125 4.16796875 C-4.29234375 4.50441406 -5.2565625 4.84085938 -6.25 5.1875 C-7.68085938 5.70376953 -7.68085938 5.70376953 -9.140625 6.23046875 C-11.91094835 6.97603391 -14.14936469 7.15085479 -17 7 C-15.41962618 3.83925236 -12.23621052 3.45701825 -9.0625 2.375 C-8.41603516 2.14554688 -7.76957031 1.91609375 -7.10351562 1.6796875 C-2.28941127 0 -2.28941127 0 0 0 Z " fill="#FBA10F" transform="translate(507,642)"/>
<path d="M0 0 C0.66 0 1.32 0 2 0 C2 0.99 2 1.98 2 3 C3.65 3.33 5.3 3.66 7 4 C6.360625 4.12375 5.72125 4.2475 5.0625 4.375 C4.0415625 4.684375 4.0415625 4.684375 3 5 C1.5216774 7.95664519 1.93967217 10.74229737 2 14 C0.35 14 -1.3 14 -3 14 C-2.01 13.67 -1.02 13.34 0 13 C-0.08378906 12.22914063 -0.16757812 11.45828125 -0.25390625 10.6640625 C-0.35574219 9.66117187 -0.45757813 8.65828125 -0.5625 7.625 C-0.66691406 6.62726563 -0.77132812 5.62953125 -0.87890625 4.6015625 C-1 2 -1 2 0 0 Z " fill="#756936" transform="translate(521,387)"/>
<path d="M0 0 C0.33 0 0.66 0 1 0 C1.19627391 1.58226965 1.38165538 3.16589271 1.5625 4.75 C1.66691406 5.63171875 1.77132812 6.5134375 1.87890625 7.421875 C1.99456676 9.88432451 1.73638695 11.66538064 1 14 C1.99 13.67 2.98 13.34 4 13 C4 13.66 4 14.32 4 15 C3.34 15 2.68 15 2 15 C1.67 15.66 1.34 16.32 1 17 C0.34 16.67 -0.32 16.34 -1 16 C-1 12.7 -1 9.4 -1 6 C-1.66 6 -2.32 6 -3 6 C-3.33 5.01 -3.66 4.02 -4 3 C-3.34 3 -2.68 3 -2 3 C-2 3.66 -2 4.32 -2 5 C-1.34 5 -0.68 5 0 5 C0 3.35 0 1.7 0 0 Z " fill="#6F5F3B" transform="translate(612,720)"/>
<path d="M0 0 C2.375 -0.1875 2.375 -0.1875 5 0 C7 3 7 3 6.75 5.5 C6 8 6 8 4 11 C3.71125 9.88625 3.4225 8.7725 3.125 7.625 C2.30758671 3.99708908 2.30758671 3.99708908 0 2 C0 1.34 0 0.68 0 0 Z " fill="#697533" transform="translate(522,376)"/>
<path d="M0 0 C-1.43714007 3.35829104 -3.20977399 5.39970698 -5.9375 7.8125 C-6.62714844 8.43769531 -7.31679688 9.06289063 -8.02734375 9.70703125 C-9.00380859 10.34705078 -9.00380859 10.34705078 -10 11 C-10.99 10.67 -11.98 10.34 -13 10 C-11.21371169 8.32722165 -9.4214925 6.66175557 -7.625 5 C-6.86316406 4.28457031 -6.86316406 4.28457031 -6.0859375 3.5546875 C-2.2265625 0 -2.2265625 0 0 0 Z " fill="#FAA312" transform="translate(555,609)"/>
<path d="M0 0 C-0.99 0.66 -1.98 1.32 -3 2 C-1.50256881 3.49743119 -0.01175761 3.33202693 2.0625 3.5625 C3.361875 3.706875 4.66125 3.85125 6 4 C6 4.33 6 4.66 6 5 C4.39592672 5.02708567 2.7917215 5.04643483 1.1875 5.0625 C-0.15248047 5.07990234 -0.15248047 5.07990234 -1.51953125 5.09765625 C-4 5 -4 5 -7 4 C-7 3.34 -7 2.68 -7 2 C-7.66 1.67 -8.32 1.34 -9 1 C-5.57367167 -0.61798838 -3.61944899 -1.34053666 0 0 Z " fill="#678D29" transform="translate(536,376)"/>
<path d="M0 0 C0 0.66 0 1.32 0 2 C-5.94 2.495 -5.94 2.495 -12 3 C-12 3.66 -12 4.32 -12 5 C-14 4 -14 4 -15 2 C-9.87080814 -0.10428384 -5.4389165 -0.21755666 0 0 Z " fill="#5B4F35" transform="translate(641,272)"/>
<path d="M0 0 C4.62 0 9.24 0 14 0 C14 0.99 14 1.98 14 3 C8.97703996 4.13016601 5.02125926 3.77916092 0 3 C0 2.01 0 1.02 0 0 Z " fill="#6D5F3D" transform="translate(720,360)"/>
<path d="M0 0 C2.51911331 3.77866996 3.15493426 5.51895439 3.1875 10 C3.20167969 10.886875 3.21585938 11.77375 3.23046875 12.6875 C3 15 3 15 1 17 C0.67 11.39 0.34 5.78 0 0 Z " fill="#FBA60F" transform="translate(603,482)"/>
<path d="M0 0 C0.33 0 0.66 0 1 0 C1.21755666 5.4389165 1.10428384 9.87080814 -1 15 C-1.33 15 -1.66 15 -2 15 C-3.44767442 6.01744186 -3.44767442 6.01744186 -1.625 1.875 C-1.08875 1.25625 -0.5525 0.6375 0 0 Z " fill="#655739" transform="translate(411,293)"/>
<path d="M0 0 C0.66 0 1.32 0 2 0 C3.33257403 10.55808656 3.33257403 10.55808656 2 15 C-0.35119399 11.47320901 -0.21443452 9.97120515 -0.125 5.8125 C-0.10695313 4.72582031 -0.08890625 3.63914062 -0.0703125 2.51953125 C-0.04710937 1.68808594 -0.02390625 0.85664063 0 0 Z " fill="#544930" transform="translate(659,290)"/>
<path d="M0 0 C4.10958767 1.45044271 7.43258745 3.51110752 11 6 C8.39417629 6.93065133 7.35801776 7.14917407 4.75 6.0625 C3.88375 5.5365625 3.88375 5.5365625 3 5 C3 4.34 3 3.68 3 3 C2.01 2.67 1.02 2.34 0 2 C0 1.34 0 0.68 0 0 Z " fill="#FBA00D" transform="translate(401,625)"/>
<path d="M0 0 C0.66 0.33 1.32 0.66 2 1 C2 4 2 4 0.25 5.82421875 C-0.4925 6.43910156 -1.235 7.05398438 -2 7.6875 C-3.11375 8.62142578 -3.11375 8.62142578 -4.25 9.57421875 C-4.8275 10.04472656 -5.405 10.51523437 -6 11 C-6 10.01 -6 9.02 -6 8 C-5 7 -4 6 -3 5 C-3 4.01 -3 3.02 -3 2 C-2.01 1.34 -1.02 0.68 0 0 Z " fill="#524A34" transform="translate(715,364)"/>
<path d="M0 0 C0 0.66 0 1.32 0 2 C-1.95565258 2.38873828 -3.91466504 2.76060833 -5.875 3.125 C-6.96554687 3.33382813 -8.05609375 3.54265625 -9.1796875 3.7578125 C-10.57574219 3.87769531 -10.57574219 3.87769531 -12 4 C-12.66 3.34 -13.32 2.68 -14 2 C-9.07262981 0.02905192 -5.21979128 -0.1799928 0 0 Z " fill="#5E5233" transform="translate(762,486)"/>
<path d="M0 0 C2.43874429 1.08388635 4.25285366 2.21185036 6.3125 3.9375 C9.44437763 6.34103399 12.33619552 7.56321393 16 9 C16 9.33 16 9.66 16 10 C9.42801863 10 6.43243911 7.2156359 1.72265625 2.8125 C0 1 0 1 0 0 Z " fill="#438E24" transform="translate(567,420)"/>
<path d="M0 0 C-0.61488281 0.39832031 -1.22976563 0.79664063 -1.86328125 1.20703125 C-2.67152344 1.73683594 -3.47976563 2.26664063 -4.3125 2.8125 C-5.11300781 3.33457031 -5.91351563 3.85664063 -6.73828125 4.39453125 C-8.7237402 5.80389849 -10.3491852 7.22096657 -12 9 C-11.92014753 6.20516353 -11.51996787 4.51859953 -9.515625 2.51953125 C-4.22976499 -1.51263119 -4.22976499 -1.51263119 0 0 Z " fill="#483D28" transform="translate(504,245)"/>
<path d="M0 0 C3.30255551 0.24463374 4.25918425 1.25315671 6.6875 3.625 C9.26310299 6.88005654 9.75138944 9.85649068 10 14 C8.84875237 12.27312855 7.70086631 10.5439837 6.5625 8.80859375 C6.046875 8.02613281 5.53125 7.24367187 5 6.4375 C4.484375 5.65246094 3.96875 4.86742187 3.4375 4.05859375 C2.02601334 1.90940344 2.02601334 1.90940344 0 0 Z " fill="#413623" transform="translate(525,247)"/>
<path d="M0 0 C0.33 0 0.66 0 1 0 C1.33 1.65 1.66 3.3 2 5 C2.33 5 2.66 5 3 5 C3 7.64 3 10.28 3 13 C1.29115995 11.37660195 -0.37446717 9.70680947 -2 8 C-2 7.34 -2 6.68 -2 6 C-1.34 6 -0.68 6 0 6 C0 4.02 0 2.04 0 0 Z " fill="#605339" transform="translate(362,719)"/>
<path d="M0 0 C3.375 0.25 3.375 0.25 7 1 C8.25 3 8.25 3 9 5 C9.99 5.33 10.98 5.66 12 6 C7.01208429 5.52496041 3.9767259 4.0298864 0 1 C0 0.67 0 0.34 0 0 Z " fill="#564930" transform="translate(495,285)"/>
<path d="M0 0 C0.33 0 0.66 0 1 0 C1.20413361 5.73842251 1.27141454 10.60539047 -1 16 C-1.66 16 -2.32 16 -3 16 C-2.152874 10.63486869 -1.08318169 5.3212615 0 0 Z " fill="#6A5A38" transform="translate(321,632)"/>
<path d="M0 0 C5.4611399 0.35233161 5.4611399 0.35233161 8 1 C9.5 3.0625 9.5 3.0625 10 5 C5 4 5 4 0 3 C0 2.01 0 1.02 0 0 Z " fill="#5C4E33" transform="translate(643,703)"/>
<path d="M0 0 C0.99 0.33 1.98 0.66 3 1 C2.04270084 2.12588014 1.08412105 3.2506715 0.125 4.375 C-0.40867187 5.00148438 -0.94234375 5.62796875 -1.4921875 6.2734375 C-2.61432007 7.55836651 -3.79371975 8.79371975 -5 10 C-4.49701212 5.59885603 -2.91227269 3.28804981 0 0 Z " fill="#423926" transform="translate(710,368)"/>
<path d="M0 0 C0.99 0.33 1.98 0.66 3 1 C3.99 1 4.98 1 6 1 C3.03 3.475 3.03 3.475 0 6 C-0.66 5.67 -1.32 5.34 -2 5 C-2 2 -2 2 0 0 Z " fill="#534833" transform="translate(371,277)"/>
<path d="M0 0 C2.125 0.9375 2.125 0.9375 4 2 C2.02 3.32 0.04 4.64 -2 6 C-2.66 5.67 -3.32 5.34 -4 5 C-2.25 1.125 -2.25 1.125 0 0 Z " fill="#574A31" transform="translate(650,744)"/>
<path d="M0 0 C0.99 0.33 1.98 0.66 3 1 C2.39816251 3.02045442 1.72693904 5.02111039 1 7 C0.01 7.495 0.01 7.495 -1 8 C-1.66 6.68 -2.32 5.36 -3 4 C-2.01 2.68 -1.02 1.36 0 0 Z " fill="#574B33" transform="translate(493,739)"/>
<path d="M0 0 C0.33 0.66 0.66 1.32 1 2 C2.65 2 4.3 2 6 2 C6 2.33 6 2.66 6 3 C-0.435 3.495 -0.435 3.495 -7 4 C-4.1709277 1.1709277 -3.61855575 0.62388892 0 0 Z " fill="#F8AC21" transform="translate(471,651)"/>
<path d="M0 0 C0.66 0.99 1.32 1.98 2 3 C1.67 3.99 1.34 4.98 1 6 C0.34 6 -0.32 6 -1 6 C-0.67 6.99 -0.34 7.98 0 9 C-0.99 9.495 -0.99 9.495 -2 10 C-2.6875 8.375 -2.6875 8.375 -3 6 C-1.5625 2.75 -1.5625 2.75 0 0 Z " fill="#FCBB1D" transform="translate(414,452)"/>
<path d="M0 0 C0.66 0 1.32 0 2 0 C3.38226016 2.76452033 3.09525387 5.0461363 3.0625 8.125 C3.05347656 9.22070312 3.04445313 10.31640625 3.03515625 11.4453125 C3.02355469 12.28835938 3.01195312 13.13140625 3 14 C2.67 14 2.34 14 2 14 C1.34 9.38 0.68 4.76 0 0 Z " fill="#3E331F" transform="translate(408,287)"/>
<path d="M0 0 C0.33 0 0.66 0 1 0 C2.51708428 10.55808656 2.51708428 10.55808656 0 15 C-0.33 15 -0.66 15 -1 15 C-0.67 10.05 -0.34 5.1 0 0 Z " fill="#FBC130" transform="translate(402,491)"/>
<path d="M0 0 C2.98704569 0.49784095 4.39324263 1.26216175 7 3 C6.67 3.66 6.34 4.32 6 5 C2.73045798 4.43628586 1.17424117 3.50037734 -1 1 C-0.67 0.67 -0.34 0.34 0 0 Z " fill="#65573A" transform="translate(512,240)"/>
<path d="M0 0 C1.65 0 3.3 0 5 0 C5 0.66 5 1.32 5 2 C2.625 3.6875 2.625 3.6875 0 5 C-0.66 4.67 -1.32 4.34 -2 4 C-1.34 2.68 -0.68 1.36 0 0 Z " fill="#574B2F" transform="translate(522,776)"/>
<path d="M0 0 C4.875 1.75 4.875 1.75 6 4 C4.1875 4.6875 4.1875 4.6875 2 5 C0.25 3.5625 0.25 3.5625 -1 2 C-0.67 1.34 -0.34 0.68 0 0 Z " fill="#534832" transform="translate(523,735)"/>
<path d="M0 0 C0.66 1.32 1.32 2.64 2 4 C1.34 4 0.68 4 0 4 C-0.33 4.99 -0.66 5.98 -1 7 C-1.66 6.01 -2.32 5.02 -3 4 C-2.01 2.68 -1.02 1.36 0 0 Z M3 0 C3 3 3 3 3 3 Z " fill="#FCBF1D" transform="translate(430,430)"/>
<path d="M0 0 C0.99 0.66 1.98 1.32 3 2 C1.7191375 5.64553172 0.83328987 7.16671013 -2 10 C-1.34 6.7 -0.68 3.4 0 0 Z " fill="#594D32" transform="translate(657,304)"/>
<path d="M0 0 C3 1 3 1 4 3 C2.02 3.66 0.04 4.32 -2 5 C-2.33 4.01 -2.66 3.02 -3 2 C-2.01 1.34 -1.02 0.68 0 0 Z " fill="#5A4E35" transform="translate(736,656)"/>
<path d="M0 0 C-7.42857143 2.42857143 -7.42857143 2.42857143 -11 1 C-10.01 1 -9.02 1 -8 1 C-8 0.34 -8 -0.32 -8 -1 C-4.59745511 -2.2151946 -3.06748874 -1.86240388 0 0 Z " fill="#F9AB20" transform="translate(489,651)"/>
<path d="M0 0 C2 1 2 1 3 3 C1.02 3.66 -0.96 4.32 -3 5 C-3.33 4.01 -3.66 3.02 -4 2 C-2.125 0.9375 -2.125 0.9375 0 0 Z " fill="#584C35" transform="translate(277,530)"/>
<path d="M0 0 C3 1 3 1 4.75 3.375 C6 6 6 6 5 9 C4.16094435 7.87926138 3.32892169 6.75325453 2.5 5.625 C2.0359375 4.99851562 1.571875 4.37203125 1.09375 3.7265625 C0 2 0 2 0 0 Z " fill="#594A30" transform="translate(243,521)"/>
<path d="M0 0 C0.33 0 0.66 0 1 0 C1 1.65 1 3.3 1 5 C-0.98 5.99 -0.98 5.99 -3 7 C-3 3.4833494 -2.23600438 2.59376508 0 0 Z " fill="#FCBE21" transform="translate(424,437)"/>
<path d="M0 0 C0.33 0.66 0.66 1.32 1 2 C1.66 2 2.32 2 3 2 C3.625 4.3125 3.625 4.3125 4 7 C3.01 8.485 3.01 8.485 2 10 C1.87625 8.865625 1.7525 7.73125 1.625 6.5625 C1.41875 5.386875 1.2125 4.21125 1 3 C0.34 2.67 -0.32 2.34 -1 2 C-0.67 1.34 -0.34 0.68 0 0 Z " fill="#675B34" transform="translate(501,365)"/>
<path d="M0 0 C0.99 0 1.98 0 3 0 C3.125 3.375 3.125 3.375 3 7 C2.34 7.66 1.68 8.32 1 9 C0.67 6.03 0.34 3.06 0 0 Z " fill="#615536" transform="translate(611,296)"/>
<path d="M0 0 C1.32 0.66 2.64 1.32 4 2 C2.02 3.32 0.04 4.64 -2 6 C-2.66 5.67 -3.32 5.34 -4 5 C-2.68 3.35 -1.36 1.7 0 0 Z " fill="#56492F" transform="translate(400,744)"/>
<path d="M0 0 C1.32 0 2.64 0 4 0 C5.75 2 5.75 2 7 4 C6.01 4.495 6.01 4.495 5 5 C2.375 3.6875 2.375 3.6875 0 2 C0 1.34 0 0.68 0 0 Z " fill="#554930" transform="translate(653,711)"/>
<path d="M0 0 C-2.64 1.65 -5.28 3.3 -8 5 C-8 4.01 -8 3.02 -8 2 C-4.90310319 -1.09689681 -4.48560889 -1.12140222 0 0 Z " fill="#413624" transform="translate(288,616)"/>
<path d="M0 0 C1.0625 1.8125 1.0625 1.8125 2 4 C1.67 4.99 1.34 5.98 1 7 C0.65179959 8.66362417 0.31595508 10.32995171 0 12 C-0.33 12 -0.66 12 -1 12 C-1.14285714 3.42857143 -1.14285714 3.42857143 0 0 Z " fill="#FABD28" transform="translate(399,595)"/>
<path d="M0 0 C2.97 1.65 5.94 3.3 9 5 C9 5.33 9 5.66 9 6 C6.75 6.25 6.75 6.25 4 6 C1.6875 4.125 1.6875 4.125 0 2 C0 1.34 0 0.68 0 0 Z " fill="#463925" transform="translate(249,528)"/>
<path d="M0 0 C2.475 0.99 2.475 0.99 5 2 C4.67 3.32 4.34 4.64 4 6 C2 4.6875 2 4.6875 0 3 C0 2.01 0 1.02 0 0 Z " fill="#539522" transform="translate(539,401)"/>
<path d="M0 0 C1.5 1.375 1.5 1.375 3 3 C3 3.66 3 4.32 3 5 C3.66 5.33 4.32 5.66 5 6 C4.34 6.66 3.68 7.32 3 8 C3 7.34 3 6.68 3 6 C2.34 6 1.68 6 1 6 C1 5.34 1 4.68 1 4 C0.34 4 -0.32 4 -1 4 C-0.67 2.68 -0.34 1.36 0 0 Z " fill="#615736" transform="translate(515,355)"/>
<path d="M0 0 C2.64 0 5.28 0 8 0 C8 0.33 8 0.66 8 1 C5.36 1 2.72 1 0 1 C0 0.67 0 0.34 0 0 Z " fill="#74643F" transform="translate(296,360)"/>
<path d="M0 0 C1.98 0 3.96 0 6 0 C6 0.33 6 0.66 6 1 C4.02 1.33 2.04 1.66 0 2 C0 1.34 0 0.68 0 0 Z " fill="#76653D" transform="translate(502,240)"/>
<path d="M0 0 C0.66 0 1.32 0 2 0 C1.34 1.32 0.68 2.64 0 4 C0 2.68 0 1.36 0 0 Z " fill="#786741" transform="translate(360,305)"/>
<path d="M0 0 C1.485 0.99 1.485 0.99 3 2 C2.01 2.33 1.02 2.66 0 3 C0 2.01 0 1.02 0 0 Z " fill="#78653E" transform="translate(249,532)"/>
<path d="M0 0 C0.66 0.99 1.32 1.98 2 3 C1.01 2.67 0.02 2.34 -1 2 C-0.67 1.34 -0.34 0.68 0 0 Z " fill="#7E713E" transform="translate(613,309)"/>
<path d="M0 0 C0.33 0.99 0.66 1.98 1 3 C0.34 3 -0.32 3 -1 3 C-0.67 2.01 -0.34 1.02 0 0 Z " fill="#7C6D40" transform="translate(610,291)"/>
<path d="M0 0 C4 1 4 1 4 1 Z " fill="#806D40" transform="translate(265,484)"/>
<path d="M0 0 C0.99 0 1.98 0 3 0 C2.67 0.66 2.34 1.32 2 2 C1.34 1.34 0.68 0.68 0 0 Z " fill="#A8A92E" transform="translate(593,437)"/>
<path d="M0 0 C4 1 4 1 4 1 Z " fill="#79693E" transform="translate(727,413)"/>
<path d="M0 0 C4 1 4 1 4 1 Z " fill="#76633F" transform="translate(291,360)"/>
<path d="M0 0 C1 4 1 4 1 4 Z " fill="#7E6E40" transform="translate(610,300)"/>
<path d="M0 0 C3 1 3 1 3 1 Z " fill="#70603B" transform="translate(505,783)"/>
<path d="M0 0 C0.66 0 1.32 0 2 0 C1.67 0.66 1.34 1.32 1 2 C0.67 1.34 0.34 0.68 0 0 Z " fill="#726139" transform="translate(498,780)"/>
<path d="M0 0 C0.66 0.66 1.32 1.32 2 2 C1.34 2 0.68 2 0 2 C0 1.34 0 0.68 0 0 Z " fill="#75633C" transform="translate(361,736)"/>
<path d="" fill="#76643F" transform="translate(0,0)"/>
<path d="M0 0 C3 1 3 1 3 1 Z " fill="#816C42" transform="translate(370,704)"/>
<path d="M0 0 C3 1 3 1 3 1 Z " fill="#836F44" transform="translate(288,611)"/>
<path d="M0 0 C0.99 0.495 0.99 0.495 2 1 C1.01 1.495 1.01 1.495 0 2 C0 1.34 0 0.68 0 0 Z " fill="#98AA35" transform="translate(641,461)"/>
<path d="M0 0 C0.66 0 1.32 0 2 0 C1.67 0.66 1.34 1.32 1 2 C0.67 1.34 0.34 0.68 0 0 Z " fill="#F2C03A" transform="translate(432,424)"/>
<path d="M0 0 C3 1 3 1 3 1 Z " fill="#EFC03A" transform="translate(456,408)"/>
<path d="M0 0 C0.66 0 1.32 0 2 0 C1.67 0.66 1.34 1.32 1 2 C0.67 1.34 0.34 0.68 0 0 Z " fill="#7C703F" transform="translate(704,401)"/>
<path d="M0 0 C3 1 3 1 3 1 Z " fill="#83A237" transform="translate(573,368)"/>
<path d="M0 0 C0.66 0 1.32 0 2 0 C1.67 0.66 1.34 1.32 1 2 C0.67 1.34 0.34 0.68 0 0 Z " fill="#8F7D41" transform="translate(497,362)"/>
<path d="" fill="#786840" transform="translate(0,0)"/>
<path d="M0 0 C3 1 3 1 3 1 Z " fill="#70603B" transform="translate(645,272)"/>
<path d="M0 0 C2 1 2 1 2 1 Z " fill="#6F5E39" transform="translate(511,783)"/>
<path d="" fill="#75643C" transform="translate(0,0)"/>
<path d="" fill="#7A683C" transform="translate(0,0)"/>
<path d="M0 0 C2 1 2 1 2 1 Z " fill="#75633B" transform="translate(371,749)"/>
<path d="" fill="#7D6D44" transform="translate(0,0)"/>
<path d="" fill="#74633A" transform="translate(0,0)"/>
<path d="" fill="#826E40" transform="translate(0,0)"/>
<path d="" fill="#806D42" transform="translate(0,0)"/>
<path d="" fill="#7E6A3F" transform="translate(0,0)"/>
<path d="" fill="#796842" transform="translate(0,0)"/>
<path d="M0 0 C2 1 2 1 2 1 Z " fill="#72613C" transform="translate(724,663)"/>
<path d="M0 0 C2 1 2 1 2 1 Z " fill="#73613B" transform="translate(294,663)"/>
<path d="" fill="#EDB131" transform="translate(0,0)"/>
<path d="" fill="#F0B534" transform="translate(0,0)"/>
<path d="" fill="#8E7A47" transform="translate(0,0)"/>
<path d="M0 0 C2 1 2 1 2 1 Z " fill="#7C6940" transform="translate(733,611)"/>
<path d="" fill="#FABC2D" transform="translate(0,0)"/>
<path d="M0 0 C2 1 2 1 2 1 Z " fill="#7B6B44" transform="translate(744,488)"/>
<path d="M0 0 C2 1 2 1 2 1 Z " fill="#7D6A44" transform="translate(278,488)"/>
<path d="" fill="#B4AF2A" transform="translate(0,0)"/>
<path d="M0 0 C2 1 2 1 2 1 Z " fill="#7C6D3F" transform="translate(722,413)"/>
<path d="M0 0 C2 1 2 1 2 1 Z " fill="#7D6A3E" transform="translate(287,411)"/>
<path d="M0 0 C2 1 2 1 2 1 Z " fill="#EEBF38" transform="translate(450,408)"/>
<path d="" fill="#7B6D3F" transform="translate(0,0)"/>
<path d="M0 0 C2 1 2 1 2 1 Z " fill="#E8B934" transform="translate(480,400)"/>
<path d="" fill="#A1A532" transform="translate(0,0)"/>
<path d="M0 0 C2 1 2 1 2 1 Z " fill="#776740" transform="translate(285,362)"/>
<path d="" fill="#7A6641" transform="translate(0,0)"/>
<path d="" fill="#7A6940" transform="translate(0,0)"/>
<path d="M0 0 C2 1 2 1 2 1 Z " fill="#82753E" transform="translate(630,323)"/>
<path d="" fill="#77663F" transform="translate(0,0)"/>
<path d="" fill="#7E703D" transform="translate(0,0)"/>
<path d="M0 0 C2 1 2 1 2 1 Z " fill="#816D3F" transform="translate(513,293)"/>
<path d="M0 0 C2 1 2 1 2 1 Z " fill="#6E5E38" transform="translate(509,240)"/>
<path d="" fill="#57460E" transform="translate(0,0)"/>
<path d="" fill="#5E4C13" transform="translate(0,0)"/>
<path d="" fill="#756026" transform="translate(0,0)"/>
<path d="" fill="#6F5E38" transform="translate(0,0)"/>
<path d="" fill="#74643C" transform="translate(0,0)"/>
<path d="" fill="#73613C" transform="translate(0,0)"/>
<path d="" fill="#77663E" transform="translate(0,0)"/>
<path d="" fill="#736039" transform="translate(0,0)"/>
<path d="" fill="#75633B" transform="translate(0,0)"/>
<path d="" fill="#76653C" transform="translate(0,0)"/>
<path d="" fill="#76633B" transform="translate(0,0)"/>
<path d="" fill="#7A673D" transform="translate(0,0)"/>
<path d="" fill="#76623E" transform="translate(0,0)"/>
<path d="" fill="#77633E" transform="translate(0,0)"/>
<path d="" fill="#877244" transform="translate(0,0)"/>
<path d="" fill="#816E3F" transform="translate(0,0)"/>
<path d="" fill="#867044" transform="translate(0,0)"/>
<path d="" fill="#867142" transform="translate(0,0)"/>
<path d="" fill="#887342" transform="translate(0,0)"/>
<path d="" fill="#86713F" transform="translate(0,0)"/>
<path d="" fill="#7D6A3F" transform="translate(0,0)"/>
<path d="" fill="#887342" transform="translate(0,0)"/>
<path d="" fill="#7E6B40" transform="translate(0,0)"/>
<path d="" fill="#927943" transform="translate(0,0)"/>
<path d="" fill="#72623D" transform="translate(0,0)"/>
<path d="" fill="#76663E" transform="translate(0,0)"/>
<path d="" fill="#72633D" transform="translate(0,0)"/>
<path d="" fill="#867242" transform="translate(0,0)"/>
<path d="" fill="#867141" transform="translate(0,0)"/>
<path d="" fill="#75643E" transform="translate(0,0)"/>
<path d="" fill="#7B6940" transform="translate(0,0)"/>
<path d="" fill="#786740" transform="translate(0,0)"/>
<path d="" fill="#78673F" transform="translate(0,0)"/>
<path d="" fill="#877140" transform="translate(0,0)"/>
<path d="" fill="#7A673E" transform="translate(0,0)"/>
<path d="" fill="#897441" transform="translate(0,0)"/>
<path d="" fill="#887344" transform="translate(0,0)"/>
<path d="" fill="#837045" transform="translate(0,0)"/>
<path d="" fill="#877141" transform="translate(0,0)"/>
<path d="" fill="#7F6B43" transform="translate(0,0)"/>
<path d="" fill="#8B7643" transform="translate(0,0)"/>
<path d="" fill="#897141" transform="translate(0,0)"/>
<path d="" fill="#877141" transform="translate(0,0)"/>
<path d="" fill="#87733F" transform="translate(0,0)"/>
<path d="" fill="#8D7742" transform="translate(0,0)"/>
<path d="" fill="#72613D" transform="translate(0,0)"/>
<path d="" fill="#79673F" transform="translate(0,0)"/>
<path d="" fill="#7E6B42" transform="translate(0,0)"/>
<path d="" fill="#78653D" transform="translate(0,0)"/>
<path d="" fill="#7B653D" transform="translate(0,0)"/>
<path d="" fill="#76653E" transform="translate(0,0)"/>
<path d="" fill="#79653E" transform="translate(0,0)"/>
<path d="" fill="#7D6A41" transform="translate(0,0)"/>
<path d="" fill="#77653D" transform="translate(0,0)"/>
<path d="" fill="#EFAF2E" transform="translate(0,0)"/>
<path d="" fill="#75633B" transform="translate(0,0)"/>
<path d="" fill="#73623B" transform="translate(0,0)"/>
<path d="" fill="#F1B02C" transform="translate(0,0)"/>
<path d="" fill="#857143" transform="translate(0,0)"/>
<path d="" fill="#76633C" transform="translate(0,0)"/>
<path d="" fill="#73613B" transform="translate(0,0)"/>
<path d="" fill="#74613C" transform="translate(0,0)"/>
<path d="" fill="#71603C" transform="translate(0,0)"/>
<path d="" fill="#ECB132" transform="translate(0,0)"/>
<path d="" fill="#EEB231" transform="translate(0,0)"/>
<path d="" fill="#79663E" transform="translate(0,0)"/>
<path d="" fill="#7A6942" transform="translate(0,0)"/>
<path d="" fill="#857045" transform="translate(0,0)"/>
<path d="" fill="#8A7443" transform="translate(0,0)"/>
<path d="" fill="#78663E" transform="translate(0,0)"/>
<path d="" fill="#F3B531" transform="translate(0,0)"/>
<path d="" fill="#907947" transform="translate(0,0)"/>
<path d="" fill="#827041" transform="translate(0,0)"/>
<path d="" fill="#75663E" transform="translate(0,0)"/>
<path d="" fill="#836F42" transform="translate(0,0)"/>
<path d="" fill="#806B3F" transform="translate(0,0)"/>
<path d="" fill="#846F41" transform="translate(0,0)"/>
<path d="" fill="#826E43" transform="translate(0,0)"/>
<path d="" fill="#8E7644" transform="translate(0,0)"/>
<path d="" fill="#7D6940" transform="translate(0,0)"/>
<path d="" fill="#7E6B40" transform="translate(0,0)"/>
<path d="" fill="#846E43" transform="translate(0,0)"/>
<path d="" fill="#867144" transform="translate(0,0)"/>
<path d="" fill="#907A44" transform="translate(0,0)"/>
<path d="" fill="#8E7744" transform="translate(0,0)"/>
<path d="" fill="#877142" transform="translate(0,0)"/>
<path d="" fill="#826B42" transform="translate(0,0)"/>
<path d="" fill="#EFAA2A" transform="translate(0,0)"/>
<path d="" fill="#F7BD37" transform="translate(0,0)"/>
<path d="" fill="#F8BB34" transform="translate(0,0)"/>
<path d="" fill="#F9BE30" transform="translate(0,0)"/>
<path d="" fill="#F8BF2F" transform="translate(0,0)"/>
<path d="" fill="#F9BE2F" transform="translate(0,0)"/>
<path d="" fill="#78673F" transform="translate(0,0)"/>
<path d="" fill="#7A643F" transform="translate(0,0)"/>
<path d="" fill="#7C6741" transform="translate(0,0)"/>
<path d="" fill="#75643C" transform="translate(0,0)"/>
<path d="" fill="#7C6744" transform="translate(0,0)"/>
<path d="" fill="#77643A" transform="translate(0,0)"/>
<path d="" fill="#806E3E" transform="translate(0,0)"/>
<path d="" fill="#806F45" transform="translate(0,0)"/>
<path d="" fill="#75633D" transform="translate(0,0)"/>
<path d="" fill="#73613E" transform="translate(0,0)"/>
<path d="" fill="#816F40" transform="translate(0,0)"/>
<path d="" fill="#776442" transform="translate(0,0)"/>
<path d="" fill="#76693F" transform="translate(0,0)"/>
<path d="" fill="#847147" transform="translate(0,0)"/>
<path d="" fill="#806D45" transform="translate(0,0)"/>
<path d="" fill="#75643B" transform="translate(0,0)"/>
<path d="" fill="#F5C036" transform="translate(0,0)"/>
<path d="" fill="#887345" transform="translate(0,0)"/>
<path d="" fill="#816F3F" transform="translate(0,0)"/>
<path d="" fill="#786A3F" transform="translate(0,0)"/>
<path d="" fill="#78663F" transform="translate(0,0)"/>
<path d="" fill="#796940" transform="translate(0,0)"/>
<path d="" fill="#887241" transform="translate(0,0)"/>
<path d="" fill="#7E6A40" transform="translate(0,0)"/>
<path d="" fill="#7F6B41" transform="translate(0,0)"/>
<path d="" fill="#DFB42B" transform="translate(0,0)"/>
<path d="" fill="#DEB52A" transform="translate(0,0)"/>
<path d="" fill="#96A932" transform="translate(0,0)"/>
<path d="" fill="#F3BF3A" transform="translate(0,0)"/>
<path d="" fill="#97AB36" transform="translate(0,0)"/>
<path d="" fill="#9CAF33" transform="translate(0,0)"/>
<path d="" fill="#9CAF35" transform="translate(0,0)"/>
<path d="" fill="#99AB31" transform="translate(0,0)"/>
<path d="" fill="#9AAE32" transform="translate(0,0)"/>
<path d="" fill="#94A92D" transform="translate(0,0)"/>
<path d="" fill="#F4C037" transform="translate(0,0)"/>
<path d="" fill="#BCB02D" transform="translate(0,0)"/>
<path d="" fill="#C4B02A" transform="translate(0,0)"/>
<path d="" fill="#C3B12C" transform="translate(0,0)"/>
<path d="" fill="#BCB12B" transform="translate(0,0)"/>
<path d="" fill="#F6C339" transform="translate(0,0)"/>
<path d="" fill="#B1AE28" transform="translate(0,0)"/>
<path d="" fill="#C1B428" transform="translate(0,0)"/>
<path d="" fill="#C3B327" transform="translate(0,0)"/>
<path d="" fill="#F4C136" transform="translate(0,0)"/>
<path d="" fill="#F3C137" transform="translate(0,0)"/>
<path d="" fill="#F2C23C" transform="translate(0,0)"/>
<path d="" fill="#816E42" transform="translate(0,0)"/>
<path d="" fill="#806E41" transform="translate(0,0)"/>
<path d="" fill="#806B42" transform="translate(0,0)"/>
<path d="" fill="#7D713E" transform="translate(0,0)"/>
<path d="" fill="#74653C" transform="translate(0,0)"/>
<path d="" fill="#7A6E40" transform="translate(0,0)"/>
<path d="" fill="#806F41" transform="translate(0,0)"/>
<path d="" fill="#7D6E3F" transform="translate(0,0)"/>
<path d="" fill="#7C6D40" transform="translate(0,0)"/>
<path d="" fill="#7B683D" transform="translate(0,0)"/>
<path d="" fill="#EBBC36" transform="translate(0,0)"/>
<path d="" fill="#B0A630" transform="translate(0,0)"/>
<path d="" fill="#EABD38" transform="translate(0,0)"/>
<path d="" fill="#A2A933" transform="translate(0,0)"/>
<path d="" fill="#A5A633" transform="translate(0,0)"/>
<path d="" fill="#A5A335" transform="translate(0,0)"/>
<path d="" fill="#A29533" transform="translate(0,0)"/>
<path d="" fill="#9BA034" transform="translate(0,0)"/>
<path d="" fill="#9A9D33" transform="translate(0,0)"/>
<path d="" fill="#85A438" transform="translate(0,0)"/>
<path d="" fill="#766741" transform="translate(0,0)"/>
<path d="" fill="#786640" transform="translate(0,0)"/>
<path d="" fill="#93803F" transform="translate(0,0)"/>
<path d="" fill="#87A539" transform="translate(0,0)"/>
<path d="" fill="#78673F" transform="translate(0,0)"/>
<path d="" fill="#73663E" transform="translate(0,0)"/>
<path d="" fill="#88A03A" transform="translate(0,0)"/>
<path d="" fill="#78673E" transform="translate(0,0)"/>
<path d="" fill="#76663D" transform="translate(0,0)"/>
<path d="" fill="#7A6741" transform="translate(0,0)"/>
<path d="" fill="#79683E" transform="translate(0,0)"/>
<path d="" fill="#70613E" transform="translate(0,0)"/>
<path d="" fill="#7A6B40" transform="translate(0,0)"/>
<path d="" fill="#786743" transform="translate(0,0)"/>
<path d="" fill="#7A6B40" transform="translate(0,0)"/>
<path d="" fill="#918042" transform="translate(0,0)"/>
<path d="" fill="#7E6A41" transform="translate(0,0)"/>
<path d="" fill="#918243" transform="translate(0,0)"/>
<path d="" fill="#978445" transform="translate(0,0)"/>
<path d="" fill="#8E7D42" transform="translate(0,0)"/>
<path d="" fill="#928145" transform="translate(0,0)"/>
<path d="" fill="#938143" transform="translate(0,0)"/>
<path d="" fill="#8E7F3E" transform="translate(0,0)"/>
<path d="" fill="#7E6833" transform="translate(0,0)"/>
<path d="" fill="#82753E" transform="translate(0,0)"/>
<path d="" fill="#877241" transform="translate(0,0)"/>
<path d="" fill="#826F3F" transform="translate(0,0)"/>
<path d="" fill="#847040" transform="translate(0,0)"/>
<path d="" fill="#857042" transform="translate(0,0)"/>
<path d="" fill="#837041" transform="translate(0,0)"/>
<path d="" fill="#807342" transform="translate(0,0)"/>
<path d="" fill="#82743F" transform="translate(0,0)"/>
<path d="" fill="#807443" transform="translate(0,0)"/>
<path d="" fill="#846F42" transform="translate(0,0)"/>
<path d="" fill="#817542" transform="translate(0,0)"/>
<path d="" fill="#817442" transform="translate(0,0)"/>
<path d="" fill="#756440" transform="translate(0,0)"/>
<path d="" fill="#806E43" transform="translate(0,0)"/>
<path d="" fill="#7A6940" transform="translate(0,0)"/>
<path d="" fill="#7F703F" transform="translate(0,0)"/>
<path d="" fill="#7F7041" transform="translate(0,0)"/>
<path d="" fill="#806C3F" transform="translate(0,0)"/>
<path d="" fill="#806C3F" transform="translate(0,0)"/>
<path d="" fill="#75633E" transform="translate(0,0)"/>
<path d="" fill="#7D6E40" transform="translate(0,0)"/>
<path d="" fill="#806F3E" transform="translate(0,0)"/>
<path d="" fill="#78693B" transform="translate(0,0)"/>
<path d="" fill="#7B6D44" transform="translate(0,0)"/>
<path d="" fill="#7E6D3F" transform="translate(0,0)"/>
<path d="" fill="#74653A" transform="translate(0,0)"/>
<path d="" fill="#7F6C41" transform="translate(0,0)"/>
<path d="" fill="#79663D" transform="translate(0,0)"/>
<path d="" fill="#7D6C41" transform="translate(0,0)"/>
<path d="" fill="#78693E" transform="translate(0,0)"/>
<path d="" fill="#7A6E45" transform="translate(0,0)"/>
<path d="" fill="#76653F" transform="translate(0,0)"/>
<path d="" fill="#77673F" transform="translate(0,0)"/>
<path d="" fill="#7A673E" transform="translate(0,0)"/>
<path d="" fill="#786640" transform="translate(0,0)"/>
<path d="" fill="#796641" transform="translate(0,0)"/>
<path d="" fill="#79663F" transform="translate(0,0)"/>
<path d="" fill="#78663F" transform="translate(0,0)"/>
<path d="" fill="#7B6A3E" transform="translate(0,0)"/>
<path d="" fill="#78683E" transform="translate(0,0)"/>
<path d="" fill="#776440" transform="translate(0,0)"/>
<path d="" fill="#76633B" transform="translate(0,0)"/>
<path d="" fill="#796640" transform="translate(0,0)"/>
<path d="" fill="#76663D" transform="translate(0,0)"/>
<path d="" fill="#77653E" transform="translate(0,0)"/>
<path d="" fill="#76663D" transform="translate(0,0)"/>
<path d="" fill="#78663B" transform="translate(0,0)"/>
<path d="" fill="#675419" transform="translate(0,0)"/>
<path d="" fill="#665216" transform="translate(0,0)"/>
</svg>
