<?xml version="1.0" encoding="UTF-8"?>
<svg version="1.1" xmlns="http://www.w3.org/2000/svg" width="114" height="113">
<path d="M0 0 C37.62 0 75.24 0 114 0 C114 37.29 114 74.58 114 113 C76.38 113 38.76 113 0 113 C0 75.71 0 38.42 0 0 Z " fill="#595856" transform="translate(0,0)"/>
<path d="M0 0 C37.62 0 75.24 0 114 0 C114 37.29 114 74.58 114 113 C76.38 113 38.76 113 0 113 C0 75.71 0 38.42 0 0 Z M52 4 C52 5.32 52 6.64 52 8 C51.505 6.515 51.505 6.515 51 5 C48.93643105 5.2840051 46.8741715 5.57753352 44.8125 5.875 C43.66394531 6.03742187 42.51539063 6.19984375 41.33203125 6.3671875 C35.95148731 7.3890493 31.96630279 9.49678953 27.375 12.4375 C26.43398438 13.03433594 25.49296875 13.63117187 24.5234375 14.24609375 C22.40580623 15.71794583 20.64241992 17.02138003 19 19 C19 19.66 19 20.32 19 21 C18.34 21 17.68 21 17 21 C17 21.66 17 22.32 17 23 C16.38125 23.20625 15.7625 23.4125 15.125 23.625 C12.12977887 25.56308426 11.84488238 27.6204705 11 31 C11 31.66 11 32.32 11 33 C10.01 33.33 9.02 33.66 8 34 C7.26676204 36.01508358 7.26676204 36.01508358 7 38 C7.99 38 8.98 38 10 38 C8.515 38.495 8.515 38.495 7 39 C7 39.99 7 40.98 7 42 C6.01 42.495 6.01 42.495 5 43 C2.81204723 53.79951048 2.26245992 66.90261585 7 77 C7.32484375 77.82371094 7.6496875 78.64742188 7.984375 79.49609375 C9.31736726 82.83558768 9.31736726 82.83558768 11 86 C11.99 86.33 12.98 86.66 14 87 C14 87.99 14 88.98 14 90 C14.66 90 15.32 90 16 90 C16 90.99 16 91.98 16 93 C16.61875 93.0825 17.2375 93.165 17.875 93.25 C20 94 20 94 21.25 96.0625 C21.4975 96.701875 21.745 97.34125 22 98 C22.66 98 23.32 98 24 98 C24 98.66 24 99.32 24 100 C26.49352989 102.13731133 29.07791338 103.5471802 32 105 C32.86818359 105.51240234 32.86818359 105.51240234 33.75390625 106.03515625 C38.62742764 108.80348482 42.84579139 109.53491774 48.4140625 109.84765625 C51 110 51 110 54.4375 110.625 C64.39042714 111.67267654 73.19850907 109.79673784 82 105 C82.33 104.34 82.66 103.68 83 103 C85.30965848 101.94647157 87.6429774 100.94280904 90 100 C90 99.34 90 98.68 90 98 C90.99 97.67 91.98 97.34 93 97 C93 95.35 93 93.7 93 92 C93.33 92.99 93.66 93.98 94 95 C97.93068737 93.68977088 98.93467401 91.35796009 101 88 C101.45117188 87.32839844 101.90234375 86.65679687 102.3671875 85.96484375 C103.05167969 84.93037109 103.05167969 84.93037109 103.75 83.875 C104.17796875 83.23304687 104.6059375 82.59109375 105.046875 81.9296875 C106.29523491 79.76097713 106.29523491 79.76097713 106 76 C106.66 76 107.32 76 108 76 C110.61574693 64.97649509 111.98091936 51.83694714 108 41 C107.34 40.67 106.68 40.34 106 40 C106.33 39.01 106.66 38.02 107 37 C105.83333333 33.83333333 105.83333333 33.83333333 104 31 C102.515 30.505 102.515 30.505 101 30 C100.505 27.03 100.505 27.03 100 24 C98.515 23.505 98.515 23.505 97 23 C96.71125 22.38125 96.4225 21.7625 96.125 21.125 C94.08163174 17.26530439 89.81326099 15.83601455 86 14 C86 13.34 86 12.68 86 12 C83.18490007 9.7226499 83.18490007 9.7226499 80 10 C79.505 9.01 79.505 9.01 79 8 C71.08714415 4.43988659 60.52028591 1.1599047 52 4 Z " fill="#575757" transform="translate(0,0)"/>
<path d="M0 0 C0.495 0.99 0.495 0.99 1 2 C2.94603274 2.59070014 2.94603274 2.59070014 5 3 C5.66 3.33 6.32 3.66 7 4 C7 4.66 7 5.32 7 6 C7.53625 6.2475 8.0725 6.495 8.625 6.75 C16.65957447 10.9787234 16.65957447 10.9787234 18 15 C18.99 15.33 19.98 15.66 21 16 C21.0825 16.94875 21.165 17.8975 21.25 18.875 C21.4975 19.90625 21.745 20.9375 22 22 C22.639375 22.309375 23.27875 22.61875 23.9375 22.9375 C26 24 26 24 27.25 27.625 C27.4975 28.73875 27.745 29.8525 28 31 C27.67 31.33 27.34 31.66 27 32 C27.66 32.33 28.32 32.66 29 33 C29.6328125 35.28515625 29.6328125 35.28515625 30.125 38.0625 C30.29257813 38.98160156 30.46015625 39.90070312 30.6328125 40.84765625 C30.75398438 41.55792969 30.87515625 42.26820312 31 43 C29.02 42.505 29.02 42.505 27 42 C26.67 43.32 26.34 44.64 26 46 C25.34 46 24.68 46 24 46 C23.20046862 42.71303767 22.90341064 41.28976808 24 38 C24.66 38 25.32 38 26 38 C26 37.34 26 36.68 26 36 C24.02 36.495 24.02 36.495 22 37 C22 36.34 22 35.68 22 35 C22.66 35 23.32 35 24 35 C24 34.34 24 33.68 24 33 C22.02 33.495 22.02 33.495 20 34 C20 32 20 32 21 31 C20.34 31 19.68 31 19 31 C18.505 31.99 18.505 31.99 18 33 C17.01 32.67 16.02 32.34 15 32 C15.33 30.35 15.66 28.7 16 27 C16.66 27 17.32 27 18 27 C17.65930765 23.84859577 17.41923159 22.39218439 15.0625 20.1875 C13.1077807 18.83367852 13.1077807 18.83367852 11 19 C11 17.68 11 16.36 11 15 C9.68 14.67 8.36 14.34 7 14 C7 12.68 7 11.36 7 10 C5.35 10.33 3.7 10.66 2 11 C2 10.34 2 9.68 2 9 C-0.475 8.505 -0.475 8.505 -3 8 C-3 7.34 -3 6.68 -3 6 C-3.33 6 -3.66 6 -4 6 C-4 7.32 -4 8.64 -4 10 C-5.32 9.34 -6.64 8.68 -8 8 C-7.67 5.69 -7.34 3.38 -7 1 C-7.33 2.32 -7.66 3.64 -8 5 C-9.65 5 -11.3 5 -13 5 C-12.67 3.35 -12.34 1.7 -12 0 C-12.66 0 -13.32 0 -14 0 C-13.67 2.64 -13.34 5.28 -13 8 C-13.99 8.495 -13.99 8.495 -15 9 C-15.66 7.02 -16.32 5.04 -17 3 C-17.66 3 -18.32 3 -19 3 C-19.66 4.32 -20.32 5.64 -21 7 C-21.66 6.01 -22.32 5.02 -23 4 C-23.33 3.67 -23.66 3.34 -24 3 C-24.99 4.485 -24.99 4.485 -26 6 C-26.33 5.01 -26.66 4.02 -27 3 C-27.66 4.32 -28.32 5.64 -29 7 C-29.33 5.35 -29.66 3.7 -30 2 C-32.97 1.505 -32.97 1.505 -36 1 C-36 0.34 -36 -0.32 -36 -1 C-33.36 -1.66 -30.72 -2.32 -28 -3 C-27.67 -2.01 -27.34 -1.02 -27 0 C-27 -1.32 -27 -2.64 -27 -4 C-18.47971409 -6.8400953 -7.91285585 -3.56011341 0 0 Z " fill="#6B5E4E" transform="translate(79,8)"/>
<path d="M0 0 C0.99 0.33 1.98 0.66 3 1 C3 4.33333333 3 7.66666667 3 11 C2.01 11.495 2.01 11.495 1 12 C0.67 12.66 0.34 13.32 0 14 C0.99 14.66 1.98 15.32 3 16 C1.02 16.99 1.02 16.99 -1 18 C-1 18.66 -1 19.32 -1 20 C0.32 19.67 1.64 19.34 3 19 C3 19.66 3 20.32 3 21 C2.01 21 1.02 21 0 21 C0.33 21.33 0.66 21.66 1 22 C2.125 23.9375 2.125 23.9375 3 26 C2.67 26.66 2.34 27.32 2 28 C2.99 28.33 3.98 28.66 5 29 C2 30 2 30 0 30 C0 30.66 0 31.32 0 32 C0.99 31.67 1.98 31.34 3 31 C3.66666667 32.66666667 4.33333333 34.33333333 5 36 C5.350625 36.86625 5.70125 37.7325 6.0625 38.625 C6.76177347 40.3964928 7.39774008 42.19322023 8 44 C8.639375 44.268125 9.27875 44.53625 9.9375 44.8125 C12 46 12 46 13.25 49.125 C13.4975 50.07375 13.745 51.0225 14 52 C13.34 52 12.68 52 12 52 C12 50.68 12 49.36 12 48 C11.67 49.32 11.34 50.64 11 52 C12.98 52.66 14.96 53.32 17 54 C17 54.99 17 55.98 17 57 C18.485 57.495 18.485 57.495 20 58 C20.33 58.99 20.66 59.98 21 61 C22.485 61.495 22.485 61.495 24 62 C24.33 61.34 24.66 60.68 25 60 C25.33 61.32 25.66 62.64 26 64 C22.93606987 64.25532751 21.36766788 64.21861333 18.6875 62.625 C18.130625 62.08875 17.57375 61.5525 17 61 C17 60.34 17 59.68 17 59 C15.68 58.34 14.36 57.68 13 57 C13 56.34 13 55.68 13 55 C11.68 54.67 10.36 54.34 9 54 C9 53.01 9 52.02 9 51 C8.34 51 7.68 51 7 51 C7 50.01 7 49.02 7 48 C6.01 47.67 5.02 47.34 4 47 C2.9375 45.25 2.9375 45.25 2 43 C1.690625 42.278125 1.38125 41.55625 1.0625 40.8125 C0.711875 39.884375 0.36125 38.95625 0 38 C-0.2587793 37.35973877 -0.51755859 36.71947754 -0.78417969 36.05981445 C-3.05751616 30.00856942 -3.39587791 24.61068661 -3.25 18.1875 C-3.24484375 17.26001953 -3.2396875 16.33253906 -3.234375 15.37695312 C-3.11600793 5.11600793 -3.11600793 5.11600793 0 2 C0 1.34 0 0.68 0 0 Z " fill="#7A5E40" transform="translate(7,39)"/>
<path d="M0 0 C1.98 0.33 3.96 0.66 6 1 C6 1.66 6 2.32 6 3 C4.865625 3.45375 3.73125 3.9075 2.5625 4.375 C-1.04721692 5.57095806 -1.04721692 5.57095806 -2 8 C-11.122776 13.38310863 -20.66119663 14.15750081 -31 14 C-31.99 13.67 -32.98 13.34 -34 13 C-35.6223082 12.82677048 -37.24797441 12.68366148 -38.875 12.5625 C-42.58386188 12.22631661 -45.62849454 11.68575273 -49 10 C-48.67 9.01 -48.34 8.02 -48 7 C-46.35 7 -44.7 7 -43 7 C-43 6.34 -43 5.68 -43 5 C-42.34 5 -41.68 5 -41 5 C-40.67 4.34 -40.34 3.68 -40 3 C-39.34 3 -38.68 3 -38 3 C-38 4.32 -38 5.64 -38 7 C-37.484375 6.835 -36.96875 6.67 -36.4375 6.5 C-33.26636124 5.84951 -30.22781666 5.9379266 -27 6 C-27 5.34 -27 4.68 -27 4 C-26.01 4 -25.02 4 -24 4 C-24.33 5.65 -24.66 7.3 -25 9 C-24.01 9 -23.02 9 -22 9 C-19.8125 10 -19.8125 10 -18 11 C-17.67 10.34 -17.34 9.68 -17 9 C-17 9.66 -17 10.32 -17 11 C-16.34 11 -15.68 11 -15 11 C-15 10.01 -15 9.02 -15 8 C-12.36 8 -9.72 8 -7 8 C-7.495 6.02 -7.495 6.02 -8 4 C-7.01 4.33 -6.02 4.66 -5 5 C-4.34 4.34 -3.68 3.68 -3 3 C-2.34 3 -1.68 3 -1 3 C-0.67 2.01 -0.34 1.02 0 0 Z " fill="#7F6B4E" transform="translate(84,97)"/>
<path d="M0 0 C0 3 0 3 -0.5625 4.9375 C-1.06292559 7.29664922 -0.73011998 8.7285156 0 11 C-1.32 10.34 -2.64 9.68 -4 9 C-3.67 6.69 -3.34 4.38 -3 2 C-3.33 3.32 -3.66 4.64 -4 6 C-5.65 6 -7.3 6 -9 6 C-8.67 4.35 -8.34 2.7 -8 1 C-8.66 1 -9.32 1 -10 1 C-9.67 3.64 -9.34 6.28 -9 9 C-9.99 9.495 -9.99 9.495 -11 10 C-11.66 8.02 -12.32 6.04 -13 4 C-13.66 4 -14.32 4 -15 4 C-15.66 5.32 -16.32 6.64 -17 8 C-17.66 7.01 -18.32 6.02 -19 5 C-19.33 4.67 -19.66 4.34 -20 4 C-20.99 5.485 -20.99 5.485 -22 7 C-22.33 6.01 -22.66 5.02 -23 4 C-23.66 5.32 -24.32 6.64 -25 8 C-25.33 6.35 -25.66 4.7 -26 3 C-28.97 2.505 -28.97 2.505 -32 2 C-32 1.34 -32 0.68 -32 0 C-29.36 -0.66 -26.72 -1.32 -24 -2 C-23.67 -1.01 -23.34 -0.02 -23 1 C-23 -0.32 -23 -1.64 -23 -3 C-15.47910563 -5.50696479 -7.02345779 -3.10652941 0 0 Z " fill="#8D805E" transform="translate(75,7)"/>
<path d="M0 0 C-0.66 1.65 -1.32 3.3 -2 5 C-3.98 4.34 -5.96 3.68 -8 3 C-8 3.66 -8 4.32 -8 5 C-7.34 5.33 -6.68 5.66 -6 6 C-9 7 -9 7 -13 7 C-14.70680947 8.62553283 -16.37660195 10.29115995 -18 12 C-18.66 12 -19.32 12 -20 12 C-19.67 12.66 -19.34 13.32 -19 14 C-18 17 -18 17 -18 21 C-18.66 21 -19.32 21 -20 21 C-20.495 18.525 -20.495 18.525 -21 16 C-21.66 16 -22.32 16 -23 16 C-22.67 17.65 -22.34 19.3 -22 21 C-22.66 21.33 -23.32 21.66 -24 22 C-24.33 21.67 -24.66 21.34 -25 21 C-25.66 21.66 -26.32 22.32 -27 23 C-26.01 24.32 -25.02 25.64 -24 27 C-25.98 26.34 -27.96 25.68 -30 25 C-30.33 27.97 -30.66 30.94 -31 34 C-31.99 33.67 -32.98 33.34 -34 33 C-34 32.34 -34 31.68 -34 31 C-34.99 30.67 -35.98 30.34 -37 30 C-36.505 28.515 -36.505 28.515 -36 27 C-35.01 26.67 -34.02 26.34 -33 26 C-32.7834375 24.8553125 -32.7834375 24.8553125 -32.5625 23.6875 C-32 21 -32 21 -31 18 C-28.9375 16.8125 -28.9375 16.8125 -27 16 C-27 15.34 -27 14.68 -27 14 C-26.34 14 -25.68 14 -25 14 C-24.74863281 13.40316406 -24.49726563 12.80632813 -24.23828125 12.19140625 C-22.10817272 8.42171892 -18.50748786 6.41778289 -15 4 C-13.7625 3.13375 -13.7625 3.13375 -12.5 2.25 C-8.81760909 0.40880454 -3.87169442 -1.93584721 0 0 Z M-24 24 C-23.01 24.495 -23.01 24.495 -22 25 C-22.99 25.495 -22.99 25.495 -24 26 C-24 25.34 -24 24.68 -24 24 Z " fill="#786044" transform="translate(44,7)"/>
<path d="M0 0 C2.61527381 2.36620011 4.26440562 4.942048 6 8 C5.01 8.495 5.01 8.495 4 9 C5.3089572 12.12197478 5.3089572 12.12197478 8 14 C7.625 15.9375 7.625 15.9375 7 18 C4.04335481 19.4783226 1.25770263 19.06032783 -2 19 C-4.21538462 13.70769231 -4.21538462 13.70769231 -3.125 10.125 C-2.75375 9.42375 -2.3825 8.7225 -2 8 C-2.66 7.67 -3.32 7.34 -4 7 C-2.68 4.69 -1.36 2.38 0 0 Z " fill="#D9C982" transform="translate(56,29)"/>
<path d="M0 0 C-0.66 3.63 -1.32 7.26 -2 11 C-2.66 11 -3.32 11 -4 11 C-4.1546875 12.1446875 -4.1546875 12.1446875 -4.3125 13.3125 C-5.04364039 16.17059424 -5.76951913 17.15742885 -8 19 C-9.5625 17.875 -9.5625 17.875 -11 16 C-10.6875 12.8125 -10.6875 12.8125 -10 10 C-10.99 10 -11.98 10 -13 10 C-13 9.34 -13 8.68 -13 8 C-11.35 7.34 -9.7 6.68 -8 6 C-8 4.68 -8 3.36 -8 2 C-8.99 1.67 -9.98 1.34 -11 1 C-10.38125 0.855625 -9.7625 0.71125 -9.125 0.5625 C-3.98734177 -0.79746835 -3.98734177 -0.79746835 0 0 Z " fill="#795F42" transform="translate(110,65)"/>
<path d="M0 0 C2.91517292 1.07401108 4.77810176 1.77810176 7 4 C6.625 6.125 6.625 6.125 6 8 C6.99 8 7.98 8 9 8 C9.66 9.65 10.32 11.3 11 13 C13.97 13 16.94 13 20 13 C20.33 11.68 20.66 10.36 21 9 C20.34 8.67 19.68 8.34 19 8 C19.99 8 20.98 8 22 8 C21.67 6.35 21.34 4.7 21 3 C22.98 2.01 24.96 1.02 27 0 C26.26613174 2.20160479 25.53125087 4.40274276 24.7890625 6.6015625 C24.1469757 8.55325209 23.56444113 10.52445604 23 12.5 C22.67 13.325 22.34 14.15 22 15 C18.93301363 16.02232879 16.71335122 16.1659049 13.5 16.1875 C12.06140625 16.20876953 12.06140625 16.20876953 10.59375 16.23046875 C8 16 8 16 5 14 C4.12109375 12.01171875 4.12109375 12.01171875 3.4375 9.6875 C2.42573725 6.38595839 1.33698997 3.18820685 0 0 Z " fill="#B2A36E" transform="translate(43,34)"/>
<path d="M0 0 C0.99 0 1.98 0 3 0 C3.33 0.66 3.66 1.32 4 2 C5.94603274 2.59070014 5.94603274 2.59070014 8 3 C8.66 3.33 9.32 3.66 10 4 C10 4.66 10 5.32 10 6 C10.5775 6.268125 11.155 6.53625 11.75 6.8125 C14.11319214 8.0597403 16.03985403 9.17503651 18 11 C18.75 13.6875 18.75 13.6875 19 16 C12.25 15.125 12.25 15.125 10 14 C10 12.68 10 11.36 10 10 C8.35 10.33 6.7 10.66 5 11 C5 10.34 5 9.68 5 9 C3.35 8.67 1.7 8.34 0 8 C0 7.34 0 6.68 0 6 C-0.99 5.67 -1.98 5.34 -3 5 C-1.125 1.125 -1.125 1.125 0 0 Z " fill="#7F6849" transform="translate(76,8)"/>
<path d="M0 0 C1.03125 0.350625 2.0625 0.70125 3.125 1.0625 C5.81291118 2.1033402 5.81291118 2.1033402 8 2 C8 3.32 8 4.64 8 6 C9.65 4.68 11.3 3.36 13 2 C12.6186908 7.62431073 12.22315022 10.90482403 8 15 C7.34 15 6.68 15 6 15 C6.50603992 12.83125748 6.99983813 11.00032373 8 9 C6.02 9.66 4.04 10.32 2 11 C2.33 8.36 2.66 5.72 3 3 C2.01 3.33 1.02 3.66 0 4 C0 4.99 0 5.98 0 7 C-1.5 9.1875 -1.5 9.1875 -3 11 C-2.67 9.35 -2.34 7.7 -2 6 C-3.32 6.33 -4.64 6.66 -6 7 C-5.34 6.01 -4.68 5.02 -4 4 C-3.34 4 -2.68 4 -2 4 C-2 3.34 -2 2.68 -2 2 C-5.34373475 2.55728913 -8.03312999 3.35173889 -11 5 C-4.72228321 -1.44291987 -4.72228321 -1.44291987 0 0 Z " fill="#A08C5D" transform="translate(64,57)"/>
<path d="M0 0 C2.97 0.495 2.97 0.495 6 1 C6 1.66 6 2.32 6 3 C4.865625 3.45375 3.73125 3.9075 2.5625 4.375 C-1.04721692 5.57095806 -1.04721692 5.57095806 -2 8 C-10.23507178 12.68547187 -17.66064889 13.67785613 -27 13 C-27 12.34 -27 11.68 -27 11 C-26.34 11 -25.68 11 -25 11 C-24.67 10.01 -24.34 9.02 -24 8 C-21 9.5 -21 9.5 -18 11 C-17.67 10.34 -17.34 9.68 -17 9 C-17 9.66 -17 10.32 -17 11 C-16.34 11 -15.68 11 -15 11 C-15 10.01 -15 9.02 -15 8 C-12.36 8 -9.72 8 -7 8 C-7.33 6.68 -7.66 5.36 -8 4 C-7.01 4.33 -6.02 4.66 -5 5 C-4.34 4.34 -3.68 3.68 -3 3 C-2.34 3 -1.68 3 -1 3 C-0.67 2.01 -0.34 1.02 0 0 Z " fill="#8C724A" transform="translate(84,97)"/>
<path d="M0 0 C-0.99 1.32 -1.98 2.64 -3 4 C-2.34 4 -1.68 4 -1 4 C-1 4.99 -1 5.98 -1 7 C0.4606285 4.35261084 1 3.10551666 1 0 C2.32 0.33 3.64 0.66 5 1 C4.34 4.3 3.68 7.6 3 11 C1.02 11.33 -0.96 11.66 -3 12 C-3.66 10.35 -4.32 8.7 -5 7 C-5.66 7 -6.32 7 -7 7 C-7 7.99 -7 8.98 -7 10 C-7.66 10 -8.32 10 -9 10 C-8.51374465 2.58460599 -8.51374465 2.58460599 -6.1875 -0.0625 C-3.62217225 -1.16192618 -2.55861291 -1.00516936 0 0 Z " fill="#AAA376" transform="translate(63,59)"/>
<path d="M0 0 C1.65 0 3.3 0 5 0 C5 0.66 5 1.32 5 2 C4.01 2 3.02 2 2 2 C2.33 2.66 2.66 3.32 3 4 C4.32 3.67 5.64 3.34 7 3 C7 2.34 7 1.68 7 1 C8.32 1 9.64 1 11 1 C11 2.65 11 4.3 11 6 C9.68 5.34 8.36 4.68 7 4 C7.33 5.32 7.66 6.64 8 8 C2.25 9.125 2.25 9.125 0 8 C0 8.99 0 9.98 0 11 C-2.31 11 -4.62 11 -7 11 C-7.33 10.34 -7.66 9.68 -8 9 C-6.6875 7.5 -6.6875 7.5 -5 6 C-4.01 6 -3.02 6 -2 6 C-2.33 4.68 -2.66 3.36 -3 2 C-2.34 2 -1.68 2 -1 2 C-0.67 1.34 -0.34 0.68 0 0 Z " fill="#696358" transform="translate(69,97)"/>
<path d="M0 0 C1.93855226 0.72996995 3.85261141 1.52429033 5.76171875 2.328125 C5.76171875 5.328125 5.76171875 5.328125 5.19921875 7.265625 C4.69879316 9.62477422 5.03159877 11.0566406 5.76171875 13.328125 C4.44171875 12.668125 3.12171875 12.008125 1.76171875 11.328125 C2.09171875 9.018125 2.42171875 6.708125 2.76171875 4.328125 C2.43171875 5.648125 2.10171875 6.968125 1.76171875 8.328125 C0.11171875 8.328125 -1.53828125 8.328125 -3.23828125 8.328125 C-2.90828125 6.678125 -2.57828125 5.028125 -2.23828125 3.328125 C-2.89828125 3.328125 -3.55828125 3.328125 -4.23828125 3.328125 C-4.56828125 3.988125 -4.89828125 4.648125 -5.23828125 5.328125 C-5.23828125 4.008125 -5.23828125 2.688125 -5.23828125 1.328125 C-7.40494792 2.16145833 -7.40494792 2.16145833 -8.23828125 4.328125 C-9.22828125 4.328125 -10.21828125 4.328125 -11.23828125 4.328125 C-11.23828125 3.008125 -11.23828125 1.688125 -11.23828125 0.328125 C-7.63188546 -1.47507289 -3.81049807 -1.14381443 0 0 Z " fill="#847557" transform="translate(69.23828125,4.671875)"/>
<path d="M0 0 C-2.18181818 9.45454545 -2.18181818 9.45454545 -6 12 C-6.99 12 -7.98 12 -9 12 C-9 9.69 -9 7.38 -9 5 C-7.5459375 4.5359375 -7.5459375 4.5359375 -6.0625 4.0625 C-3.15934208 3.30476658 -3.15934208 3.30476658 -2 2 C-5.43246436 2.31204221 -7.53405058 2.64738963 -10.3125 4.75 C-12.16892978 7.2252397 -12.66142425 8.95281822 -13 12 C-13.33 12 -13.66 12 -14 12 C-15.45155993 5.83087028 -15.45155993 5.83087028 -13.4375 2.125 C-9.22410943 -1.54821229 -5.22506052 -1.38310425 0 0 Z " fill="#968B66" transform="translate(52,58)"/>
<path d="M0 0 C0.99 0.33 1.98 0.66 3 1 C2.625 3.4375 2.625 3.4375 2 6 C1.01 6.495 1.01 6.495 0 7 C0 5.68 0 4.36 0 3 C-1.89865603 5.97180943 -3.35455571 8.51460083 -4 12 C0.72763768 9.26847601 2.92642516 7.06873851 5 2 C6.27351308 4.54702616 5.80191925 5.4282945 5.0625 8.125 C4.86785156 8.84945312 4.67320313 9.57390625 4.47265625 10.3203125 C4.31667969 10.87460938 4.16070312 11.42890625 4 12 C4.66 11.67 5.32 11.34 6 11 C5.938125 10.071875 5.87625 9.14375 5.8125 8.1875 C6 5 6 5 7.5 3.125 C7.995 2.75375 8.49 2.3825 9 2 C8.814375 2.94875 8.62875 3.8975 8.4375 4.875 C7.71313368 7.89868793 7.71313368 7.89868793 9 10 C8.67 10.99 8.34 11.98 8 13 C6.02 13 4.04 13 2 13 C1.67 12.34 1.34 11.68 1 11 C0.34 11.66 -0.32 12.32 -1 13 C-3.625 12.625 -3.625 12.625 -6 12 C-5.43958106 7.23643901 -3.41302403 3.41302403 0 0 Z " fill="#8D7148" transform="translate(28,57)"/>
<path d="M0 0 C-0.66 1.65 -1.32 3.3 -2 5 C-3.98 4.34 -5.96 3.68 -8 3 C-8 3.66 -8 4.32 -8 5 C-7.34 5.33 -6.68 5.66 -6 6 C-9 7 -9 7 -13 7 C-15.75041666 9.41666771 -15.75041666 9.41666771 -18 12 C-18.33 11.01 -18.66 10.02 -19 9 C-15.60281696 3.77356455 -11.71793204 1.36251399 -5.8125 -0.25 C-2 -1 -2 -1 0 0 Z " fill="#846641" transform="translate(44,7)"/>
<path d="M0 0 C2.475 0.99 2.475 0.99 5 2 C5 2.99 5 3.98 5 5 C6.98 5.66 8.96 6.32 11 7 C11 7.99 11 8.98 11 10 C11.99 10.33 12.98 10.66 14 11 C14.33 11.99 14.66 12.98 15 14 C15.99 14.33 16.98 14.66 18 15 C18.33 14.34 18.66 13.68 19 13 C19.33 14.32 19.66 15.64 20 17 C16.93606987 17.25532751 15.36766788 17.21861333 12.6875 15.625 C12.130625 15.08875 11.57375 14.5525 11 14 C11 13.34 11 12.68 11 12 C9.68 11.34 8.36 10.68 7 10 C7 9.34 7 8.68 7 8 C5.68 7.67 4.36 7.34 3 7 C3 6.01 3 5.02 3 4 C2.34 4 1.68 4 1 4 C0.67 2.68 0.34 1.36 0 0 Z " fill="#806442" transform="translate(13,86)"/>
<path d="M0 0 C1.98 0.66 3.96 1.32 6 2 C5.505 2.61875 5.01 3.2375 4.5 3.875 C2.80777227 5.83880904 2.80777227 5.83880904 3 8 C0.03 7.505 0.03 7.505 -3 7 C-3.33 7.66 -3.66 8.32 -4 9 C-3.34 9 -2.68 9 -2 9 C-2 9.66 -2 10.32 -2 11 C-3.875 10.8125 -3.875 10.8125 -6 10 C-7.25 7.4375 -7.25 7.4375 -8 5 C-7.34 5 -6.68 5 -6 5 C-5.67 4.34 -5.34 3.68 -5 3 C-3.3176559 2.47426747 -1.77322566 2 0 2 C0 1.34 0 0.68 0 0 Z " fill="#6F6554" transform="translate(36,10)"/>
<path d="M0 0 C-0.33 1.32 -0.66 2.64 -1 4 C-0.34 3.67 0.32 3.34 1 3 C1.99 2.67 2.98 2.34 4 2 C4.66 5.3 5.32 8.6 6 12 C5.01 12.495 5.01 12.495 4 13 C3.34 11.02 2.68 9.04 2 7 C1.34 7 0.68 7 0 7 C-0.66 8.32 -1.32 9.64 -2 11 C-4 8 -4 8 -3.9375 4.9375 C-3.958125 3.968125 -3.97875 2.99875 -4 2 C-4.99 1.34 -5.98 0.68 -7 0 C-4.3333581 -1.33332095 -2.83319697 -0.67102033 0 0 Z " fill="#77725F" transform="translate(60,4)"/>
<path d="M0 0 C1.10844919 3.32534757 0.84454356 5.62182575 0 9 C-1.6254308 8.85904936 -3.25034051 8.71207913 -4.875 8.5625 C-5.77992187 8.48128906 -6.68484375 8.40007812 -7.6171875 8.31640625 C-10 8 -10 8 -12 7 C-12 6.01 -12 5.02 -12 4 C-8.01803543 2.94595055 -5.01804691 3.15901344 -1 4 C-0.67 2.68 -0.34 1.36 0 0 Z " fill="#796348" transform="translate(83,76)"/>
<path d="M0 0 C2.61527381 2.36620011 4.26440562 4.942048 6 8 C5.01 8.495 5.01 8.495 4 9 C3.34227572 12.02934491 3.34227572 12.02934491 3 15 C2.67 14.01 2.34 13.02 2 12 C1.01 12 0.02 12 -1 12 C-1.02698189 10.37509046 -1.04638757 8.75005367 -1.0625 7.125 C-1.07410156 6.22007813 -1.08570313 5.31515625 -1.09765625 4.3828125 C-1 2 -1 2 0 0 Z " fill="#EADE90" transform="translate(56,29)"/>
<path d="M0 0 C2 1 4 2 6 3 C6.33 2.34 6.66 1.68 7 1 C7 1.66 7 2.32 7 3 C7.66 3 8.32 3 9 3 C9 2.01 9 1.02 9 0 C10.65 0.33 12.3 0.66 14 1 C14 1.66 14 2.32 14 3 C10.40537669 5.25998595 7.43404325 5.20868087 3.25 5.125 C2.07953125 5.10695313 0.9090625 5.08890625 -0.296875 5.0703125 C-1.63492188 5.03550781 -1.63492188 5.03550781 -3 5 C-3 4.34 -3 3.68 -3 3 C-2.34 3 -1.68 3 -1 3 C-0.67 2.01 -0.34 1.02 0 0 Z " fill="#89704A" transform="translate(60,105)"/>
<path d="M0 0 C0.99 0.33 1.98 0.66 3 1 C3.66 4.3 4.32 7.6 5 11 C3.68 10.67 2.36 10.34 1 10 C0.67 11.32 0.34 12.64 0 14 C-0.66 14 -1.32 14 -2 14 C-2.79953138 10.71303767 -3.09658936 9.28976808 -2 6 C-1.34 6 -0.68 6 0 6 C0 4.02 0 2.04 0 0 Z " fill="#785F44" transform="translate(105,40)"/>
<path d="M0 0 C0.99 0.66 1.98 1.32 3 2 C2.39096941 5.09305422 1.40131197 7.19639762 -0.4375 9.75 C-0.86933594 10.36359375 -1.30117187 10.9771875 -1.74609375 11.609375 C-2.36677734 12.29773438 -2.36677734 12.29773438 -3 13 C-3.66 13 -4.32 13 -5 13 C-5.33 11.35 -5.66 9.7 -6 8 C-5.34 7.67 -4.68 7.34 -4 7 C-4 6.01 -4 5.02 -4 4 C-1 5 -1 5 0 6 C0 5.01 0 4.02 0 3 C-0.66 3 -1.32 3 -2 3 C-2 2.34 -2 1.68 -2 1 C-1.34 0.67 -0.68 0.34 0 0 Z " fill="#7D6242" transform="translate(99,82)"/>
<path d="M0 0 C3.63 0 7.26 0 11 0 C11.33 1.32 11.66 2.64 12 4 C11.01 5.485 11.01 5.485 10 7 C9.34 6.67 8.68 6.34 8 6 C8.33 5.34 8.66 4.68 9 4 C7.329375 4.309375 7.329375 4.309375 5.625 4.625 C4.42875 4.74875 3.2325 4.8725 2 5 C1.34 4.34 0.68 3.68 0 3 C-0.99 3.495 -0.99 3.495 -2 4 C-1.34 2.68 -0.68 1.36 0 0 Z " fill="#8B7754" transform="translate(37,79)"/>
<path d="M0 0 C0.33 1.32 0.66 2.64 1 4 C1.66 3.67 2.32 3.34 3 3 C2.67 4.65 2.34 6.3 2 8 C0.0625 8.5625 0.0625 8.5625 -2 9 C-2.33 8.67 -2.66 8.34 -3 8 C-4.66617115 7.95936168 -6.33388095 7.957279 -8 8 C-7.67 6.35 -7.34 4.7 -7 3 C-6.34 3 -5.68 3 -5 3 C-5 3.66 -5 4.32 -5 5 C-3.68 4.67 -2.36 4.34 -1 4 C-0.67 2.68 -0.34 1.36 0 0 Z " fill="#B4AB78" transform="translate(61,76)"/>
<path d="M0 0 C-0.33 3.96 -0.66 7.92 -1 12 C-1.33 12 -1.66 12 -2 12 C-2.33 9.69 -2.66 7.38 -3 5 C-4.65 7.64 -6.3 10.28 -8 13 C-9 11 -9 11 -8.5 9.25 C-7.84438587 6.2997364 -8.39993711 3.93364077 -9 1 C-8.34 1 -7.68 1 -7 1 C-6.34 1.99 -5.68 2.98 -5 4 C-4.360625 3.34 -3.72125 2.68 -3.0625 2 C-1 0 -1 0 0 0 Z " fill="#947547" transform="translate(85,57)"/>
<path d="M0 0 C2 1.6875 2 1.6875 3 4 C2.6875 6.75 2.6875 6.75 2 9 C1.01 8.67 0.02 8.34 -1 8 C-0.67 6.68 -0.34 5.36 0 4 C-0.66 4 -1.32 4 -2 4 C-2.33 4.66 -2.66 5.32 -3 6 C-3 4.68 -3 3.36 -3 2 C-5.16666667 2.83333333 -5.16666667 2.83333333 -6 5 C-6.99 5 -7.98 5 -9 5 C-9 3.68 -9 2.36 -9 1 C-5.9167365 -0.54163175 -3.39121901 -0.29747535 0 0 Z " fill="#A19469" transform="translate(67,4)"/>
<path d="M0 0 C0 7.5 0 7.5 -3 11 C-2.67 9.35 -2.34 7.7 -2 6 C-3.32 6.33 -4.64 6.66 -6 7 C-5.34 6.01 -4.68 5.02 -4 4 C-3.34 4 -2.68 4 -2 4 C-2 3.34 -2 2.68 -2 2 C-5.34373475 2.55728913 -8.03312999 3.35173889 -11 5 C-4.74206349 -1.42261905 -4.74206349 -1.42261905 0 0 Z " fill="#C2B87D" transform="translate(64,57)"/>
<path d="M0 0 C0.66 0.33 1.32 0.66 2 1 C2 4.63 2 8.26 2 12 C1.34 12 0.68 12 0 12 C0 11.34 0 10.68 0 10 C-0.99 10.33 -1.98 10.66 -3 11 C-3 10.34 -3 9.68 -3 9 C-2.01 9 -1.02 9 0 9 C-0.99 8.34 -1.98 7.68 -3 7 C-2.25 2.25 -2.25 2.25 0 0 Z " fill="#7E5E3C" transform="translate(108,52)"/>
<path d="M0 0 C0.33 0.66 0.66 1.32 1 2 C0.26821134 4.07196631 -0.55899003 6.1108552 -1.4375 8.125 C-1.91058594 9.22070312 -2.38367188 10.31640625 -2.87109375 11.4453125 C-3.24363281 12.28835937 -3.61617188 13.13140625 -4 14 C-4.66 13.67 -5.32 13.34 -6 13 C-5.67 11.68 -5.34 10.36 -5 9 C-5.66 8.67 -6.32 8.34 -7 8 C-6.01 8 -5.02 8 -4 8 C-4.33 6.35 -4.66 4.7 -5 3 C-3.35 2.01 -1.7 1.02 0 0 Z " fill="#AA894F" transform="translate(69,34)"/>
<path d="M0 0 C1.65 0 3.3 0 5 0 C5 1.65 5 3.3 5 5 C5.66 5 6.32 5 7 5 C7.33 5.99 7.66 6.98 8 8 C7.34 8 6.68 8 6 8 C5.67 8.66 5.34 9.32 5 10 C2.69 10 0.38 10 -2 10 C-2 9.34 -2 8.68 -2 8 C-0.35 7.34 1.3 6.68 3 6 C3 4.68 3 3.36 3 2 C2.01 1.67 1.02 1.34 0 1 C0 0.67 0 0.34 0 0 Z " fill="#6B5E4E" transform="translate(99,65)"/>
<path d="M0 0 C0.66 0 1.32 0 2 0 C2 0.99 2 1.98 2 3 C2.928125 3.2784375 2.928125 3.2784375 3.875 3.5625 C7.05602866 5.71437233 7.19451947 8.37533763 8 12 C7.01 12.33 6.02 12.66 5 13 C4.67 12.34 4.34 11.68 4 11 C3.484375 10.360625 2.96875 9.72125 2.4375 9.0625 C1 7 1 7 1 4 C0.6937566 2.66018514 0.36548445 1.32488113 0 0 Z " fill="#7E603F" transform="translate(99,27)"/>
<path d="M0 0 C1.32 0.33 2.64 0.66 4 1 C3.5020163 4.73487777 3.12508244 6.81237635 1 10 C0.01 10 -0.98 10 -2 10 C-1.7525 8.824375 -1.7525 8.824375 -1.5 7.625 C-0.9376293 5.11791961 -0.9376293 5.11791961 -1 3 C-0.67 2.01 -0.34 1.02 0 0 Z " fill="#65635B" transform="translate(64,59)"/>
<path d="M0 0 C0.33 1.32 0.66 2.64 1 4 C2.32 3.67 3.64 3.34 5 3 C5 4.65 5 6.3 5 8 C4.01 8.33 3.02 8.66 2 9 C2 8.34 2 7.68 2 7 C1.34 7 0.68 7 0 7 C-0.33 7.66 -0.66 8.32 -1 9 C-1.80967438 6.08517222 -2.21845993 4.53886783 -1.0625 1.6875 C-0.711875 1.130625 -0.36125 0.57375 0 0 Z " fill="#766046" transform="translate(31,76)"/>
<path d="M0 0 C0 1.65 0 3.3 0 5 C-3.3 4.67 -6.6 4.34 -10 4 C-10 3.34 -10 2.68 -10 2 C-6.3558226 -0.4294516 -4.28758728 -0.16179575 0 0 Z " fill="#A79D71" transform="translate(58,106)"/>
<path d="M0 0 C2.31 0.33 4.62 0.66 7 1 C6.67 2.65 6.34 4.3 6 6 C6.66 6.33 7.32 6.66 8 7 C4.535 8.485 4.535 8.485 1 10 C1.32552083 7.98177083 1.65104167 5.96354167 1.9765625 3.9453125 C1.98429687 3.30335937 1.99203125 2.66140625 2 2 C1.34 1.34 0.68 0.68 0 0 Z " fill="#A49567" transform="translate(65,58)"/>
<path d="M0 0 C2.6875 1.4375 2.6875 1.4375 5 3 C4.67 4.32 4.34 5.64 4 7 C1.69 6.67 -0.62 6.34 -3 6 C-3 4.35 -3 2.7 -3 1 C-2.01 0.67 -1.02 0.34 0 0 Z " fill="#BEAF75" transform="translate(59,40)"/>
<path d="M0 0 C0.33 0.66 0.66 1.32 1 2 C1.99 2.33 2.98 2.66 4 3 C3.67 3.66 3.34 4.32 3 5 C1.68 4.67 0.36 4.34 -1 4 C-1 4.66 -1 5.32 -1 6 C-0.34 6 0.32 6 1 6 C1 6.99 1 7.98 1 9 C-1.31 8.34 -3.62 7.68 -6 7 C-6 6.34 -6 5.68 -6 5 C-4.69855198 3.95884159 -3.36161311 2.96113866 -2 2 C-1.34 1.34 -0.68 0.68 0 0 Z " fill="#685D50" transform="translate(98,79)"/>
<path d="M0 0 C1.32 0 2.64 0 4 0 C4 1.65 4 3.3 4 5 C2.68 4.34 1.36 3.68 0 3 C0 3.99 0 4.98 0 6 C-1.98 6 -3.96 6 -6 6 C-6 5.34 -6 4.68 -6 4 C-4.02 3.34 -2.04 2.68 0 2 C0 1.34 0 0.68 0 0 Z " fill="#746B58" transform="translate(76,98)"/>
<path d="M0 0 C1.32 0 2.64 0 4 0 C3.938125 0.7425 3.87625 1.485 3.8125 2.25 C4.03094296 5.45383006 4.90250005 6.64031256 7 9 C4.33333333 7.66666667 1.66666667 6.33333333 -1 5 C-0.67 3.35 -0.34 1.7 0 0 Z M7 6 C7.99 6.495 7.99 6.495 9 7 C8.01 7.495 8.01 7.495 7 8 C7 7.34 7 6.68 7 6 Z " fill="#6D5E4C" transform="translate(13,25)"/>
<path d="M0 0 C0.99 0 1.98 0 3 0 C2.42655063 2.86724686 2.1385485 3.8614515 0 6 C-3.625 5.625 -3.625 5.625 -7 5 C-4.64046906 2.64046906 -3.22104383 2.50858587 0 2 C0 1.34 0 0.68 0 0 Z " fill="#6E6B5F" transform="translate(57,101)"/>
<path d="M0 0 C2.475 0.99 2.475 0.99 5 2 C3.25 7.75 3.25 7.75 1 10 C-0.1577506 6.52674819 -0.06866652 3.63932552 0 0 Z " fill="#918866" transform="translate(52,4)"/>
<path d="M0 0 C0.66 0.33 1.32 0.66 2 1 C1.34 2.65 0.68 4.3 0 6 C-2.31 5.67 -4.62 5.34 -7 5 C-7 4.34 -7 3.68 -7 3 C-4.69631264 1.93347808 -2.35981813 0.93578995 0 0 Z " fill="#887351" transform="translate(42,6)"/>
<path d="M0 0 C2.91517292 1.07401108 4.77810176 1.77810176 7 4 C6.34 5.65 5.68 7.3 5 9 C2.67527795 6.14693203 1.2491742 3.45925163 0 0 Z " fill="#9F7C45" transform="translate(43,34)"/>
<path d="M0 0 C2.97 0.495 2.97 0.495 6 1 C6.33 1.99 6.66 2.98 7 4 C6.67 4.66 6.34 5.32 6 6 C4.125 5.8125 4.125 5.8125 2 5 C0.75 2.4375 0.75 2.4375 0 0 Z " fill="#655D53" transform="translate(25,95)"/>
<path d="M0 0 C2 0 4 0 6 0 C6 1.65 6 3.3 6 5 C5.01 5.33 4.02 5.66 3 6 C2.34 5.67 1.68 5.34 1 5 C0.375 2.4375 0.375 2.4375 0 0 Z " fill="#786349" transform="translate(87,92)"/>
<path d="M0 0 C0.99 0.33 1.98 0.66 3 1 C4.1875 4.5625 4.1875 4.5625 5 8 C2.525 7.01 2.525 7.01 0 6 C0 4.02 0 2.04 0 0 Z " fill="#A9905B" transform="translate(48,42)"/>
<path d="M0 0 C0.99 0 1.98 0 3 0 C4.62995214 3.25990429 5 5.29032842 5 9 C4.34 9 3.68 9 3 9 C2.67 7.35 2.34 5.7 2 4 C1.01 3.67 0.02 3.34 -1 3 C-0.67 2.01 -0.34 1.02 0 0 Z " fill="#71634F" transform="translate(21,19)"/>
<path d="M0 0 C0 1.65 0 3.3 0 5 C-0.66 4.34 -1.32 3.68 -2 3 C-2.99 3.33 -3.98 3.66 -5 4 C-5.66 2.68 -6.32 1.36 -7 0 C-3.86650268 -1.04449911 -3.01031744 -0.93423645 0 0 Z " fill="#6D6050" transform="translate(84,11)"/>
<path d="M0 0 C0.86625 0.3403125 0.86625 0.3403125 1.75 0.6875 C0.1 2.3375 -1.55 3.9875 -3.25 5.6875 C-3.58 5.0275 -3.91 4.3675 -4.25 3.6875 C-4.91 3.3575 -5.57 3.0275 -6.25 2.6875 C-2.80384615 -0.38942308 -2.80384615 -0.38942308 0 0 Z " fill="#585857" transform="translate(61.25,58.3125)"/>
<path d="M0 0 C2.31 0 4.62 0 7 0 C7.33 0.99 7.66 1.98 8 3 C5.03 3 2.06 3 -1 3 C-0.67 2.01 -0.34 1.02 0 0 Z " fill="#A2966B" transform="translate(36,104)"/>
<path d="M0 0 C0.33 1.32 0.66 2.64 1 4 C1.66 3.67 2.32 3.34 3 3 C2.67 4.32 2.34 5.64 2 7 C1.34 6.67 0.68 6.34 0 6 C0 6.99 0 7.98 0 9 C-0.66 9 -1.32 9 -2 9 C-1.125 1.125 -1.125 1.125 0 0 Z " fill="#AF9D69" transform="translate(67,77)"/>
<path d="M0 0 C0.66 0.33 1.32 0.66 2 1 C1.525625 1.886875 1.05125 2.77375 0.5625 3.6875 C-0.79737149 6.57042756 -1.54060386 8.87610623 -2 12 C-2.33 12 -2.66 12 -3 12 C-3.75 8.8125 -3.75 8.8125 -4 5 C-2.0625 2.0625 -2.0625 2.0625 0 0 Z " fill="#A48E5D" transform="translate(41,58)"/>
<path d="M0 0 C0.66 0 1.32 0 2 0 C3.51754003 2.41021064 4.02316906 3.68335622 3.8125 6.5625 C2.95027053 9.14918841 2.07804617 10.28335317 0 12 C0.185625 11.13375 0.37125 10.2675 0.5625 9.375 C1.00667933 5.94847372 0.71954492 3.35787629 0 0 Z " fill="#877655" transform="translate(76,58)"/>
<path d="M0 0 C0.99 0.33 1.98 0.66 3 1 C3.66 4.3 4.32 7.6 5 11 C4.01 10.67 3.02 10.34 2 10 C2.33 8.68 2.66 7.36 3 6 C2.34 6 1.68 6 1 6 C0.67 4.02 0.34 2.04 0 0 Z " fill="#856037" transform="translate(105,40)"/>
<path d="M0 0 C0.99 0.33 1.98 0.66 3 1 C3 1.66 3 2.32 3 3 C3.99 3.33 4.98 3.66 6 4 C5.67 4.66 5.34 5.32 5 6 C3.68 6 2.36 6 1 6 C1 5.34 1 4.68 1 4 C0.34 3.67 -0.32 3.34 -1 3 C-0.67 2.01 -0.34 1.02 0 0 Z " fill="#635E55" transform="translate(27,17)"/>
<path d="M0 0 C1.32 0.66 2.64 1.32 4 2 C3.34 2 2.68 2 2 2 C2.33 4.31 2.66 6.62 3 9 C0.5 7.625 0.5 7.625 -2 6 C-2 5.34 -2 4.68 -2 4 C-1.34 3.67 -0.68 3.34 0 3 C0 2.01 0 1.02 0 0 Z " fill="#7E765E" transform="translate(44,11)"/>
<path d="M0 0 C2.31 0 4.62 0 7 0 C5.68 1.65 4.36 3.3 3 5 C1.68 4.67 0.36 4.34 -1 4 C-0.67 2.68 -0.34 1.36 0 0 Z " fill="#888166" transform="translate(47,103)"/>
<path d="M0 0 C0.66 0 1.32 0 2 0 C2 2.31 2 4.62 2 7 C0.35 6.67 -1.3 6.34 -3 6 C-3 4.68 -3 3.36 -3 2 C-2.34 2 -1.68 2 -1 2 C-0.67 1.34 -0.34 0.68 0 0 Z " fill="#736D5C" transform="translate(44,100)"/>
<path d="M0 0 C-0.99 1.32 -1.98 2.64 -3 4 C-4.32 3.67 -5.64 3.34 -7 3 C-7 2.01 -7 1.02 -7 0 C-4.3333581 -1.33332095 -2.83319697 -0.67102033 0 0 Z " fill="#927C54" transform="translate(78,80)"/>
<path d="M0 0 C0.33 0.99 0.66 1.98 1 3 C0.34 3 -0.32 3 -1 3 C-1 4.32 -1 5.64 -1 7 C-2.32 7 -3.64 7 -5 7 C-5 6.01 -5 5.02 -5 4 C-4.34 4 -3.68 4 -3 4 C-3 3.01 -3 2.02 -3 1 C-2.01 0.67 -1.02 0.34 0 0 Z " fill="#645B50" transform="translate(13,39)"/>
<path d="M0 0 C0.99 0.33 1.98 0.66 3 1 C2.43628586 4.26954202 1.50037734 5.82575883 -1 8 C-1.93065133 5.39417629 -2.14917407 4.35801776 -1.0625 1.75 C-0.711875 1.1725 -0.36125 0.595 0 0 Z " fill="#6C5B49" transform="translate(10,75)"/>
<path d="M0 0 C4.875 1.75 4.875 1.75 6 4 C4.02 4.66 2.04 5.32 0 6 C0 4.02 0 2.04 0 0 Z " fill="#BAB17B" transform="translate(56,33)"/>
<path d="M0 0 C0.99 0.33 1.98 0.66 3 1 C2.625 3.4375 2.625 3.4375 2 6 C1.01 6.495 1.01 6.495 0 7 C0 5.68 0 4.36 0 3 C-0.99 3.66 -1.98 4.32 -3 5 C-1.125 1.125 -1.125 1.125 0 0 Z " fill="#8D6C41" transform="translate(28,57)"/>
<path d="M0 0 C2.97 0.495 2.97 0.495 6 1 C6 1.66 6 2.32 6 3 C4.02 3.99 4.02 3.99 2 5 C1.34 3.35 0.68 1.7 0 0 Z " fill="#7F6A4B" transform="translate(84,97)"/>
<path d="M0 0 C0.99 0.33 1.98 0.66 3 1 C2.34 1 1.68 1 1 1 C1.99 2.32 2.98 3.64 4 5 C1 6 1 6 -2 5 C-1.125 1.125 -1.125 1.125 0 0 Z " fill="#836C4B" transform="translate(34,8)"/>
<path d="M0 0 C0.66 0.33 1.32 0.66 2 1 C2 2.32 2 3.64 2 5 C0.35 5 -1.3 5 -3 5 C-3 4.34 -3 3.68 -3 3 C-2.34 3 -1.68 3 -1 3 C-0.67 2.01 -0.34 1.02 0 0 Z " fill="#8F8463" transform="translate(60,105)"/>
<path d="M0 0 C0.66 0 1.32 0 2 0 C2.66 1.65 3.32 3.3 4 5 C2.35 5 0.7 5 -1 5 C-0.67 3.35 -0.34 1.7 0 0 Z " fill="#999470" transform="translate(54,79)"/>
<path d="M0 0 C0.66 1.32 1.32 2.64 2 4 C1.01 5.485 1.01 5.485 0 7 C-0.66 6.67 -1.32 6.34 -2 6 C-1.67 5.34 -1.34 4.68 -1 4 C-1.66 4 -2.32 4 -3 4 C-2.67 3.01 -2.34 2.02 -2 1 C-1.34 0.67 -0.68 0.34 0 0 Z " fill="#9E8E63" transform="translate(47,79)"/>
<path d="M0 0 C1.32 0 2.64 0 4 0 C3.34 1.98 2.68 3.96 2 6 C0.68 6 -0.64 6 -2 6 C-1.67 5.38125 -1.34 4.7625 -1 4.125 C0.14193235 2.08981656 0.14193235 2.08981656 0 0 Z " fill="#816440" transform="translate(11,29)"/>
<path d="M0 0 C2.86724686 0.57344937 3.8614515 0.8614515 6 3 C5.34 3 4.68 3 4 3 C4 3.66 4 4.32 4 5 C2.68 4.67 1.36 4.34 0 4 C0 2.68 0 1.36 0 0 Z " fill="#726451" transform="translate(86,18)"/>
</svg>
