<?xml version="1.0" encoding="UTF-8"?>
<svg version="1.1" xmlns="http://www.w3.org/2000/svg" width="228" height="221">
<path d="M0 0 C75.24 0 150.48 0 228 0 C228 72.93 228 145.86 228 221 C152.76 221 77.52 221 0 221 C0 148.07 0 75.14 0 0 Z " fill="#FBFAF8" transform="translate(0,0)"/>
<path d="M0 0 C2.73967202 3.49048593 4.7583001 7.15676436 6.81640625 11.07421875 C7.85817541 13.14902259 7.85817541 13.14902259 10 14 C10 14.99 10 15.98 10 17 C8.35 17.66 6.7 18.32 5 19 C6.24976756 22.65316671 6.67098753 23.78065836 10 26 C13.12521833 26.16699232 13.12521833 26.16699232 16 26 C16.22057835 22.02958963 15.88343932 20.76687864 14 17 C18.29 15.02 22.58 13.04 27 11 C24.96187101 17.71383667 22.30992871 24.0296853 19.42553711 30.4140625 C18.00262752 33.58720864 16.77210238 36.61122496 16 40 C10.54699311 41.82008608 5.73212536 42.33654415 0 42.3125 C-0.76828125 42.32861328 -1.5365625 42.34472656 -2.328125 42.36132812 C-7.58063298 42.36579454 -11.48438761 41.79285923 -16 39 C-16.6484375 36.453125 -16.6484375 36.453125 -17 33 C-18.74487758 28.56424932 -20.8898361 24.29471939 -22.9375 19.9921875 C-23.34226562 19.12335938 -23.74703125 18.25453125 -24.1640625 17.359375 C-24.53998535 16.57014648 -24.9159082 15.78091797 -25.30322266 14.96777344 C-25.64812744 13.99372559 -25.64812744 13.99372559 -26 13 C-25.67 12.34 -25.34 11.68 -25 11 C-21.04 12.98 -17.08 14.96 -13 17 C-13.66 18.32 -14.32 19.64 -15 21 C-15.71447643 23.10332891 -15.71447643 23.10332891 -16 25 C-14.90201339 26.31189416 -14.90201339 26.31189416 -12.1875 26.25 C-8.67214774 25.9742861 -7.34316789 25.61353342 -5 23 C-4.66574265 20.37374861 -4.66574265 20.37374861 -5 18 C-6.65 17.67 -8.3 17.34 -10 17 C-9.61328125 16.443125 -9.2265625 15.88625 -8.828125 15.3125 C-5.44562948 10.35597191 -2.56446863 5.42483749 0 0 Z " fill="#ECDF92" transform="translate(111,52)"/>
<path d="M0 0 C6.435 2.97 6.435 2.97 13 6 C12.34 7.32 11.68 8.64 11 10 C10.28552357 12.10332891 10.28552357 12.10332891 10 14 C11.00836062 15.23267348 11.00836062 15.23267348 13.06640625 15.09765625 C13.89011719 15.08605469 14.71382812 15.07445313 15.5625 15.0625 C16.38878906 15.05347656 17.21507813 15.04445313 18.06640625 15.03515625 C18.70449219 15.02355469 19.34257813 15.01195313 20 15 C20 16.98 20 18.96 20 21 C18.68 21.33 17.36 21.66 16 22 C17.98 22.33 19.96 22.66 22 23 C22.33 24.65 22.66 26.3 23 28 C20.36 28 17.72 28 15 28 C17.39541268 28.19585135 19.79092774 28.38192107 22.1875 28.5625 C22.86103516 28.61857422 23.53457031 28.67464844 24.22851562 28.73242188 C28.017131 29.00963763 31.31827794 28.96511161 35 28 C34.01 27.67 33.02 27.34 32 27 C32.66 27 33.32 27 34 27 C34 25.68 34 24.36 34 23 C35.98 23 37.96 23 40 23 C40 22.34 40 21.68 40 21 C39.34 21 38.68 21 38 21 C38 19.35 38 17.7 38 16 C39.32 15.67 40.64 15.34 42 15 C42.22057835 11.02958963 41.88343932 9.76687864 40 6 C44.29 4.02 48.58 2.04 53 0 C50.96187101 6.71383667 48.30992871 13.0296853 45.42553711 19.4140625 C44.00262752 22.58720864 42.77210238 25.61122496 42 29 C36.54699311 30.82008608 31.73212536 31.33654415 26 31.3125 C25.23171875 31.32861328 24.4634375 31.34472656 23.671875 31.36132812 C18.41936702 31.36579454 14.51561239 30.79285923 10 28 C9.34765625 25.453125 9.34765625 25.453125 9 22 C7.64996491 18.50648172 6.03146214 15.13808491 4.4375 11.75 C3.59958595 9.95465154 2.76478591 8.15784536 1.93359375 6.359375 C1.56290771 5.57014648 1.19222168 4.78091797 0.81030273 3.96777344 C0 2 0 2 0 0 Z " fill="#D0B977" transform="translate(85,63)"/>
<path d="M0 0 C0.66 0 1.32 0 2 0 C2 0.66 2 1.32 2 2 C2.99 2.33 3.98 2.66 5 3 C4.175 3.763125 3.35 4.52625 2.5 5.3125 C-0.34055197 7.75434142 -0.34055197 7.75434142 0 11 C0.45375 10.34 0.9075 9.68 1.375 9 C1.91125 8.34 2.4475 7.68 3 7 C3.66 7 4.32 7 5 7 C3.9295723 9.16086338 2.83835925 11.30564797 1.7109375 13.4375 C1.27007812 14.283125 0.82921875 15.12875 0.375 16 C-0.07101563 16.845625 -0.51703125 17.69125 -0.9765625 18.5625 C-2.258088 21.17407626 -2.258088 21.17407626 -2 25 C1.53631503 24.44123161 2.91895128 23.34027339 5.125 20.5625 C6.70296618 18.60435026 8.21849868 16.78150132 10 15 C9.58388059 19.8547265 7.54108048 21.80439079 4 25 C3.34 25.66 2.68 26.32 2 27 C-0.4375 27.125 -0.4375 27.125 -3 27 C-3.99 27 -4.98 27 -6 27 C-6.32613281 26.36191406 -6.65226562 25.72382813 -6.98828125 25.06640625 C-7.42527344 24.24011719 -7.86226562 23.41382813 -8.3125 22.5625 C-8.74175781 21.73878906 -9.17101562 20.91507813 -9.61328125 20.06640625 C-10.90020887 17.69352356 -10.90020887 17.69352356 -14 17 C-14.33 19.31 -14.66 21.62 -15 24 C-15.66 24 -16.32 24 -17 24 C-16.34 19.71 -15.68 15.42 -15 11 C-14.01 11 -13.02 11 -12 11 C-12 11.99 -12 12.98 -12 14 C-5.25916676 9.26998687 -5.25916676 9.26998687 0 3 C0 2.01 0 1.02 0 0 Z " fill="#F1E7A0" transform="translate(124,109)"/>
<path d="M0 0 C2.4524381 4.33591056 2.69039135 8.10759712 2 13 C-0.25652626 17.34590243 -3.21855876 20.88031098 -7 24 C-9.3125 23.8125 -9.3125 23.8125 -11 23 C-10.83837003 15.72665157 -7.04781684 10.84449794 -3 5 C-5.97 7.475 -5.97 7.475 -9 10 C-8.39053254 4.5147929 -8.39053254 4.5147929 -6.625 2.1875 C-4.49088208 0.62795229 -2.64580119 0 0 0 Z " fill="#FDFDFA" transform="translate(132,111)"/>
<path d="M0 0 C0.33 0.66 0.66 1.32 1 2 C0.21142578 4.27490234 0.21142578 4.27490234 -1.0546875 7.0859375 C-1.50457031 8.09914063 -1.95445312 9.11234375 -2.41796875 10.15625 C-3.13919922 11.74953125 -3.13919922 11.74953125 -3.875 13.375 C-4.81265013 15.46491228 -5.74765598 17.55601346 -6.6796875 19.6484375 C-7.09976074 20.57833496 -7.51983398 21.50823242 -7.95263672 22.46630859 C-8.8550938 24.64945534 -9.50882103 26.69544501 -10 29 C-10.99 28.67 -11.98 28.34 -13 28 C-13 27.67 -13 27.34 -13 27 C-15.31 27.33 -17.62 27.66 -20 28 C-19.34 27.67 -18.68 27.34 -18 27 C-18 25.68 -18 24.36 -18 23 C-16.02 23 -14.04 23 -12 23 C-12 22.34 -12 21.68 -12 21 C-12.66 21 -13.32 21 -14 21 C-14 19.35 -14 17.7 -14 16 C-12.68 15.67 -11.36 15.34 -10 15 C-9.77942165 11.02958963 -10.11656068 9.76687864 -12 6 C-8.04 4.02 -4.08 2.04 0 0 Z " fill="#BD9E5F" transform="translate(137,63)"/>
<path d="M0 0 C0.33 0.99 0.66 1.98 1 3 C3.97 2.34 6.94 1.68 10 1 C12 5 12 5 11.92578125 7.5390625 C10.69281206 10.81657553 9.1921311 11.64172818 6.1875 13.375 C5.31480469 13.89835938 4.44210938 14.42171875 3.54296875 14.9609375 C0.76990141 16.09401878 -0.26554097 16.08358516 -3 15 C-2.69052329 13.06201479 -2.37731166 11.12462574 -2.0625 9.1875 C-1.88847656 8.10855469 -1.71445313 7.02960938 -1.53515625 5.91796875 C-1 3 -1 3 0 0 Z " fill="#F6F1E2" transform="translate(86,119)"/>
<path d="M0 0 C0.99 0 1.98 0 3 0 C3 2.31 3 4.62 3 7 C4.98 7 6.96 7 9 7 C9 8.98 9 10.96 9 13 C12.465 12.505 12.465 12.505 16 12 C15 14 15 14 13.2421875 14.66796875 C5.50061657 16.3670264 -2.18569337 16.21121753 -10 15 C-10.66 14.34 -11.32 13.68 -12 13 C-8.7 13.33 -5.4 13.66 -2 14 C-2.3403125 12.4840625 -2.3403125 12.4840625 -2.6875 10.9375 C-3.06701625 6.1555952 -2.14029854 4.19498514 0 0 Z " fill="#F4EDC1" transform="translate(110,77)"/>
<path d="M0 0 C2.475 0.495 2.475 0.495 5 1 C5 1.66 5 2.32 5 3 C5.66 3 6.32 3 7 3 C7.33 2.34 7.66 1.68 8 1 C11.0625 0.375 11.0625 0.375 14 0 C16.19097652 3.3340947 17.43454163 6.04179141 18 10 C17.01 10.33 16.02 10.66 15 11 C15.33 12.65 15.66 14.3 16 16 C13 16 13 16 10 15 C10 14.34 10 13.68 10 13 C9.34 13 8.68 13 8 13 C7.67 11.68 7.34 10.36 7 9 C6.34 9 5.68 9 5 9 C4.9175 8.21625 4.835 7.4325 4.75 6.625 C4.27193661 3.85250896 4.27193661 3.85250896 1.9375 2.6875 C1.298125 2.460625 0.65875 2.23375 0 2 C0 1.34 0 0.68 0 0 Z " fill="#D4C1AC" transform="translate(21,166)"/>
<path d="M0 0 C1.32 0 2.64 0 4 0 C3.4642104 2.94684283 2.78143509 5.74569205 1.9375 8.625 C0.86617807 11.89796078 0.86617807 11.89796078 1 15 C1.66 15.33 2.32 15.66 3 16 C3.88671875 17.70703125 3.88671875 17.70703125 4.6875 19.8125 C5.09548828 20.84310547 5.09548828 20.84310547 5.51171875 21.89453125 C6.07699467 24.33200103 5.91009796 25.6820157 5 28 C4.34 28.33 3.68 28.66 3 29 C3.66 29.45375 4.32 29.9075 5 30.375 C5.66 30.91125 6.32 31.4475 7 32 C7 32.66 7 33.32 7 34 C5.68 34 4.36 34 3 34 C2.67 35.32 2.34 36.64 2 38 C1.4254048 34.26513121 1 30.78706732 1 27 C0.34 26.67 -0.32 26.34 -1 26 C-1 16.5 -1 16.5 0 13 C-0.66 13 -1.32 13 -2 13 C-1.79375 12.05125 -1.5875 11.1025 -1.375 10.125 C-1.25125 9.09375 -1.1275 8.0625 -1 7 C-1.66 6.34 -2.32 5.68 -3 5 C-1.68 5 -0.36 5 1 5 C0.67 3.35 0.34 1.7 0 0 Z " fill="#CBB69E" transform="translate(7,105)"/>
<path d="M0 0 C3.77720794 4.49667612 6 9.0971218 6 15 C4.68 15.33 3.36 15.66 2 16 C1.67 17.65 1.34 19.3 1 21 C-1.1385485 18.8614515 -1.42655063 17.86724686 -2 15 C-2.99 15 -3.98 15 -5 15 C-3.97137215 9.55432314 -2.75385216 4.88182883 0 0 Z " fill="#F3EBB6" transform="translate(111,52)"/>
<path d="M0 0 C6.435 2.97 6.435 2.97 13 6 C12.34 7.32 11.68 8.64 11 10 C9.6009852 13.91724145 9.93154223 17.89253353 10 22 C6.88776996 18.34193269 5.18449804 14.24429815 3.3125 9.875 C2.99216797 9.14667969 2.67183594 8.41835937 2.34179688 7.66796875 C0 2.26535848 0 2.26535848 0 0 Z " fill="#BC9D66" transform="translate(85,63)"/>
<path d="M0 0 C0.66 0 1.32 0 2 0 C2 0.66 2 1.32 2 2 C2.99 2.33 3.98 2.66 5 3 C4.175 3.763125 3.35 4.52625 2.5 5.3125 C-0.34055197 7.75434142 -0.34055197 7.75434142 0 11 C0.45375 10.34 0.9075 9.68 1.375 9 C1.91125 8.34 2.4475 7.68 3 7 C3.66 7 4.32 7 5 7 C3.9295723 9.16086338 2.83835925 11.30564797 1.7109375 13.4375 C1.27007812 14.283125 0.82921875 15.12875 0.375 16 C-0.07101563 16.845625 -0.51703125 17.69125 -0.9765625 18.5625 C-2.258088 21.17407626 -2.258088 21.17407626 -2 25 C1.53631503 24.44123161 2.91895128 23.34027339 5.125 20.5625 C6.70296618 18.60435026 8.21849868 16.78150132 10 15 C9.58388059 19.8547265 7.54108048 21.80439079 4 25 C3.34 25.66 2.68 26.32 2 27 C-0.625 27.125 -0.625 27.125 -3 27 C-4.125 25.4375 -4.125 25.4375 -5 23 C-4.40138258 20.64828869 -3.73075648 18.3140622 -3 16 C-2.83071457 13.20755955 -2.83071457 13.20755955 -3 11 C-4.65 11.66 -6.3 12.32 -8 13 C-7.59007813 12.55269531 -7.18015625 12.10539062 -6.7578125 11.64453125 C-1.91517655 6.54880317 -1.91517655 6.54880317 0 0 Z " fill="#E4D48E" transform="translate(124,109)"/>
<path d="M0 0 C1.875 0.3125 1.875 0.3125 4 1 C6 4 6 4 5.625 6.6875 C5.41875 7.450625 5.2125 8.21375 5 9 C5.66 9.33 6.32 9.66 7 10 C7.29382062 11.99145086 7.57988001 13.98536906 7.78125 15.98828125 C8.00633563 18.05826513 8.41708298 20.00142737 9 22 C7.02 22.33 5.04 22.66 3 23 C3.66 21.68 4.32 20.36 5 19 C4.01 18.67 3.02 18.34 2 18 C2.33 17.34 2.66 16.68 3 16 C0.69 15.67 -1.62 15.34 -4 15 C-4 14.34 -4 13.68 -4 13 C-2.35 13 -0.7 13 1 13 C0.34 11.68 -0.32 10.36 -1 9 C0.9375 9.75 0.9375 9.75 3 11 C3.75 13.125 3.75 13.125 4 15 C4 13.68 4 12.36 4 11 C3.34 10.34 2.68 9.68 2 9 C1.875 5.875 1.875 5.875 2 3 C1.01 2.67 0.02 2.34 -1 2 C-0.67 1.34 -0.34 0.68 0 0 Z " fill="#A07748" transform="translate(209,75)"/>
<path d="M0 0 C0.66 0.309375 1.32 0.61875 2 0.9375 C5.70476015 2.24960255 9.09263991 2.60264135 13 3 C13 3.33 13 3.66 13 4 C11.35 4.33 9.7 4.66 8 5 C7.67 5.99 7.34 6.98 7 8 C3.67908998 9.70533217 1.81507216 10 -2 10 C-2.99 11.485 -2.99 11.485 -4 13 C-7.625 13.6875 -7.625 13.6875 -11 14 C-11 13.34 -11 12.68 -11 12 C-11.99 12.33 -12.98 12.66 -14 13 C-14.33 12.01 -14.66 11.02 -15 10 C-12.03 10.33 -9.06 10.66 -6 11 C-6.66 10.01 -7.32 9.02 -8 8 C-2.58461538 5.78461538 -2.58461538 5.78461538 0.375 6.875 C0.91125 7.24625 1.4475 7.6175 2 8 C1.67 7.236875 1.34 6.47375 1 5.6875 C0 3 0 3 0 0 Z " fill="#AE8A57" transform="translate(158,195)"/>
<path d="M0 0 C2.31 0 4.62 0 7 0 C7.12375 0.639375 7.2475 1.27875 7.375 1.9375 C7.58125 2.618125 7.7875 3.29875 8 4 C8.66 4.33 9.32 4.66 10 5 C9.67 5.66 9.34 6.32 9 7 C8.34 7 7.68 7 7 7 C6.67 7.99 6.34 8.98 6 10 C6 9.34 6 8.68 6 8 C3.69 8 1.38 8 -1 8 C-0.67 7.01 -0.34 6.02 0 5 C-2.31 5.66 -4.62 6.32 -7 7 C-7 6.34 -7 5.68 -7 5 C-7.66 4.67 -8.32 4.34 -9 4 C-8 3 -8 3 -4.5 2.5625 C-2.7675 2.2840625 -2.7675 2.2840625 -1 2 C-0.67 1.34 -0.34 0.68 0 0 Z " fill="#E9DFCC" transform="translate(74,9)"/>
<path d="M0 0 C0.99 0.99 1.98 1.98 3 3 C2.01 3.33 1.02 3.66 0 4 C0.33 4.99 0.66 5.98 1 7 C1.66 7.33 2.32 7.66 3 8 C2.34 8.66 1.68 9.32 1 10 C0.01 10 -0.98 10 -2 10 C-1.67 11.32 -1.34 12.64 -1 14 C-1.99 14 -2.98 14 -4 14 C-4.33 14.99 -4.66 15.98 -5 17 C-6.5625 15.9375 -6.5625 15.9375 -8 14 C-7.6875 10.3125 -7.6875 10.3125 -7 7 C-6.01 7 -5.02 7 -4 7 C-3.67 5.35 -3.34 3.7 -3 2 C-2.01 2 -1.02 2 0 2 C0 1.34 0 0.68 0 0 Z " fill="#CFBAA3" transform="translate(216,98)"/>
<path d="M0 0 C0.66 0 1.32 0 2 0 C1.67 2.31 1.34 4.62 1 7 C1.66 7 2.32 7 3 7 C2.6875 9.875 2.6875 9.875 2 13 C-1 15 -1 15 -5 15 C-5.625 13.125 -5.625 13.125 -6 11 C-5.34 10.34 -4.68 9.68 -4 9 C-4.66 8.34 -5.32 7.68 -6 7 C-5.34 7 -4.68 7 -4 7 C-3.71125 6.401875 -3.4225 5.80375 -3.125 5.1875 C-2 3 -2 3 0 0 Z " fill="#D1BDA5" transform="translate(207,138)"/>
<path d="M0 0 C0.99 0 1.98 0 3 0 C3 0.66 3 1.32 3 2 C2.34 2 1.68 2 1 2 C1.66 2.66 2.32 3.32 3 4 C3.99 3.67 4.98 3.34 6 3 C6 3.66 6 4.32 6 5 C5.34 5 4.68 5 4 5 C5.83347504 7.06023243 5.83347504 7.06023243 8 7.9375 C10 9 10 9 12 12 C12.125 14.6875 12.125 14.6875 12 17 C7.25 18 7.25 18 5 18 C5.33 15.36 5.66 12.72 6 10 C5.01 9.67 4.02 9.34 3 9 C0.75 6.125 0.75 6.125 -1 3 C-0.67 2.01 -0.34 1.02 0 0 Z " fill="#D5C3AC" transform="translate(175,25)"/>
<path d="M0 0 C0 2 0 4 0 6 C-0.66 6 -1.32 6 -2 6 C-2 8.31 -2 10.62 -2 13 C-3.65 13 -5.3 13 -7 13 C-7.33 12.01 -7.66 11.02 -8 10 C-8.66 9.67 -9.32 9.34 -10 9 C-9.67 7.35 -9.34 5.7 -9 4 C-8.195625 3.87625 -7.39125 3.7525 -6.5625 3.625 C-5.716875 3.41875 -4.87125 3.2125 -4 3 C-3.67 2.34 -3.34 1.68 -3 1 C-2.01 0.67 -1.02 0.34 0 0 Z " fill="#D5C3AF" transform="translate(217,125)"/>
<path d="M0 0 C1.4800841 0.11362262 2.95910074 0.24122908 4.4375 0.375 C5.26121094 0.44460937 6.08492187 0.51421875 6.93359375 0.5859375 C7.95646484 0.79089844 7.95646484 0.79089844 9 1 C9.33 1.66 9.66 2.32 10 3 C10.99 3.474375 11.98 3.94875 13 4.4375 C16 6 16 6 17 9 C13.37 8.67 9.74 8.34 6 8 C6 8.66 6 9.32 6 10 C5.34 10 4.68 10 4 10 C4.268125 9.443125 4.53625 8.88625 4.8125 8.3125 C4.874375 7.549375 4.93625 6.78625 5 6 C2.62494782 3.29151077 2.62494782 3.29151077 0 1 C0 0.67 0 0.34 0 0 Z " fill="#D8C6A6" transform="translate(139,7)"/>
<path d="M0 0 C0.66 0.33 1.32 0.66 2 1 C1.67 1.66 1.34 2.32 1 3 C1.39938767 5.09821215 1.39938767 5.09821215 2 7 C1.01 7.33 0.02 7.66 -1 8 C-1 8.66 -1 9.32 -1 10 C-1.99 10 -2.98 10 -4 10 C-4 11.98 -4 13.96 -4 16 C-4.66 15.67 -5.32 15.34 -6 15 C-6 14.01 -6 13.02 -6 12 C-6.99 11.34 -7.98 10.68 -9 10 C-8.01 9.34 -7.02 8.68 -6 8 C-6 7.01 -6 6.02 -6 5 C-4.14758766 2.00085621 -3.42298577 1.14099526 0 0 Z " fill="#CBB498" transform="translate(26,49)"/>
<path d="M0 0 C0.433125 0.474375 0.86625 0.94875 1.3125 1.4375 C3.02309613 3.23686957 3.02309613 3.23686957 6 4 C6 5.65 6 7.3 6 9 C7.98 9.66 9.96 10.32 12 11 C12 11.66 12 12.32 12 13 C8.45028204 12.39147692 5.23306391 11.61653196 2 10 C1.67 9.01 1.34 8.02 1 7 C-1.50447516 5.78130071 -1.50447516 5.78130071 -4 5 C-4 4.34 -4 3.68 -4 3 C-2 1.375 -2 1.375 0 0 Z " fill="#B59570" transform="translate(43,184)"/>
<path d="M0 0 C0.66 0.33 1.32 0.66 2 1 C1.45144652 5.571279 0.58255197 9.67435795 -1 14 C-5.42857143 8.85714286 -5.42857143 8.85714286 -6 5 C-4.02 3.35 -2.04 1.7 0 0 Z " fill="#FEFEFC" transform="translate(120,119)"/>
<path d="M0 0 C0.33 0.66 0.66 1.32 1 2 C-0.07408957 4.60474038 -1.20045633 7.09966038 -2.4375 9.625 C-2.77587891 10.33140625 -3.11425781 11.0378125 -3.46289062 11.765625 C-4.30154879 13.51381384 -5.14987847 15.25735686 -6 17 C-6.66 17 -7.32 17 -8 17 C-8 14.36 -8 11.72 -8 9 C-7.01 8.67 -6.02 8.34 -5 8 C-4.67 7.34 -4.34 6.68 -4 6 C-4.99 5.67 -5.98 5.34 -7 5 C-2.25 1.125 -2.25 1.125 0 0 Z " fill="#AF8A4E" transform="translate(137,63)"/>
<path d="M0 0 C0.33 0.66 0.66 1.32 1 2 C1.99 2.33 2.98 2.66 4 3 C3.34 4.32 2.68 5.64 2 7 C1.34 7 0.68 7 0 7 C-0.33 8.32 -0.66 9.64 -1 11 C-1.99 10.67 -2.98 10.34 -4 10 C-4.33 9.01 -4.66 8.02 -5 7 C-5.66 7 -6.32 7 -7 7 C-6.67 5.35 -6.34 3.7 -6 2 C-5.34 2.33 -4.68 2.66 -4 3 C-3.34 2.34 -2.68 1.68 -2 1 C-1.67 1.33 -1.34 1.66 -1 2 C-0.67 1.34 -0.34 0.68 0 0 Z " fill="#D9C9B0" transform="translate(68,154)"/>
<path d="M0 0 C-0.2778545 3.27216113 -0.57465563 6.5423326 -0.875 9.8125 C-0.95363281 10.74126953 -1.03226563 11.67003906 -1.11328125 12.62695312 C-1.19707031 13.51962891 -1.28085938 14.41230469 -1.3671875 15.33203125 C-1.44050293 16.15421143 -1.51381836 16.9763916 -1.58935547 17.82348633 C-2 20 -2 20 -4 23 C-4 20.03 -4 17.06 -4 14 C-5.32 13.67 -6.64 13.34 -8 13 C-6.68 13 -5.36 13 -4 13 C-4 10.36 -4 7.72 -4 5 C-4.99 5.66 -5.98 6.32 -7 7 C-3.86206897 0 -3.86206897 0 0 0 Z " fill="#AD8850" transform="translate(168,110)"/>
<path d="M0 0 C3.465 1.98 3.465 1.98 7 4 C7 5.65 7 7.3 7 9 C7.66 9 8.32 9 9 9 C9 9.66 9 10.32 9 11 C7.02 11 5.04 11 3 11 C3 10.34 3 9.68 3 9 C2.01 9 1.02 9 0 9 C0 6.03 0 3.06 0 0 Z " fill="#DCCA92" transform="translate(116,75)"/>
<path d="M0 0 C0.66 0 1.32 0 2 0 C2.27263672 0.84884766 2.27263672 0.84884766 2.55078125 1.71484375 C2.80214844 2.44832031 3.05351562 3.18179688 3.3125 3.9375 C3.55613281 4.66839844 3.79976562 5.39929688 4.05078125 6.15234375 C4.91240441 8.35932024 4.91240441 8.35932024 8 9 C7.67 10.98 7.34 12.96 7 15 C6.01 14.34 5.02 13.68 4 13 C3.01 13.495 3.01 13.495 2 14 C-1.125 4.625 -1.125 4.625 0 0 Z " fill="#AE8B64" transform="translate(12,141)"/>
<path d="M0 0 C0.66 0 1.32 0 2 0 C1.67 2.64 1.34 5.28 1 8 C1.66 8.33 2.32 8.66 3 9 C2.01 9.66 1.02 10.32 0 11 C-1.22196109 13.17610667 -1.22196109 13.17610667 -2.1875 15.625 C-2.53167969 16.44226563 -2.87585938 17.25953125 -3.23046875 18.1015625 C-3.48441406 18.72804687 -3.73835937 19.35453125 -4 20 C-4.66 19.67 -5.32 19.34 -6 19 C-5.34 17.68 -4.68 16.36 -4 15 C-4.66 14.67 -5.32 14.34 -6 14 C-5.34 13.236875 -4.68 12.47375 -4 11.6875 C-1.70149462 9.15722061 -1.70149462 9.15722061 -2 6 C-2.99 6.495 -2.99 6.495 -4 7 C-2.79618552 4.50638429 -1.54571278 2.31856917 0 0 Z " fill="#C4A86C" transform="translate(151,112)"/>
<path d="M0 0 C-0.165 0.598125 -0.33 1.19625 -0.5 1.8125 C-1.1114124 4.11344336 -1.1114124 4.11344336 -1 7 C-2.8125 9.6875 -2.8125 9.6875 -5 12 C-5.99 12 -6.98 12 -8 12 C-7.56161545 6.41059701 -6.69174071 0 0 0 Z " fill="#E0D2AD" transform="translate(147,127)"/>
<path d="M0 0 C2.12636813 0.28151916 4.25108528 0.57553263 6.375 0.875 C7.55835937 1.03742188 8.74171875 1.19984375 9.9609375 1.3671875 C13 2 13 2 15 4 C14.01 4.33 13.02 4.66 12 5 C12.33 5.66 12.66 6.32 13 7 C9.37 6.34 5.74 5.68 2 5 C2 4.01 2 3.02 2 2 C1.34 2 0.68 2 0 2 C0 1.34 0 0.68 0 0 Z " fill="#E9DEB5" transform="translate(77,207)"/>
<path d="M0 0 C2 3.75 2 3.75 2 6 C-0.31 5.67 -2.62 5.34 -5 5 C-5 5.66 -5 6.32 -5 7 C-5.99 7 -6.98 7 -8 7 C-8 7.66 -8 8.32 -8 9 C-10.3125 9.25 -10.3125 9.25 -13 9 C-14.97610386 6.95575462 -16 5.8823175 -16 3 C-13 4 -13 4 -11 6 C-10.34 4.68 -9.68 3.36 -9 2 C-8.67 3.32 -8.34 4.64 -8 6 C-7.34 6 -6.68 6 -6 6 C-6 5.34 -6 4.68 -6 4 C-4.35 4 -2.7 4 -1 4 C-0.67 2.68 -0.34 1.36 0 0 Z " fill="#C6AB7A" transform="translate(98,3)"/>
<path d="M0 0 C0.66 0.33 1.32 0.66 2 1 C1.34 2.32 0.68 3.64 0 5 C0.66 5.33 1.32 5.66 2 6 C1.236875 6.5775 0.47375 7.155 -0.3125 7.75 C-4.41169326 11.74438434 -4.93938764 17.59346382 -6 23 C-6.33 23 -6.66 23 -7 23 C-7.02693575 20.87506859 -7.04636628 18.75004088 -7.0625 16.625 C-7.07410156 15.44164063 -7.08570312 14.25828125 -7.09765625 13.0390625 C-7 10 -7 10 -6 8 C-5.34 8 -4.68 8 -4 8 C-3.71125 7.236875 -3.4225 6.47375 -3.125 5.6875 C-2 3 -2 3 0 0 Z " fill="#C6AB6F" transform="translate(81,111)"/>
<path d="M0 0 C0.66 0 1.32 0 2 0 C1.81824219 0.58265625 1.63648437 1.1653125 1.44921875 1.765625 C-0.60235511 8.45691206 -2.35228894 15.19880965 -4 22 C-2.02 22 -0.04 22 2 22 C2 22.33 2 22.66 2 23 C-0.31 23 -2.62 23 -5 23 C-6.34844457 18.47369244 -5.53930787 15.40372034 -4.1875 10.9375 C-3.83042969 9.72964844 -3.47335938 8.52179688 -3.10546875 7.27734375 C-2.23117032 4.6853424 -1.3152729 2.3865359 0 0 Z " fill="#B99966" transform="translate(64,112)"/>
<path d="M0 0 C1.32 0.33 2.64 0.66 4 1 C0.9182501 3.05449993 -1.3095757 3.74475809 -4.875 4.625 C-5.90367187 4.88539063 -6.93234375 5.14578125 -7.9921875 5.4140625 C-10.75879061 5.95301116 -13.19284196 6.11394368 -16 6 C-16 5.01 -16 4.02 -16 3 C-16.66 3 -17.32 3 -18 3 C-18 2.34 -18 1.68 -18 1 C-17.01 1 -16.02 1 -15 1 C-15 1.66 -15 2.32 -15 3 C-14.0409375 2.7215625 -14.0409375 2.7215625 -13.0625 2.4375 C-12.381875 2.293125 -11.70125 2.14875 -11 2 C-10.67 2.33 -10.34 2.66 -10 3 C-8.30858344 2.91036938 -6.62040398 2.75422324 -4.9375 2.5625 C-4.01839844 2.46066406 -3.09929687 2.35882813 -2.15234375 2.25390625 C-1.08693359 2.12822266 -1.08693359 2.12822266 0 2 C0 1.34 0 0.68 0 0 Z " fill="#AD8854" transform="translate(142,209)"/>
<path d="M0 0 C-0.99 0.66 -1.98 1.32 -3 2 C-2.01 2.99 -1.02 3.98 0 5 C-2.64 5.33 -5.28 5.66 -8 6 C-7.34 5.34 -6.68 4.68 -6 4 C-8.31 4.33 -10.62 4.66 -13 5 C-13 3.68 -13 2.36 -13 1 C-12.401875 1.185625 -11.80375 1.37125 -11.1875 1.5625 C-8.83591238 2.22093687 -8.83591238 2.22093687 -6 1 C-7.32 0.34 -8.64 -0.32 -10 -1 C-6.18510326 -2.46726798 -3.70988378 -1.43336419 0 0 Z " fill="#DFCE8F" transform="translate(105,210)"/>
<path d="M0 0 C0.99 0.33 1.98 0.66 3 1 C2.34 2.65 1.68 4.3 1 6 C1.66 6.66 2.32 7.32 3 8 C2.625 10.625 2.625 10.625 2 13 C1.34 13 0.68 13 0 13 C-1.37310707 14.29233607 -2.71034824 15.62437146 -4 17 C-3.62875 16.071875 -3.2575 15.14375 -2.875 14.1875 C-2.58625 13.135625 -2.2975 12.08375 -2 11 C-2.66 10.01 -3.32 9.02 -4 8 C-3.34 8 -2.68 8 -2 8 C-1.34 5.36 -0.68 2.72 0 0 Z " fill="#A68056" transform="translate(216,109)"/>
<path d="M0 0 C1.32 0 2.64 0 4 0 C3.4642104 2.94684283 2.78143509 5.74569205 1.9375 8.625 C0.86617807 11.89796078 0.86617807 11.89796078 1 15 C1.66 15.33 2.32 15.66 3 16 C2.67 16.66 2.34 17.32 2 18 C1.34 18 0.68 18 0 18 C0 18.66 0 19.32 0 20 C-0.66 20 -1.32 20 -2 20 C-1.01 16.535 -1.01 16.535 0 13 C-0.66 13 -1.32 13 -2 13 C-1.79375 12.05125 -1.5875 11.1025 -1.375 10.125 C-1.25125 9.09375 -1.1275 8.0625 -1 7 C-1.66 6.34 -2.32 5.68 -3 5 C-1.68 5 -0.36 5 1 5 C0.67 3.35 0.34 1.7 0 0 Z " fill="#A17848" transform="translate(7,105)"/>
<path d="M0 0 C1.37444447 3.70578066 0.58339615 5.7843281 -0.875 9.375 C-2.38466145 13.26367967 -3.54855948 16.82417522 -4 21 C-2.02 21.33 -0.04 21.66 2 22 C2 22.33 2 22.66 2 23 C-0.33294775 23.04241723 -2.66702567 23.04092937 -5 23 C-5.33 22.67 -5.66 22.34 -6 22 C-5.68223569 15.53879239 -4.78383481 4.78383481 0 0 Z " fill="#B08D61" transform="translate(175,112)"/>
<path d="M0 0 C0.99 0 1.98 0 3 0 C3 3.3 3 6.6 3 10 C0.03 10.66 -2.94 11.32 -6 12 C-5.34 11.67 -4.68 11.34 -4 11 C-4 9.68 -4 8.36 -4 7 C-2.02 7 -0.04 7 2 7 C2 6.34 2 5.68 2 5 C1.34 5 0.68 5 0 5 C0 3.35 0 1.7 0 0 Z " fill="#C7AC69" transform="translate(123,79)"/>
<path d="M0 0 C2.97 0 5.94 0 9 0 C9.33 1.65 9.66 3.3 10 5 C6.04 4.67 2.08 4.34 -2 4 C-1.01 3.67 -0.02 3.34 1 3 C0.67 2.01 0.34 1.02 0 0 Z " fill="#D9C583" transform="translate(98,86)"/>
<path d="M0 0 C0.02698189 1.62490954 0.04638757 3.24994633 0.0625 4.875 C0.07410156 5.77992187 0.08570312 6.68484375 0.09765625 7.6171875 C0 10 0 10 -1 12 C-4.3 12 -7.6 12 -11 12 C-9 10 -9 10 -6.375 9.875 C-5.59125 9.91625 -4.8075 9.9575 -4 10 C-4.061875 8.906875 -4.12375 7.81375 -4.1875 6.6875 C-4 3 -4 3 -2.5625 1.0625 C-1 0 -1 0 0 0 Z M-6 4 C-4 5 -4 5 -4 5 Z " fill="#E8DBA3" transform="translate(108,74)"/>
<path d="M0 0 C0.66 0.309375 1.32 0.61875 2 0.9375 C5.70476015 2.24960255 9.09263991 2.60264135 13 3 C13 3.33 13 3.66 13 4 C11.35 4.33 9.7 4.66 8 5 C7.67 5.99 7.34 6.98 7 8 C4.625 7.75 4.625 7.75 2 7 C0.2058242 4.43689172 0 3.16880694 0 0 Z " fill="#C4A981" transform="translate(158,195)"/>
<path d="M0 0 C1.61178894 4.02947234 0.16017428 6.97351278 -1 11 C-0.979375 12.258125 -0.95875 13.51625 -0.9375 14.8125 C-0.958125 15.864375 -0.97875 16.91625 -1 18 C-1.99 18.66 -2.98 19.32 -4 20 C-5 19 -5 19 -5.0625 16.4375 C-5.041875 15.633125 -5.02125 14.82875 -5 14 C-4.01 15.485 -4.01 15.485 -3 17 C-2.67 15.68 -2.34 14.36 -2 13 C-2.66 13 -3.32 13 -4 13 C-3.71682074 11.39431334 -3.42312209 9.79047953 -3.125 8.1875 C-2.96257812 7.29417969 -2.80015625 6.40085938 -2.6328125 5.48046875 C-2 3 -2 3 0 0 Z " fill="#D6C285" transform="translate(133,148)"/>
<path d="M0 0 C0.96661363 3.12180401 0.98988909 5.52083795 0.5625 8.75 C0.46066406 9.54921875 0.35882813 10.3484375 0.25390625 11.171875 C0.12822266 12.07679688 0.12822266 12.07679688 0 13 C-0.66 13 -1.32 13 -2 13 C-2 11.02 -2 9.04 -2 7 C-2.45375 7.495 -2.9075 7.99 -3.375 8.5 C-5 10 -5 10 -7 10 C-6.125 5.25 -6.125 5.25 -5 3 C-3.68 3 -2.36 3 -1 3 C-0.67 2.01 -0.34 1.02 0 0 Z " fill="#F0E7AC" transform="translate(119,152)"/>
<path d="M0 0 C0 0.99 0 1.98 0 3 C-2.5 4.6875 -2.5 4.6875 -5 6 C-5 5.34 -5 4.68 -5 4 C-6.98 4 -8.96 4 -11 4 C-10.01 4.66 -9.02 5.32 -8 6 C-8.33 6.66 -8.66 7.32 -9 8 C-11.64 8 -14.28 8 -17 8 C-16.67 7.34 -16.34 6.68 -16 6 C-14.68 6 -13.36 6 -12 6 C-12 5.01 -12 4.02 -12 3 C-11.01 3 -10.02 3 -9 3 C-9 2.34 -9 1.68 -9 1 C-7.88625 1.20625 -6.7725 1.4125 -5.625 1.625 C-4.42875 1.74875 -3.2325 1.8725 -2 2 C-1.34 1.34 -0.68 0.68 0 0 Z " fill="#AB8657" transform="translate(66,16)"/>
<path d="M0 0 C0.474375 0.639375 0.94875 1.27875 1.4375 1.9375 C2.9091365 4.28372963 2.9091365 4.28372963 6 5 C5.67 5.99 5.34 6.98 5 8 C5 7.34 5 6.68 5 6 C2.69 6 0.38 6 -2 6 C-1.67 5.01 -1.34 4.02 -1 3 C-3.31 3.66 -5.62 4.32 -8 5 C-8 4.34 -8 3.68 -8 3 C-8.66 2.67 -9.32 2.34 -10 2 C-7.75858472 -0.24141528 -3.06492894 0 0 0 Z " fill="#B89968" transform="translate(75,11)"/>
<path d="M0 0 C2.475 0.495 2.475 0.495 5 1 C5 1.66 5 2.32 5 3 C5.66 3 6.32 3 7 3 C7.33 2.34 7.66 1.68 8 1 C8.99 3.97 9.98 6.94 11 10 C8 10 8 10 5 9 C4.9175 8.21625 4.835 7.4325 4.75 6.625 C4.27193661 3.85250896 4.27193661 3.85250896 1.9375 2.6875 C1.298125 2.460625 0.65875 2.23375 0 2 C0 1.34 0 0.68 0 0 Z " fill="#A27849" transform="translate(21,166)"/>
<path d="M0 0 C3 3.625 3 3.625 3 7 C3.66 7 4.32 7 5 7 C5.33 9.64 5.66 12.28 6 15 C5.54625 14.505 5.0925 14.01 4.625 13.5 C3.12364481 11.77390663 3.12364481 11.77390663 1 12 C0.34 11.01 -0.32 10.02 -1 9 C-1.66 9 -2.32 9 -3 9 C-3 8.34 -3 7.68 -3 7 C-2.34 6.67 -1.68 6.34 -1 6 C-0.34227572 2.97065509 -0.34227572 2.97065509 0 0 Z " fill="#B5956D" transform="translate(194,41)"/>
<path d="M0 0 C0.99 0.33 1.98 0.66 3 1 C2.67 2.98 2.34 4.96 2 7 C0.02 7.66 -1.96 8.32 -4 9 C-4.33 7.02 -4.66 5.04 -5 3 C-2.6875 1.4375 -2.6875 1.4375 0 0 Z " fill="#EDE6D7" transform="translate(72,13)"/>
<path d="M0 0 C0.33 0.99 0.66 1.98 1 3 C3.97 2.34 6.94 1.68 10 1 C10.33 2.32 10.66 3.64 11 5 C7.37 5 3.74 5 0 5 C-0.33 7.64 -0.66 10.28 -1 13 C-1.33 13 -1.66 13 -2 13 C-1.85851011 11.3954444 -1.71164314 9.79136233 -1.5625 8.1875 C-1.48128906 7.29417969 -1.40007812 6.40085937 -1.31640625 5.48046875 C-1 3 -1 3 0 0 Z " fill="#CFB670" transform="translate(86,119)"/>
<path d="M0 0 C0.66 0.33 1.32 0.66 2 1 C1.01 1.66 0.02 2.32 -1 3 C-0.67 4.65 -0.34 6.3 0 8 C-0.66 8 -1.32 8 -2 8 C-2 8.99 -2 9.98 -2 11 C-2.66 11 -3.32 11 -4 11 C-6 8 -6 8 -5.625 5.8125 C-5.41875 5.214375 -5.2125 4.61625 -5 4 C-4.34 4 -3.68 4 -3 4 C-3 3.01 -3 2.02 -3 1 C-2.01 0.67 -1.02 0.34 0 0 Z " fill="#B99B78" transform="translate(23,153)"/>
<path d="M0 0 C0 1.98 0 3.96 0 6 C-2.07553648 6.5534764 -3.84365964 7 -6 7 C-6.33 5.02 -6.66 3.04 -7 1 C-1.125 0 -1.125 0 0 0 Z " fill="#CDB472" transform="translate(105,78)"/>
<path d="M0 0 C0.66 0 1.32 0 2 0 C1.53199289 4.05606165 1.12046792 7.46588679 -1 11 C-1.66 11 -2.32 11 -3 11 C-4.625 9 -4.625 9 -6 7 C-5.34 7 -4.68 7 -4 7 C-3.71125 6.401875 -3.4225 5.80375 -3.125 5.1875 C-2 3 -2 3 0 0 Z " fill="#BFA380" transform="translate(207,138)"/>
<path d="M0 0 C4.7517398 0.43197635 6.92000054 1.32769295 10 5 C6.18243176 6.37432457 2.92744671 5.67975039 -1 5 C-1 5.66 -1 6.32 -1 7 C-1.66 7 -2.32 7 -3 7 C-2.34 5.35 -1.68 3.7 -1 2 C-0.67 2.66 -0.34 3.32 0 4 C1.65 3.67 3.3 3.34 5 3 C2.525 2.01 2.525 2.01 0 1 C0 0.67 0 0.34 0 0 Z " fill="#A9824A" transform="translate(146,10)"/>
<path d="M0 0 C0.99 1.32 1.98 2.64 3 4 C2.01 4.495 2.01 4.495 1 5 C1.66 5.45375 2.32 5.9075 3 6.375 C3.66 6.91125 4.32 7.4475 5 8 C5 8.66 5 9.32 5 10 C3.68 10 2.36 10 1 10 C0.67 11.32 0.34 12.64 0 14 C-1.47368421 4.42105263 -1.47368421 4.42105263 0 0 Z " fill="#A1794C" transform="translate(9,129)"/>
<path d="M0 0 C1.98 0.99 3.96 1.98 6 3 C6 5.97 6 8.94 6 12 C3.09907498 9.09907498 2.44538205 8.03482675 1.3125 4.3125 C1.06113281 3.50425781 0.80976562 2.69601563 0.55078125 1.86328125 C0.36902344 1.24839844 0.18726562 0.63351563 0 0 Z " fill="#A2793F" transform="translate(85,63)"/>
<path d="M0 0 C1.33332095 2.6666419 0.67102033 4.16680303 0 7 C0.66 7.33 1.32 7.66 2 8 C0.68 8 -0.64 8 -2 8 C-1.67 6.68 -1.34 5.36 -1 4 C-1.66 4 -2.32 4 -3 4 C-3.33 5.32 -3.66 6.64 -4 8 C-4.66 8 -5.32 8 -6 8 C-5.34 5.69 -4.68 3.38 -4 1 C-2.68 0.67 -1.36 0.34 0 0 Z " fill="#C9B080" transform="translate(146,154)"/>
<path d="M0 0 C1.98 0.66 3.96 1.32 6 2 C4.98823563 5.40320742 4.35156418 6.75725331 1.375 8.8125 C0.59125 9.204375 -0.1925 9.59625 -1 10 C-0.835 9.401875 -0.67 8.80375 -0.5 8.1875 C0.1114124 5.88655664 0.1114124 5.88655664 0 3 C0 2.01 0 1.02 0 0 Z " fill="#DDCEBC" transform="translate(209,117)"/>
<path d="M0 0 C0.86625 0.556875 0.86625 0.556875 1.75 1.125 C1.42 2.115 1.09 3.105 0.75 4.125 C-0.24 4.125 -1.23 4.125 -2.25 4.125 C-2.58 5.115 -2.91 6.105 -3.25 7.125 C-6.25 3.375 -6.25 3.375 -6.25 1.125 C-2.80384615 -1.09038462 -2.80384615 -1.09038462 0 0 Z " fill="#C6AB78" transform="translate(131.25,67.875)"/>
<path d="M0 0 C0.99 0 1.98 0 3 0 C3 0.66 3 1.32 3 2 C2.34 2 1.68 2 1 2 C1.66 2.66 2.32 3.32 3 4 C3.99 3.67 4.98 3.34 6 3 C6 3.66 6 4.32 6 5 C5.34 5 4.68 5 4 5 C5.89353366 6.89353366 7.84526801 8.4198632 10 10 C6.75 9.875 6.75 9.875 3 9 C0.5 6.125 0.5 6.125 -1 3 C-0.67 2.01 -0.34 1.02 0 0 Z " fill="#A57F51" transform="translate(175,25)"/>
<path d="M0 0 C0.99 0.99 1.98 1.98 3 3 C2.01 3.33 1.02 3.66 0 4 C0.33 4.99 0.66 5.98 1 7 C1.66 7.33 2.32 7.66 3 8 C2.34 8.66 1.68 9.32 1 10 C-0.32 10 -1.64 10 -3 10 C-3 9.01 -3 8.02 -3 7 C-2.34 7 -1.68 7 -1 7 C-1.66 5.35 -2.32 3.7 -3 2 C-2.01 2 -1.02 2 0 2 C0 1.34 0 0.68 0 0 Z " fill="#9B6F3D" transform="translate(216,98)"/>
<path d="M0 0 C1.32 0.66 2.64 1.32 4 2 C4 2.99 4 3.98 4 5 C3.34 5 2.68 5 2 5 C1.01 6.485 1.01 6.485 0 8 C-0.66 8 -1.32 8 -2 8 C-2.33 9.32 -2.66 10.64 -3 12 C-3.33 10.35 -3.66 8.7 -4 7 C-3.01 6.67 -2.02 6.34 -1 6 C-1.020625 5.195625 -1.04125 4.39125 -1.0625 3.5625 C-1 1 -1 1 0 0 Z " fill="#A98356" transform="translate(205,62)"/>
<path d="M0 0 C1.15957207 3.47871621 0.77456651 4.34219645 -0.4375 7.6875 C-0.86869141 8.89986328 -0.86869141 8.89986328 -1.30859375 10.13671875 C-1.53675781 10.75160156 -1.76492187 11.36648437 -2 12 C-0.68 11.67 0.64 11.34 2 11 C1.01 12.485 1.01 12.485 0 14 C-1.32 13.67 -2.64 13.34 -4 13 C-3.71517632 11.58194169 -3.42181856 10.16559621 -3.125 8.75 C-2.96257812 7.96109375 -2.80015625 7.1721875 -2.6328125 6.359375 C-2.00849925 4.03168856 -1.15161458 2.10968048 0 0 Z " fill="#D2BB7C" transform="translate(140,113)"/>
<path d="M0 0 C0.99 0.33 1.98 0.66 3 1 C3 1.66 3 2.32 3 3 C3.99 2.67 4.98 2.34 6 2 C5.75 4.375 5.75 4.375 5 7 C2.9375 8.3125 2.9375 8.3125 1 9 C1 6 1 6 2 3 C0.68 2.34 -0.64 1.68 -2 1 C-1.34 0.67 -0.68 0.34 0 0 Z " fill="#AB8555" transform="translate(190,170)"/>
<path d="M0 0 C0 2 0 4 0 6 C-0.66 6 -1.32 6 -2 6 C-2 6.99 -2 7.98 -2 9 C-2.66 9 -3.32 9 -4 9 C-4 7.68 -4 6.36 -4 5 C-4.99 4.67 -5.98 4.34 -7 4 C-6.01 3.67 -5.02 3.34 -4 3 C-3.67 2.34 -3.34 1.68 -3 1 C-2.01 0.67 -1.02 0.34 0 0 Z " fill="#9F7646" transform="translate(217,125)"/>
<path d="M0 0 C0.99 0.33 1.98 0.66 3 1 C3 1.99 3 2.98 3 4 C2.01 4 1.02 4 0 4 C0 5.98 0 7.96 0 10 C-0.66 9.67 -1.32 9.34 -2 9 C-2 8.01 -2 7.02 -2 6 C-2.99 5.34 -3.98 4.68 -5 4 C-2.6875 1.9375 -2.6875 1.9375 0 0 Z " fill="#B6966E" transform="translate(22,55)"/>
<path d="M0 0 C2.475 0.495 2.475 0.495 5 1 C5 1.66 5 2.32 5 3 C6.98 3 8.96 3 11 3 C10.67 3.99 10.34 4.98 10 6 C7.36 5.34 4.72 4.68 2 4 C2 3.34 2 2.68 2 2 C1.34 2 0.68 2 0 2 C0 1.34 0 0.68 0 0 Z " fill="#AF8B57" transform="translate(167,189)"/>
<path d="M0 0 C0 3.69418201 -1.28179295 5.77836178 -3 9 C-3.33 8.34 -3.66 7.68 -4 7 C-4.99 7.33 -5.98 7.66 -7 8 C-7 6.68 -7 5.36 -7 4 C-5.824375 3.566875 -5.824375 3.566875 -4.625 3.125 C-1.90328368 2.15087746 -1.90328368 2.15087746 0 0 Z " fill="#B5946F" transform="translate(209,152)"/>
<path d="M0 0 C0.99 0 1.98 0 3 0 C2.67 3.63 2.34 7.26 2 11 C1.34 10.67 0.68 10.34 0 10 C-0.44921875 7.96875 -0.44921875 7.96875 -0.6875 5.5 C-0.77386719 4.6853125 -0.86023438 3.870625 -0.94921875 3.03125 C-0.96597656 2.3609375 -0.98273438 1.690625 -1 1 C-0.67 0.67 -0.34 0.34 0 0 Z " fill="#FEFDF9" transform="translate(110,77)"/>
<path d="M0 0 C0.33 0.66 0.66 1.32 1 2 C0.06553465 4.03144641 -0.93224776 6.03533587 -2 8 C-2.66 8 -3.32 8 -4 8 C-4 7.34 -4 6.68 -4 6 C-4.99 5.67 -5.98 5.34 -7 5 C-2.25 1.125 -2.25 1.125 0 0 Z " fill="#A3793E" transform="translate(137,63)"/>
<path d="M0 0 C1.25703929 3.77111786 1.25703929 6.22888214 0 10 C-1.98 9.34 -3.96 8.68 -6 8 C-4.02 5.36 -2.04 2.72 0 0 Z " fill="#E0CE86" transform="translate(107,61)"/>
<path d="M0 0 C2.97 0.495 2.97 0.495 6 1 C5.01 1.66 4.02 2.32 3 3 C3.33 3.66 3.66 4.32 4 5 C0.7 4.34 -2.6 3.68 -6 3 C-6 2.67 -6 2.34 -6 2 C-4.02 2 -2.04 2 0 2 C0 1.34 0 0.68 0 0 Z " fill="#AB8658" transform="translate(86,209)"/>
<path d="M0 0 C1.32 0.99 2.64 1.98 4 3 C4.33 2.01 4.66 1.02 5 0 C5 0.66 5 1.32 5 2 C5.99 2.33 6.98 2.66 8 3 C6.71211992 3.53012738 5.41953322 4.0488329 4.125 4.5625 C3.04605469 4.99755859 3.04605469 4.99755859 1.9453125 5.44140625 C0 6 0 6 -2 5 C-1.34 3.35 -0.68 1.7 0 0 Z " fill="#A77F4C" transform="translate(47,24)"/>
<path d="M0 0 C5.53846154 -0.36923077 5.53846154 -0.36923077 7.875 1.5 C8.24625 1.995 8.6175 2.49 9 3 C8.360625 3.12375 7.72125 3.2475 7.0625 3.375 C6.381875 3.58125 5.70125 3.7875 5 4 C4.67 4.66 4.34 5.32 4 6 C3.34 6 2.68 6 2 6 C1.855625 5.38125 1.71125 4.7625 1.5625 4.125 C1.06847775 1.96741678 1.06847775 1.96741678 0 0 Z " fill="#DFD1C1" transform="translate(55,20)"/>
<path d="M0 0 C2.31 0 4.62 0 7 0 C7 0.66 7 1.32 7 2 C6.01 2 5.02 2 4 2 C4.33 3.32 4.66 4.64 5 6 C3.0625 5.25 3.0625 5.25 1 4 C0.25 1.875 0.25 1.875 0 0 Z " fill="#E3D5A5" transform="translate(71,204)"/>
<path d="M0 0 C0.66 0.33 1.32 0.66 2 1 C1.34 2.32 0.68 3.64 0 5 C0.66 5.33 1.32 5.66 2 6 C-0.475 7.485 -0.475 7.485 -3 9 C-3 4.72290301 -2.29379749 3.44069624 0 0 Z " fill="#CCB377" transform="translate(81,111)"/>
<path d="M0 0 C-0.54723683 3.37462715 -1.0549 5.08235 -3 8 C-3.33 7.01 -3.66 6.02 -4 5 C-4.99 5.66 -5.98 6.32 -7 7 C-3.86206897 0 -3.86206897 0 0 0 Z " fill="#B39262" transform="translate(168,110)"/>
<path d="M0 0 C1.485 0.99 1.485 0.99 3 2 C3.1875 5.625 3.1875 5.625 3 9 C2.01 9 1.02 9 0 9 C0 6.03 0 3.06 0 0 Z " fill="#E0CE82" transform="translate(116,75)"/>
<path d="M0 0 C4 4.75 4 4.75 4 7 C2.68 7.33 1.36 7.66 0 8 C0.33 6.68 0.66 5.36 1 4 C-0.32 4 -1.64 4 -3 4 C-3 3.34 -3 2.68 -3 2 C-2.01 2 -1.02 2 0 2 C0 1.34 0 0.68 0 0 Z " fill="#A37C51" transform="translate(203,54)"/>
<path d="M0 0 C1 2 1 2 0.0625 5.125 C-0.288125 6.07375 -0.63875 7.0225 -1 8 C-2.32 7.34 -3.64 6.68 -5 6 C-4.67 4.35 -4.34 2.7 -4 1 C-3.01 1 -2.02 1 -1 1 C-0.67 0.67 -0.34 0.34 0 0 Z " fill="#C2A675" transform="translate(78,155)"/>
<path d="M0 0 C0.99 0.66 1.98 1.32 3 2 C2.21625 2.721875 1.4325 3.44375 0.625 4.1875 C-1.84412438 6.83299041 -2.93260278 8.60373611 -4 12 C-4.66 12 -5.32 12 -6 12 C-4.68139111 7.38486888 -2.78644563 3.90102388 0 0 Z " fill="#C1A56F" transform="translate(156,123)"/>
<path d="M0 0 C0.99 0.33 1.98 0.66 3 1 C2.690625 1.7425 2.38125 2.485 2.0625 3.25 C1.1905075 5.50692176 0.52332993 7.6450153 0 10 C-1.32 9.67 -2.64 9.34 -4 9 C-3.34 8.67 -2.68 8.34 -2 8 C-1.31527335 6.11235097 -1.31527335 6.11235097 -0.875 3.9375 C-0.70742187 3.20402344 -0.53984375 2.47054687 -0.3671875 1.71484375 C-0.24601563 1.14894531 -0.12484375 0.58304687 0 0 Z " fill="#A1794C" transform="translate(216,109)"/>
<path d="M0 0 C1.9375 0.25 1.9375 0.25 4 1 C6 4 6 4 6 8 C5.34 8 4.68 8 4 8 C3.731875 7.401875 3.46375 6.80375 3.1875 6.1875 C2.01506533 4.02775192 0.80630718 2.64209744 -1 1 C-0.67 0.67 -0.34 0.34 0 0 Z " fill="#AF8C65" transform="translate(209,75)"/>
<path d="M0 0 C0.763125 0.474375 1.52625 0.94875 2.3125 1.4375 C4.96410548 3.10106097 4.96410548 3.10106097 8 4 C8 4.66 8 5.32 8 6 C4.44219804 5.39009109 1.3171411 4.4216319 -2 3 C-1.34 2.67 -0.68 2.34 0 2 C0 1.34 0 0.68 0 0 Z " fill="#AE8B5C" transform="translate(47,191)"/>
<path d="M0 0 C0.33 0 0.66 0 1 0 C1.33 2.31 1.66 4.62 2 7 C2.66 6.67 3.32 6.34 4 6 C2.25 9.875 2.25 9.875 0 11 C-0.84098656 6.98195309 -1.05404945 3.98196457 0 0 Z " fill="#AB875F" transform="translate(197,162)"/>
<path d="M0 0 C0.99 0 1.98 0 3 0 C2.67 1.32 2.34 2.64 2 4 C1.01 4 0.02 4 -1 4 C-1 4.99 -1 5.98 -1 7 C-0.34 7.33 0.32 7.66 1 8 C-0.32 7.67 -1.64 7.34 -3 7 C-1.125 1.125 -1.125 1.125 0 0 Z " fill="#F0E7AB" transform="translate(107,154)"/>
<path d="M0 0 C1.15941038 3.47823115 0.70820884 5.45895578 0 9 C-0.66 8.01 -1.32 7.02 -2 6 C-2.66 6 -3.32 6 -4 6 C-3.67 4.35 -3.34 2.7 -3 1 C-2.34 1.33 -1.68 1.66 -1 2 C-0.67 1.34 -0.34 0.68 0 0 Z " fill="#AC8756" transform="translate(65,155)"/>
<path d="M0 0 C0.66 0 1.32 0 2 0 C1.67 2.31 1.34 4.62 1 7 C0.01 6.67 -0.98 6.34 -2 6 C-2.99 6.495 -2.99 6.495 -4 7 C-2.79618552 4.50638429 -1.54571278 2.31856917 0 0 Z " fill="#BE9F5F" transform="translate(151,112)"/>
<path d="M0 0 C1.98 0 3.96 0 6 0 C5.67 1.98 5.34 3.96 5 6 C2.525 5.01 2.525 5.01 0 4 C1.32 3.67 2.64 3.34 4 3 C4 2.34 4 1.68 4 1 C2.68 1.33 1.36 1.66 0 2 C0 1.34 0 0.68 0 0 Z " fill="#DECD8E" transform="translate(126,4)"/>
<path d="M0 0 C0.66 0 1.32 0 2 0 C2.33 2.31 2.66 4.62 3 7 C1.68 7 0.36 7 -1 7 C-0.67 4.69 -0.34 2.38 0 0 Z " fill="#C3AA8C" transform="translate(12,141)"/>
<path d="M0 0 C1.12377697 3.30435084 0.89554742 5.0506862 -0.4375 8.25 C-0.72496094 8.95640625 -1.01242188 9.6628125 -1.30859375 10.390625 C-1.53675781 10.92171875 -1.76492187 11.4528125 -2 12 C-2.33 12 -2.66 12 -3 12 C-2.88541307 10.56163249 -2.75790884 9.12429034 -2.625 7.6875 C-2.55539063 6.88699219 -2.48578125 6.08648437 -2.4140625 5.26171875 C-2 3 -2 3 0 0 Z " fill="#A27844" transform="translate(175,112)"/>
<path d="M0 0 C1.32 0 2.64 0 4 0 C3.125 4.875 3.125 4.875 2 6 C0.33382885 6.04063832 -1.33388095 6.042721 -3 6 C-1.68 5.67 -0.36 5.34 1 5 C0.67 3.35 0.34 1.7 0 0 Z " fill="#BA9D7D" transform="translate(7,105)"/>
<path d="M0 0 C1.32 0 2.64 0 4 0 C4.33 1.32 4.66 2.64 5 4 C2.69 4.33 0.38 4.66 -2 5 C-1.34 4.67 -0.68 4.34 0 4 C0 2.68 0 1.36 0 0 Z " fill="#D2BB76" transform="translate(119,86)"/>
<path d="M0 0 C2.97 0.495 2.97 0.495 6 1 C5.01 2.485 5.01 2.485 4 4 C4 4.99 4 5.98 4 7 C2 5.1875 2 5.1875 0 3 C0 2.01 0 1.02 0 0 Z " fill="#D3BE84" transform="translate(101,3)"/>
<path d="M0 0 C0.33 1.32 0.66 2.64 1 4 C-1.97 4 -4.94 4 -8 4 C-8.33 3.34 -8.66 2.68 -9 2 C-2.25 0 -2.25 0 0 0 Z " fill="#E1D199" transform="translate(96,120)"/>
<path d="M0 0 C1.65 0 3.3 0 5 0 C4.67 0.99 4.34 1.98 4 3 C3.34 3 2.68 3 2 3 C1.34 4.65 0.68 6.3 0 8 C-0.98120464 4.94736336 -0.98120464 3.05263664 0 0 Z " fill="#9B6E3C" transform="translate(6,95)"/>
<path d="M0 0 C0.99 0 1.98 0 3 0 C3 1.98 3 3.96 3 6 C2.01 6.33 1.02 6.66 0 7 C0 4.69 0 2.38 0 0 Z " fill="#E6D89C" transform="translate(116,84)"/>
<path d="M0 0 C2.5 1.3125 2.5 1.3125 5 3 C5 3.99 5 4.98 5 6 C3.35 6 1.7 6 0 6 C0 4.02 0 2.04 0 0 Z " fill="#DECD86" transform="translate(116,63)"/>
<path d="M0 0 C3.625 0.375 3.625 0.375 7 1 C7 1.99 7 2.98 7 4 C6.38125 3.814375 5.7625 3.62875 5.125 3.4375 C2.95839822 2.76313824 2.95839822 2.76313824 1 4 C0.01 3.34 -0.98 2.68 -2 2 C-1.34 1.34 -0.68 0.68 0 0 Z " fill="#C2A566" transform="translate(118,3)"/>
<path d="M0 0 C0.99 0 1.98 0 3 0 C3 0.66 3 1.32 3 2 C4.32 1.67 5.64 1.34 7 1 C6.67 1.99 6.34 2.98 6 4 C3.9375 4.6875 3.9375 4.6875 2 5 C2 4.01 2 3.02 2 2 C1.34 2 0.68 2 0 2 C0 1.34 0 0.68 0 0 Z " fill="#B28F59" transform="translate(124,210)"/>
<path d="M0 0 C0.99 0.66 1.98 1.32 3 2 C2.34 2 1.68 2 1 2 C1 2.66 1 3.32 1 4 C-0.98 4 -2.96 4 -5 4 C-5 3.34 -5 2.68 -5 2 C-2.6875 0.875 -2.6875 0.875 0 0 Z " fill="#E8DFD4" transform="translate(141,207)"/>
<path d="M0 0 C0.66 1.65 1.32 3.3 2 5 C-1 5 -1 5 -4 4 C-4 3.01 -4 2.02 -4 1 C-2 0 -2 0 0 0 Z " fill="#9C7039" transform="translate(30,171)"/>
<path d="M0 0 C0.99 0 1.98 0 3 0 C2.6875 1.9375 2.6875 1.9375 2 4 C1.01 4.33 0.02 4.66 -1 5 C-1.66 5.66 -2.32 6.32 -3 7 C-2.38722388 4.03824877 -1.74627478 2.61941217 0 0 Z " fill="#E7DAA5" transform="translate(124,154)"/>
<path d="M0 0 C0 1.98 0 3.96 0 6 C-0.99 6.33 -1.98 6.66 -3 7 C-3 5.02 -3 3.04 -3 1 C-1 0 -1 0 0 0 Z " fill="#D8C37B" transform="translate(105,78)"/>
<path d="M0 0 C0.33 1.32 0.66 2.64 1 4 C-0.98 4 -2.96 4 -5 4 C-5 3.01 -5 2.02 -5 1 C-2 0 -2 0 0 0 Z " fill="#DACBB7" transform="translate(184,29)"/>
<path d="M0 0 C0 3 0 3 -1 6 C-1.66 6 -2.32 6 -3 6 C-3.33 4.35 -3.66 2.7 -4 1 C-2.68 0.67 -1.36 0.34 0 0 Z " fill="#D8C485" transform="translate(120,210)"/>
<path d="M0 0 C0.99 0 1.98 0 3 0 C3 1.32 3 2.64 3 4 C1.02 4.33 -0.96 4.66 -3 5 C-1.6875 2.5 -1.6875 2.5 0 0 Z " fill="#9B6F3E" transform="translate(215,93)"/>
<path d="M0 0 C0.598125 0.309375 1.19625 0.61875 1.8125 0.9375 C4.08956772 2.10209704 4.08956772 2.10209704 7 3 C6.67 3.99 6.34 4.98 6 6 C6 5.34 6 4.68 6 4 C3.69 4 1.38 4 -1 4 C-0.67 2.68 -0.34 1.36 0 0 Z " fill="#C1A470" transform="translate(74,13)"/>
</svg>
